<?xml version="1.0" encoding="UTF-8"?>
<svg width="16px" height="22px" viewBox="0 0 16 22" version="1.1" xmlns="http://www.w3.org/2000/svg" xmlns:xlink="http://www.w3.org/1999/xlink">
    <title>Book</title>
    <g id="🖥-Layout-+-Dashboard" stroke="none" stroke-width="1" fill="none" fill-rule="evenodd">
        <g id="Vertical-eCommerce" transform="translate(-324.000000, -1004.000000)">
            <g id="Dashboard" transform="translate(287.000000, 105.000000)">
                <g id="Ecommerce-Table" transform="translate(1.000000, 600.000000)">
                    <g id="Table-Row" transform="translate(0.000000, 278.000000)">
                        <g id="Product" transform="translate(27.000000, 10.068966)">
                            <g id="Book" transform="translate(9.000000, 11.500000)">
                                <g id="Group" opacity="0.2" transform="translate(0.000000, 1.431034)" fill="#231F20" fill-rule="nonzero">
                                    <path d="M16,17.1 C16,18.149275 15.1045,19 14,19 L2,19 C0.8955,19 0,18.149275 0,17.1 L0,1.9 C0,0.850725 0.8955,0 2,0 L14,0 C15.1045,0 16,0.850725 16,1.9 L16,17.1 Z" id="Path"></path>
                                </g>
                                <path d="M16,17.5310345 C16,18.5803095 15.1045,19.4310345 14,19.4310345 L2,19.4310345 C0.8955,19.4310345 0,18.5803095 0,17.5310345 L0,2.33103448 C0,1.28175948 0.8955,0.431034483 2,0.431034483 L14,0.431034483 C15.1045,0.431034483 16,1.28175948 16,2.33103448 L16,17.5310345 Z" id="Path" fill="#82868B"></path>
                                <g id="Group" opacity="0.2" transform="translate(9.000000, 1.431034)" fill="#231F20" fill-rule="nonzero">
                                    <g id="Path">
                                        <path d="M0,0 L0,3.48711111 C0,3.60444444 0.0815,3.71066667 0.2055,3.75555556 C0.247,3.77022222 0.29,3.77777778 0.333,3.77777778 C0.4195,3.77777778 0.505,3.748 0.5685,3.69244444 L2,2.44488889 L3.431,3.69244444 C3.4945,3.748 3.58,3.77777778 3.6665,3.77777778 C3.7095,3.77777778 3.753,3.77066667 3.794,3.75555556 C3.9185,3.71066667 4,3.60444444 4,3.48711111 L4,0 L0,0 Z"></path>
                                    </g>
                                </g>
                                <path d="M9,0.431034483 L9,4.12326978 C9,4.24750507 9.0815,4.35997566 9.2055,4.40750507 C9.247,4.42303448 9.29,4.43103448 9.333,4.43103448 C9.4195,4.43103448 9.505,4.39950507 9.5685,4.34068154 L11,3.01974037 L12.431,4.34068154 C12.4945,4.39950507 12.58,4.43103448 12.6665,4.43103448 C12.7095,4.43103448 12.753,4.42350507 12.794,4.40750507 C12.9185,4.35997566 13,4.24750507 13,4.12326978 L13,0.431034483 L9,0.431034483 Z" id="Path" fill="#F96E6F"></path>
                                <rect id="Rectangle" fill="#BABFC7" x="2" y="0.431034483" width="2" height="19"></rect>
                            </g>
                        </g>
                    </g>
                </g>
            </g>
        </g>
    </g>
</svg>