<?xml version="1.0" encoding="UTF-8"?>
<svg width="20px" height="20px" viewBox="0 0 20 20" version="1.1" xmlns="http://www.w3.org/2000/svg" xmlns:xlink="http://www.w3.org/1999/xlink">
    <title>bootstrap</title>
    <g id="⚙️-Symbols" stroke="none" stroke-width="1" fill="none" fill-rule="evenodd">
        <g id="29)-Table/Table-Dark" transform="translate(-30.000000, -203.000000)" fill-rule="nonzero">
            <g id="Table-Dark" transform="translate(-1.000000, 0.000000)">
                <g id="Table-Row" transform="translate(1.000000, 188.000000)">
                    <g id="Product" transform="translate(30.000000, 13.000000)">
                        <g id="bootstrap" transform="translate(0.000000, 2.000000)">
                            <path d="M19.98002,16.6500167 C19.98002,18.4815185 18.4815185,19.98002 16.6500167,19.98002 L3.33000333,19.98002 C1.4985015,19.98002 0,18.4815185 0,16.6500167 L0,3.33000333 C0,1.4985015 1.4985015,0 3.33000333,0 L16.6500167,0 C18.4815185,0 19.98002,1.4985015 19.98002,3.33000333 L19.98002,16.6500167 Z" id="Path" fill="#563D7C"></path>
                            <path d="M5.42921131,4.34206317 L11.0934817,4.34206317 C12.1381886,4.34206317 12.9772189,4.58038693 13.6073077,5.06029918 C14.2373966,5.54021142 14.5540734,6.26171214 14.5540734,7.23133076 C14.5540734,7.81897841 14.4104262,8.32174362 14.1231318,8.73962639 C13.8358374,9.15750916 13.424484,9.48398007 12.8890717,9.71250971 L12.8890717,9.7451568 C13.6073077,9.89859813 14.1525142,10.2381279 14.5214263,10.7637461 C14.8903384,11.2926289 15.0764268,11.9521002 15.0764268,12.7486892 C15.0764268,13.2057485 14.9948091,13.6334254 14.8315737,14.0284552 C14.6683382,14.4267497 14.4136909,14.7695442 14.064367,15.0568386 C13.7150431,15.344133 13.2710427,15.5726626 12.7258363,15.7424275 C12.1806298,15.9121924 11.5342174,15.9970748 10.7833343,15.9970748 L5.42921131,15.9970748 L5.42921131,4.34206317 Z M7.46965453,9.22280334 L10.7996579,9.22280334 C11.2893642,9.22280334 11.6974529,9.08568556 12.0239238,8.80492057 C12.3503947,8.52415558 12.5136302,8.12586107 12.5136302,7.6035076 C12.5136302,7.01585996 12.3667182,6.6012419 12.0728944,6.36291813 C11.7790706,6.12459436 11.3546584,6.00380012 10.7996579,6.00380012 L7.46965453,6.00380012 L7.46965453,9.22280334 Z M7.46965453,14.3320732 L11.0771581,14.3320732 C11.6974529,14.3320732 12.1806298,14.1721024 12.5201596,13.8488962 C12.862954,13.5289547 13.0359836,13.0718954 13.0359836,12.4842478 C13.0359836,11.9063943 12.8662187,11.4656585 12.5201596,11.1522464 C12.1741004,10.8388344 11.6974529,10.6886577 11.0771581,10.6886577 L7.46965453,10.6886577 L7.46965453,14.3320732 Z" id="Shape" fill="#FFFFFF"></path>
                        </g>
                    </g>
                </g>
            </g>
        </g>
    </g>
</svg>