<?xml version="1.0" encoding="UTF-8"?>
<svg width="16px" height="25px" viewBox="0 0 16 25" version="1.1" xmlns="http://www.w3.org/2000/svg" xmlns:xlink="http://www.w3.org/1999/xlink">
    <title>brush</title>
    <g id="🖥-Layout-+-Dashboard" stroke="none" stroke-width="1" fill="none" fill-rule="evenodd">
        <g id="Vertical-eCommerce" transform="translate(-324.000000, -884.000000)" fill-rule="nonzero">
            <g id="Dashboard" transform="translate(287.000000, 105.000000)">
                <g id="Ecommerce-Table" transform="translate(1.000000, 600.000000)">
                    <g id="Table-Row" transform="translate(0.000000, 160.000000)">
                        <g id="Product" transform="translate(27.000000, 10.068966)">
                            <g id="brush" transform="translate(9.000000, 8.931034)">
                                <path d="M16,13.4230769 C16,14.0180769 15.5226667,14.5 14.9333333,14.5 L1.06666667,14.5 C0.477333333,14.5 0,14.0180769 0,13.4230769 L0,1.57692308 C0,0.981923077 0.477333333,0.5 1.06666667,0.5 L14.9333333,0.5 C15.5226667,0.5 16,0.981923077 16,1.57692308 L16,13.4230769 Z" id="Path" fill="#4F5D73"></path>
                                <path d="M0,13.5 C0,13.5 0,13.9475 0,14.5 L0,15.5 C0,16.0525 0.477333333,16.5 1.06666667,16.5 L4.8,16.5 C4.8,16.5 6.4,16.5 6.4,18 C6.4,20.09 6,21.1285 5.86826667,21.414 C5.8576,21.436 5.8464,21.4575 5.83626667,21.48 C5.82986667,21.492 5.8256,21.5 5.8256,21.5 L5.82933333,21.5 C5.7232,21.7505 5.6608,22.0215 5.6608,22.3075 C5.66133333,23.5185 6.70826667,24.5 8,24.5 C9.29173333,24.5 10.3386667,23.5185 10.3386667,22.3075 C10.3386667,22.0215 10.2762667,21.7505 10.1701333,21.5 L10.1738667,21.5 C10.1738667,21.5 10.1696,21.492 10.1632,21.4795 C10.1536,21.4575 10.1424,21.4365 10.1317333,21.4145 C10.0005333,21.13 9.6,20.091 9.6,18 C9.6,18 9.60533333,16.5 11.2,16.5 L14.9333333,16.5 C15.5226667,16.5 16,16.0525 16,15.5 L16,14.5 C16,13.9475 16,13.5 16,13.5 L0,13.5 Z" id="Path" fill="#231F20" opacity="0.2"></path>
                                <path d="M0,12.5 C0,12.5 0,12.9475 0,13.5 L0,14.5 C0,15.0525 0.477333333,15.5 1.06666667,15.5 L4.8,15.5 C4.8,15.5 6.4,15.5 6.4,17 C6.4,19.09 6,20.1285 5.86826667,20.414 C5.8576,20.436 5.8464,20.4575 5.83626667,20.48 C5.82986667,20.492 5.8256,20.5 5.8256,20.5 L5.82933333,20.5 C5.7232,20.7505 5.6608,21.0215 5.6608,21.3075 C5.66133333,22.5185 6.70826667,23.5 8,23.5 C9.29173333,23.5 10.3386667,22.5185 10.3386667,21.3075 C10.3386667,21.0215 10.2762667,20.7505 10.1701333,20.5 L10.1738667,20.5 C10.1738667,20.5 10.1696,20.492 10.1632,20.4795 C10.1536,20.4575 10.1424,20.4365 10.1317333,20.4145 C10.0005333,20.13 9.6,19.091 9.6,17 C9.6,17 9.60533333,15.5 11.2,15.5 L14.9333333,15.5 C15.5226667,15.5 16,15.0525 16,14.5 L16,13.5 C16,12.9475 16,12.5 16,12.5 L0,12.5 Z" id="Path" fill="#FFAF63"></path>
                                <rect id="Rectangle" fill="#231F20" opacity="0.2" x="0" y="10.5" width="16" height="3"></rect>
                                <rect id="Rectangle" fill="#FFFFFF" x="0" y="9.5" width="16" height="3"></rect>
                                <path d="M14.9333333,2.5 L1.06666667,2.5 C0.477333333,2.5 0,2.9475 0,3.5 L0,5.5 L0,7.5 C0,8.0525 0,8.5 0,8.5 L7.2,8.5 C7.6416,8.5 8,8.836 8,9.25 C8,9.664 8.3584,10 8.8,10 C9.2416,10 9.6,9.664 9.6,9.25 C9.6,8.836 9.9584,8.5 10.4,8.5 C10.8416,8.5 11.2,8.836 11.2,9.25 L11.2,10.75 C11.2,11.164 11.5584,11.5 12,11.5 C12.4416,11.5 12.8,11.164 12.8,10.75 L12.8,9.25 C12.8,8.836 13.1584,8.5 13.6,8.5 C14.0416,8.5 14.4,8.836 14.4,9.25 L14.4,9.75 C14.4,10.164 14.7584,10.5 15.2,10.5 C15.6416,10.5 16,10.164 16,9.75 L16,7.5 L16,6.75 L16,5.5 L16,3.5 C16,2.9475 15.5226667,2.5 14.9333333,2.5 Z" id="Path" fill="#838E9E" opacity="0.2"></path>
                                <path d="M16,9.5 C16,10.052 15.552,10.5 15,10.5 L15,10.5 C14.448,10.5 14,10.052 14,9.5 L14,5.5 C14,4.948 14.448,4.5 15,4.5 L15,4.5 C15.552,4.5 16,4.948 16,5.5 L16,9.5 Z" id="Path" fill="#F96E6F"></path>
                                <path d="M12,9.5 C12,10.052 11.552,10.5 11,10.5 L11,10.5 C10.448,10.5 10,10.052 10,9.5 L10,5.5 C10,4.948 10.448,4.5 11,4.5 L11,4.5 C11.552,4.5 12,4.948 12,5.5 L12,9.5 Z" id="Path" fill="#F96E6F"></path>
                                <path d="M9,9.5 C9,10.052 8.552,10.5 8,10.5 L8,10.5 C7.448,10.5 7,10.052 7,9.5 L7,5.5 C7,4.948 7.448,4.5 8,4.5 L8,4.5 C8.552,4.5 9,4.948 9,5.5 L9,9.5 Z" id="Path" fill="#F96E6F"></path>
                                <g id="Group" transform="translate(0.000000, 0.500000)" fill="#F96E6F">
                                    <path d="M16,1 C16,0.4475 15.5226667,0 14.9333333,0 L1.06666667,0 C0.477333333,0 0,0.4475 0,1 L0,3 L16,3 L16,1 Z" id="Path"></path>
                                    <path d="M0,1 L0,5 C0,5.5525 0,6 0,6 L14.9333333,6 C15.5226667,6 16,5.5525 16,5 L16,3 L0,1 Z" id="Path"></path>
                                </g>
                            </g>
                        </g>
                    </g>
                </g>
            </g>
        </g>
    </g>
</svg>