<?xml version="1.0" encoding="UTF-8"?>
<svg width="20px" height="18px" viewBox="0 0 20 18" version="1.1" xmlns="http://www.w3.org/2000/svg" xmlns:xlink="http://www.w3.org/1999/xlink">
    <title>react</title>
    <g id="âš™ï¸-Symbols" stroke="none" stroke-width="1" fill="none" fill-rule="evenodd">
        <g id="29)-Table/Table-Dark" transform="translate(-30.000000, -104.000000)" fill="#00D8FF" fill-rule="nonzero">
            <g id="Table-Dark" transform="translate(-1.000000, 0.000000)">
                <g id="Table-Row" transform="translate(1.000000, 88.000000)">
                    <g id="Product" transform="translate(30.000000, 13.000000)">
                        <g id="react" transform="translate(0.000000, 3.000000)">
                            <circle id="Oval" cx="10" cy="8.86678508" r="1.78330373"></circle>
                            <path d="M10,12.9520426 C7.4955595,12.9520426 5.30728242,12.6571936 3.669627,12.0959147 C2.60746004,11.7335702 1.70515098,11.250444 1.06216696,10.6998224 C0.380106572,10.1172291 0.0177619893,9.48134991 0.0177619893,8.86678508 C0.0177619893,7.68738899 1.31083481,6.53285968 3.48134991,5.77975133 C5.25754885,5.1616341 7.57371226,4.81705151 9.9964476,4.81705151 C12.3765542,4.81705151 14.660746,5.15097691 16.4262877,5.76198934 C17.4600355,6.11722913 18.330373,6.57904085 18.9484902,7.09058615 C19.6198934,7.65186501 19.9751332,8.26642984 19.9751332,8.86678508 C19.9751332,10.0923623 18.5293073,11.3321492 16.1989343,12.1030195 C14.5506217,12.6500888 12.348135,12.9520426 10,12.9520426 Z M10,5.669627 C7.70159858,5.669627 5.42806394,6.0035524 3.76554174,6.58259325 C1.76909414,7.27886323 0.873889876,8.23090586 0.873889876,8.86678508 C0.873889876,9.52753108 1.8365897,10.5683837 3.94671403,11.2895204 C5.4955595,11.8188277 7.59147425,12.0994671 10,12.0994671 C12.259325,12.0994671 14.365897,11.8152753 15.9325044,11.2930728 C18.1243339,10.5648313 19.1261101,9.52397869 19.1261101,8.86678508 C19.1261101,8.52930728 18.8703375,8.13143872 18.4049734,7.74422735 C17.8685613,7.29662522 17.0870337,6.88809947 16.1527531,6.56483126 C14.4724689,5.98934281 12.2877442,5.669627 10,5.669627 Z" id="Shape"></path>
                            <path d="M5.95381883,17.7548845 C5.59147425,17.7548845 5.27175844,17.6767318 5.0017762,17.5204263 C3.98223801,16.9307282 3.62699822,15.2326821 4.05683837,12.9769094 C4.40852575,11.1261101 5.26820604,8.95204263 6.47957371,6.85257549 C7.669627,4.79218472 9.09769094,2.98046181 10.5079929,1.75488455 C11.3321492,1.03730018 12.1669627,0.511545293 12.920071,0.234458259 C13.740675,-0.0674955595 14.4511545,-0.0674955595 14.9698046,0.230905861 C16.0319716,0.841918295 16.383659,2.71758437 15.8863233,5.11900533 C15.5346359,6.82415631 14.69627,8.88099467 13.5239787,10.9165187 C12.2735346,13.0834813 10.9236234,14.8312611 9.61989343,15.9715808 C8.77442274,16.7104796 7.90408526,17.250444 7.10834813,17.5310835 C6.69271758,17.6802842 6.30195382,17.7548845 5.95381883,17.7548845 Z M6.84547069,7.06571936 L7.21492007,7.27886323 C6.06749556,9.26820604 5.21847247,11.4031972 4.89165187,13.1367673 C4.4973357,15.2149201 4.87744227,16.4653641 5.42451155,16.7815275 C5.55950266,16.8596803 5.73712256,16.9023091 5.95381883,16.9023091 C6.660746,16.9023091 7.77264654,16.4547069 9.05861456,15.3321492 C10.2912966,14.2557726 11.5808171,12.5790409 12.7850799,10.4937833 C13.9147425,8.53641208 14.7175844,6.56838366 15.0515098,4.95204263 C15.5168739,2.68916519 15.1154529,1.30373002 14.5435169,0.973357016 C14.2522202,0.806394316 13.7797513,0.827708703 13.2113677,1.03730018 C12.5541741,1.27886323 11.8117229,1.75133215 11.0657194,2.40142096 C9.72646536,3.56660746 8.35879218,5.30017762 7.21492007,7.28241563 L6.84547069,7.06571936 Z" id="Shape"></path>
                            <path d="M14.0461812,17.7655417 C13.079929,17.7655417 11.8543517,17.1829485 10.5754885,16.0817052 C9.14742451,14.8525755 7.69449378,13.0230906 6.47957371,10.9236234 L6.47957371,10.9236234 C5.28596803,8.86323268 4.43339254,6.72113677 4.07460036,4.88454707 C3.86500888,3.81172291 3.8259325,2.8277087 3.96092362,2.03552398 C4.11012433,1.1722913 4.46181172,0.557726465 4.98401421,0.255772647 C6.04262877,-0.358792185 7.84369449,0.273534636 9.67673179,1.90408526 C10.9769094,3.05861456 12.3410302,4.81349911 13.5168739,6.84547069 C14.7708703,9.01243339 15.6127886,11.0550622 15.946714,12.7531083 C16.1634103,13.8543517 16.1989343,14.8774423 16.0461812,15.7087034 C15.8827709,16.5932504 15.5133215,17.2220249 14.9804618,17.5310835 C14.714032,17.687389 14.3978686,17.7655417 14.0461812,17.7655417 Z M7.21847247,10.4973357 C8.36944938,12.4866785 9.79751332,14.2877442 11.1332149,15.4351687 C12.7353464,16.8134991 14.0071048,17.1119005 14.5577265,16.7921847 C15.1296625,16.4618117 15.5488455,15.1083481 15.1154529,12.920071 C14.7957371,11.3143872 13.9893428,9.36056838 12.7815275,7.27531083 C11.6483126,5.31793961 10.3445826,3.63765542 9.11190053,2.54351687 C7.38543517,1.00888099 5.98579041,0.664298401 5.41385435,0.994671403 C5.12255773,1.1616341 4.90586146,1.58436945 4.80284192,2.18117229 C4.68561279,2.87033748 4.72113677,3.75133215 4.91296625,4.72113677 C5.25399645,6.46536412 6.07104796,8.51509769 7.21847247,10.4973357 L7.21847247,10.4973357 Z" id="Shape"></path>
                        </g>
                    </g>
                </g>
            </g>
        </g>
    </g>
</svg>