<?xml version="1.0" encoding="UTF-8"?>
<svg width="22px" height="23px" viewBox="0 0 22 23" version="1.1" xmlns="http://www.w3.org/2000/svg" xmlns:xlink="http://www.w3.org/1999/xlink">
    <title>rocket</title>
    <g id="🖥-Layout-+-Dashboard" stroke="none" stroke-width="1" fill="none" fill-rule="evenodd">
        <g id="Vertical-eCommerce" transform="translate(-321.000000, -1061.000000)">
            <g id="Dashboard" transform="translate(287.000000, 105.000000)">
                <g id="Ecommerce-Table" transform="translate(1.000000, 600.000000)">
                    <g id="Table-Row" transform="translate(0.000000, 337.000000)">
                        <g id="Product" transform="translate(27.000000, 10.068966)">
                            <g id="rocket" transform="translate(6.000000, 9.000000)">
                                <g id="Group" opacity="0.2" transform="translate(7.500000, 10.500000)" fill="#231F20" fill-rule="nonzero">
                                    <path d="M3.75670588,3.50009524 C2.93294118,4.31514286 0.534176471,10.0686667 0.534176471,10.0686667 C0.182117647,10.7014286 0.708882353,11.1608095 1.90694118,10.5589524 L6.21158824,8.23585714 C8.53094118,6.96038095 8.97935294,6.6272381 8.94864706,4.03071429 L8.51717647,0.964857143 C8.36947059,-0.0853809524 7.57482353,-0.278142857 6.75105882,0.536904762 L3.75670588,3.50009524 Z" id="Path"></path>
                                </g>
                                <g id="Group" opacity="0.2" transform="translate(0.500000, 5.500000)" fill="#231F20" fill-rule="nonzero">
                                    <path d="M7.37104762,5.64247059 C6.556,6.46623529 0.80247619,8.865 0.80247619,8.865 C0.169714286,9.21705882 -0.289666667,8.69029412 0.312190476,7.49223529 L2.63528571,3.18758824 C3.9107619,0.868235294 4.24390476,0.419823529 6.84042857,0.450529412 L9.90628571,0.882 C10.9565238,1.02970588 11.1492857,1.82435294 10.3342381,2.64811765 L7.37104762,5.64247059 Z" id="Path"></path>
                                </g>
                                <path d="M10.6255433,13.0296235 C9.85236482,13.8591597 7.60090476,19.7149604 7.60090476,19.7149604 C7.27046536,20.3589706 7.76488221,20.8265176 8.88936998,20.2139616 L12.9296749,17.8495702 C15.1065998,16.5514206 15.5274752,16.2123557 15.498655,13.569675 L15.0936803,10.449318 C14.9550449,9.38041044 14.2091959,9.18422192 13.4360174,10.0137581 L10.6255433,13.0296235 Z" id="Path" fill="#F96E6F"></path>
                                <path d="M7.97037653,10.9837638 C7.1408403,11.8535896 1.28503958,14.3864821 1.28503958,14.3864821 C0.641029447,14.7582265 0.173482357,14.2020075 0.78603835,12.9369588 L3.15042985,8.39161571 C4.44857941,5.94257525 4.78764434,5.46909037 7.43032499,5.50151318 L10.550682,5.95710961 C11.6195896,6.11307453 11.8157781,6.95215458 10.9862419,7.82198041 L7.97037653,10.9837638 Z" id="Path" fill="#F96E6F"></path>
                                <g id="Group" opacity="0.2" transform="translate(1.500000, 11.500000)" fill="#231F20" fill-rule="nonzero">
                                    <path d="M4.1235,2.39210526 C6.6605,-0.278421053 8.792,0.536315789 8.792,0.536315789 C8.792,0.536315789 9.5665,2.78 7.029,5.45052632 C4.4915,8.12105263 0.3835,10.0610526 0.0635,9.72421053 C-0.2465,9.39736842 1.586,5.06263158 4.1235,2.39210526 Z" id="Path"></path>
                                </g>
                                <path d="M5.65234466,12.6115316 C8.2253708,9.75318861 10.3871387,10.6252255 10.3871387,10.6252255 C10.3871387,10.6252255 11.1726368,13.0267068 8.5991036,15.8850498 C6.02557037,18.7433928 1.85923557,20.819832 1.53469148,20.4593 C1.22028939,20.1094712 3.07881142,15.4698746 5.65234466,12.6115316 Z" id="Path" fill="#FFAF63"></path>
                                <path d="M7.65234048,10.6115316 C10.2253688,7.75318861 12.3871386,8.62522546 12.3871386,8.62522546 C12.3871386,8.62522546 13.1726374,11.0267068 10.599102,13.8850498 C8.02556651,16.7433928 3.85922813,18.819832 3.53468376,18.4593 C3.22028139,18.1100346 5.07931213,13.4698746 7.65234048,10.6115316 Z" id="Path" fill="#F5CF87" fill-rule="nonzero"></path>
                                <g id="Group" opacity="0.2" transform="translate(6.500000, 0.500000)" fill="#231F20" fill-rule="nonzero">
                                    <path d="M10.6727586,12.1809655 C6.63310345,16.489931 0.440172414,15.3108966 0.440172414,15.3108966 C0.440172414,15.3108966 -0.665172414,8.70565517 3.37448276,4.39613793 C7.41413793,0.0866206897 13.5346552,-0.371310345 14.3384483,0.486068966 C15.117931,1.31751724 14.712931,7.872 10.6727586,12.1809655 Z" id="Path"></path>
                                </g>
                                <path d="M16.6099785,12.2930753 C12.6719425,16.5093512 6.63479717,15.3556788 6.63479717,15.3556788 C6.63479717,15.3556788 5.55725774,8.89252188 9.49529375,4.67570608 C13.4333298,0.458890277 19.3998829,0.0108097349 20.1834563,0.849746075 C20.9433308,1.66330918 20.5485188,8.07679935 16.6099785,12.2930753 Z" id="Path" fill="#FFFFFF"></path>
                                <g id="Group" opacity="0.2" transform="translate(3.500000, 9.500000)" fill="#231F20" fill-rule="nonzero">
                                    <path d="M1.60041176,8.88555556 C1.18694118,9.31944444 0.891,9.71222222 0.477529412,9.27833333 L0.477529412,9.27833333 C0.0640588235,8.84444444 0.438352941,8.53388889 0.851823529,8.1 L6.09247059,1.02888889 C6.50594118,0.595 8.29958824,0.202222222 8.71305882,0.636111111 L8.71305882,0.636111111 C9.12652941,1.07 8.75223529,2.95222222 8.33876471,3.38611111 L1.60041176,8.88555556 Z" id="Path"></path>
                                </g>
                                <path d="M5.71243781,16.9198707 C5.32758964,17.3528249 5.05213494,17.7447566 4.66728677,17.3118024 L4.66728677,17.3118024 C4.28243861,16.8788482 4.63082229,16.5689617 5.01567045,16.1360075 L9.89353471,9.08012926 C10.2783829,8.64717507 11.9478651,8.25524343 12.3327132,8.68819762 L12.3327132,8.68819762 C12.7175614,9.12115181 12.3691777,10.9993193 11.9843295,11.4322734 L5.71243781,16.9198707 Z" id="Path" fill="#F96E6F"></path>
                                <g id="Group" opacity="0.2" transform="translate(11.500000, 4.500000)" fill="#231F20" fill-rule="nonzero">
                                    <circle id="Oval" transform="translate(3.555867, 3.075188) rotate(-45.000000) translate(-3.555867, -3.075188) " cx="3.55586722" cy="3.0751883" r="2.07835446"></circle>
                                </g>
                                <g id="Group" opacity="0.2" transform="translate(15.500000, 2.500000)" fill="#231F20" fill-rule="nonzero">
                                    <circle id="Oval" transform="translate(1.863231, 1.996198) rotate(-45.000000) translate(-1.863231, -1.996198) " cx="1.86323051" cy="1.9961984" r="1.14284618"></circle>
                                </g>
                                <circle id="Oval" fill="#838E9E" fill-rule="nonzero" transform="translate(14.642950, 6.519714) rotate(-45.000000) translate(-14.642950, -6.519714) " cx="14.6429505" cy="6.51971427" r="2.09934061"></circle>
                                <circle id="Oval" fill="#838E9E" fill-rule="nonzero" transform="translate(17.543925, 3.484235) rotate(-45.000000) translate(-17.543925, -3.484235) " cx="17.5439248" cy="3.48423508" r="1.0496703"></circle>
                            </g>
                        </g>
                    </g>
                </g>
            </g>
        </g>
    </g>
</svg>