<?xml version="1.0" encoding="UTF-8"?>
<svg width="22px" height="21px" viewBox="0 0 22 21" version="1.1" xmlns="http://www.w3.org/2000/svg" xmlns:xlink="http://www.w3.org/1999/xlink">
    <title>toolbox</title>
    <g id="🖥-Layout-+-Dashboard" stroke="none" stroke-width="1" fill="none" fill-rule="evenodd">
        <g id="Vertical-eCommerce" transform="translate(-321.000000, -765.000000)">
            <g id="Dashboard" transform="translate(287.000000, 105.000000)">
                <g id="Ecommerce-Table" transform="translate(1.000000, 600.000000)">
                    <g id="Table-Row" transform="translate(0.000000, 41.000000)">
                        <g id="Product" transform="translate(27.000000, 9.068966)">
                            <g id="toolbox" transform="translate(6.000000, 10.000000)">
                                <g id="Group" opacity="0.2" transform="translate(0.000000, 5.931034)" fill="#231F20" fill-rule="nonzero">
                                    <path d="M22,11.8461538 C22,13.0356154 21.01495,14 19.8,14 L2.2,14 C0.98505,14 0,13.0356154 0,11.8461538 L0,2.15384615 C0,0.964384615 0.98505,0 2.2,0 L19.8,0 C21.01495,0 22,0.964384615 22,2.15384615 L22,11.8461538 Z" id="Path"></path>
                                </g>
                                <path d="M13.8,3.07389163 L13.8,13.7881773 L7.2,13.7881773 L7.2,3.07389163 L13.8,3.07389163 M13.8,0.931034483 L7.2,0.931034483 C5.98505,0.931034483 5,1.89049877 5,3.07389163 L5,13.7881773 C5,14.9715702 5.98505,15.9310345 7.2,15.9310345 L13.8,15.9310345 C15.01495,15.9310345 16,14.9715702 16,13.7881773 L16,3.07389163 C16,1.89049877 15.01495,0.931034483 13.8,0.931034483 L13.8,0.931034483 Z" id="Shape" fill="#4B4B4B"></path>
                                <path d="M0,8.93103448 L0,16.5780933 C0,17.8775051 0.98505,18.9310345 2.2,18.9310345 L19.8,18.9310345 C21.01495,18.9310345 22,17.8775051 22,16.5780933 L22,8.93103448 L0,8.93103448 Z" id="Path" fill="#F96E6F"></path>
                                <path d="M13.5,9.47648903 L13.5,11.3855799 L8.5,11.3855799 L8.5,9.47648903 L13.5,9.47648903 M13.5,6.93103448 L8.5,6.93103448 C7.119375,6.93103448 6,8.07076176 6,9.47648903 L6,11.3855799 C6,12.7913072 7.119375,13.9310345 8.5,13.9310345 L13.5,13.9310345 C14.880625,13.9310345 16,12.7913072 16,11.3855799 L16,9.47648903 C16,8.07076176 14.880625,6.93103448 13.5,6.93103448 L13.5,6.93103448 Z" id="Shape" fill="#FFFFFF"></path>
                                <g id="Group" opacity="0.2" transform="translate(0.000000, 6.931034)" fill="#231F20" fill-rule="nonzero">
                                    <path d="M22,2.22222222 C22,0.995 21.01495,0 19.8,0 L2.2,0 C0.98505,0 0,0.995 0,2.22222222 L0,5 L22,5 L22,2.22222222 Z" id="Path"></path>
                                </g>
                                <path d="M22,7.1532567 C22,5.92603448 21.01495,4.93103448 19.8,4.93103448 L2.2,4.93103448 C0.98505,4.93103448 0,5.92603448 0,7.1532567 L0,9.93103448 L22,9.93103448 L22,7.1532567 Z" id="Path" fill="#F96E6F"></path>
                            </g>
                        </g>
                    </g>
                </g>
            </g>
        </g>
    </g>
</svg>