<?xml version="1.0" encoding="UTF-8"?>
<svg width="170px" height="209px" viewBox="0 0 170 209" version="1.1" xmlns="http://www.w3.org/2000/svg" xmlns:xlink="http://www.w3.org/1999/xlink">
    <title>Illustration</title>
    <g id="ðŸ“-Pages-New" stroke="none" stroke-width="1" fill="none" fill-rule="evenodd">
        <g id="FAQ" transform="translate(-336.000000, -817.000000)">
            <g id="Illustration" transform="translate(421.000000, 921.500000) scale(-1, 1) translate(-421.000000, -921.500000) translate(336.000000, 817.000000)">
                <path d="M38.11136,127.5 L100,127.5 L100,127.5 L100,193.5 C100,195.709139 98.209139,197.5 96,197.5 L18,197.5 C15.790861,197.5 14,195.709139 14,193.5 L14,151.61136 C14,138.295024 24.7950236,127.5 38.11136,127.5 Z" id="Rectangle" fill="#DFDFDF"></path>
                <polygon id="Rectangle" fill="#D1D1D1" points="22 188.5 84 188.5 84 197.5 22 197.5"></polygon>
                <polygon id="Path" fill="#DFDFDF" points="102.069584 198.5 106 208.5 87 208.5 90.2925852 198.5"></polygon>
                <polygon id="Path" fill="#F1F1F1" points="37.0695843 197.5 41 208.5 22 208.5 25.2925852 197.5"></polygon>
                <polygon id="Path" fill="#DFDFDF" points="166.069584 198.5 170 208.5 151 208.5 154.292585 198.5"></polygon>
                <path d="M86.5803656,54.7956067 L100,54.5 L100,54.5 L100,134.5 L63,134.5 L63,78.901119 C63,65.7916957 73.4741217,55.08431 86.5803656,54.7956067 Z" id="Rectangle" fill="#DFDFDF"></path>
                <path d="M94.11136,54.5 L148.16,54.5 C160.221899,54.5 170,64.2781011 170,76.34 L170,133.7528 C170,134.717752 169.217752,135.5 168.2528,135.5 L70,135.5 L70,135.5 L70,78.61136 C70,65.2950236 80.7950236,54.5 94.11136,54.5 Z" id="Rectangle" fill="#F2F2F2"></path>
                <path d="M156,54.5 C163.731986,54.5 170,60.7680135 170,68.5 L170,125.7528 C170,126.717752 169.217752,127.5 168.2528,127.5 L142,127.5 L142,127.5 L142,68.5 C142,60.7680135 148.268014,54.5 156,54.5 Z" id="Rectangle" fill="#DFDFDF"></path>
                <path d="M34.6,135.5 L96,135.5 L96,135.5 L96,188.5 L22,188.5 L22,148.1 C22,141.141212 27.6412122,135.5 34.6,135.5 Z" id="Rectangle" fill="#F2F2F2"></path>
                <g id="Wom1.4" transform="translate(67.000000, 104.500000) scale(-1, 1) translate(-67.000000, -104.500000) translate(0.000000, 0.500000)">
                    <g id="Head" transform="translate(26.641267, 0.378756)">
                        <path d="M8.1469457,46.3186884 C-1.7852142,44.0040155 -2.43933432,30.3610614 5.11182835,25.6285504 C-2.67561043,9.29203187 15.3329111,-6.92800719 27.6685858,3.07515321 C35.755572,-0.388984977 42.4759625,13.1287933 34.9509646,23.6275629 C38.1060606,41.654256 31.6848041,46.3139752 20.1094945,46.5119269 L8.1469457,46.3186884 Z" id="Path" fill="#33373E"></path>
                        <path d="M8.27051177,43.0603672 C8.27051177,43.0603672 13.1020342,41.9252786 13.2696475,34.0027689 C13.4372608,26.0802591 13.3195985,23.3759195 13.3195985,23.3759195 L23.9620139,23.1837442 C23.9620139,23.1837442 24.0780231,32.0132542 24.0796763,35.2069192 C24.0841163,43.7846658 30.0565931,43.0603672 30.0565931,43.0603672 C30.0565931,43.0603672 28.8150302,50.0155252 19.1717139,50.5581705 C11.6424345,50.9825113 8.27051177,43.0603672 8.27051177,43.0603672 Z" id="Path" fill="#EDC2C2"></path>
                        <path d="M10.8387307,19.4197633 C6.09116651,19.2359193 6.8655494,26.191094 11.7973772,26.1816519 C11.7973772,26.1816519 14.6618581,36.0618898 24.6069681,36.0618898 C32.6836799,36.0618898 33.2090838,24.5462892 33.2823452,22.2490724 C33.3611568,19.7996705 33.371147,11.7527467 33.371147,11.7527467 L10.653912,11.7421937 L10.8387307,19.4197633 Z" id="Path" fill="#FFD7D7"></path>
                        <path d="M22.8656637,28.6327248 C22.8656637,28.6327248 24.4982608,31.2736926 27.6882171,30.3339201" id="Path" stroke="#F77B7B" stroke-width="1.5" stroke-linecap="round" transform="translate(25.276940, 29.584425) rotate(-18.000000) translate(-25.276940, -29.584425) "></path>
                        <path d="M24.2493638,31.7850762 C24.9978504,32.0994549 25.7077829,32.0994732 26.3290047,31.7382425" id="Path" stroke="#F49494" stroke-linecap="round" transform="translate(25.289184, 31.876780) rotate(2.000000) translate(-25.289184, -31.876780) "></path>
                        <path d="M11.0573784,23.2772966 C11.3559081,22.2012046 11.223855,21.2613774 10.1560075,20.8321243" id="Path-8" stroke="#F77B7B" stroke-linecap="round" transform="translate(10.676100, 22.054710) rotate(-13.000000) translate(-10.676100, -22.054710) "></path>
                        <path d="M10.0875813,18.5604193 C10.0875813,18.5604193 12.6897844,22.054716 13.216892,22.0732758 C13.7439996,22.0918355 13.9285747,17.5287665 13.9285747,17.5287665 C17.1206809,17.2847308 25.1992405,15.6748276 27.1795419,11.9243414 C28.5644238,15.2335548 31.2117761,16.7034442 32.9511806,16.4211798 L33.2808572,23.4516058 L34.092759,9.31746176 L9.45110201,9.31746176 L10.0875813,18.5604193 Z" id="Path" fill="#33373E"></path>
                    </g>
                    <g id="LLeg" transform="translate(30.040367, 107.250000)">
                        <path d="M53.4969269,75.899687 C53.4969269,75.899687 49.2378026,84.5082888 52.7293213,87.2210696 C56.2260905,89.9343759 65.462598,95.0189354 65.462598,95.0189354 L40.9920341,93.479959 L46.4314528,74.7048655 L53.4969269,75.899687 Z" id="Path" fill="#FFD7D7"></path>
                        <path d="M43.3590324,84.0921504 C44.5666253,84.2334903 43.2769367,88.3022094 45.891638,88.6116861 C48.5010889,88.9206373 49.7693667,85.0658421 52.7305947,86.2879109 C55.6918226,87.5099796 66.4915646,93.8282422 66.9168474,96.4112425 C67.3473805,98.9937175 63.3236601,99.7536371 57.8054853,99.1704129 C52.2873106,98.5871886 51.2702323,96.6226144 47.1276634,97.4139079 C42.9903449,98.2046759 39.8909493,96.9441043 40.0274599,93.9186942 C40.1639704,90.8938096 42.1514394,83.9513359 43.3590324,84.0921504 Z" id="Path" fill="#2B2E35"></path>
                        <path d="M54.081263,86.9147063 L53.6550527,87.5543195 C53.3487989,88.0139139 53.4731062,88.6347566 53.9327006,88.9410103 C53.9544716,88.9555176 53.9768035,88.9691649 53.9996447,88.9819207 L61.0379911,92.9125335 C61.3287689,93.0749203 61.681308,93.0818866 61.9782739,92.9311138 L63.0232756,92.4005552 L63.0232756,92.4005552 C61.2434463,91.1105093 59.7880344,90.1412251 58.1797241,89.1894797 C56.945004,88.4588129 55.5780178,87.7055369 54.081263,86.9147063 Z" id="Path-14" fill-opacity="0.54097465" fill="#FFFFFF"></path>
                        <path d="M16.6345894,0.0256888086 C24.0429096,0.356707974 65.2755331,9.4831806 72.766803,11.0337045 C80.2580729,12.5842283 86.5914565,20.9742232 80.8790168,30.689373 C74.4630229,41.5951409 57.9085839,72.5672689 53.8892947,79.5491528 C51.8999148,83.004893 41.863828,81.0673443 44.2212594,75.2671459 C48.6159347,64.4545355 50.6568262,37.2922277 61.8611887,27.3884495 C61.8611887,27.3884495 24.1810415,33.951072 7.90478857,26.4337844 C-3.92437201,20.9693411 -1.24828721,-0.774536887 16.6345894,0.0256888086 Z" id="Path" fill="#33373E"></path>
                    </g>
                    <g id="LArm" transform="translate(52.383906, 45.760000)">
                        <path d="M46.782236,17.6753496 C46.782236,17.6753496 46.6985217,11.643004 48.8070746,8.49047147 C50.9156275,5.33793893 50.9993417,1.98925813 52.5951448,2.09887039 C54.1909478,2.20848265 52.6108412,9.99200211 52.6108412,9.99200211 C52.6108412,9.99200211 54.6356798,9.21789829 56.090215,8.23873039 C57.5447503,7.25956249 61.9554452,2.43242732 62.986177,3.28782252 C64.7337122,4.74529847 61.9188202,12.9667425 60.3858029,14.610402 C58.8475534,16.2545859 50.4447348,21.66125 50.4447348,21.66125 L46.782236,17.6753496 Z" id="Path" fill="#FFD7D7"></path>
                        <path d="M1.2557163,14.0606471 C4.70189067,22.0595605 11.0119219,36.7538499 13.6132585,41.1378238 C16.8732821,46.6280608 22.0139051,49.0469368 28.0327775,44.9734427 C34.357128,40.6931213 51.7714231,23.9985917 52.2821442,20.2169485 C52.7880922,16.4353054 48.5257187,11.8980023 44.6690581,14.2471397 C40.8123976,16.5962772 24.7870731,29.9424022 24.7870731,29.9424022 C24.7870731,29.9424022 18.3195298,13.3513204 13.1168566,3.74030071 C8.61105522,-4.57482429 -3.98991477,1.90035003 1.2557163,14.0606471 Z" id="Path" fill="#675CD7"></path>
                        <path d="M24.8538965,29.9510001 C26.0119333,33.8817393 26.7263065,35.7333131 26.997016,35.5057214 C27.2677255,35.2781297 27.1643084,32.9129109 26.6867648,28.4100652 L24.8538965,29.9510001 Z" id="Path" fill-opacity="0.302802666" fill="#000000"></path>
                    </g>
                    <g id="PhoneMini4" transform="translate(110.397617, 56.908205) scale(-1, 1) rotate(-18.000000) translate(-110.397617, -56.908205) translate(102.397617, 42.408205)">
                        <g id="Group-3" transform="translate(0.000000, 0.000000)">
                            <path d="M2.83401927,1.00879985 L11.6739699,1.00879985 C12.9994533,1.00879985 14.0739699,2.08331645 14.0739699,3.40879985 L14.0739699,25.9087998 C14.0739699,27.2342832 12.9994533,28.3087998 11.6739699,28.3087998 L2.83401927,28.3087998 C1.50853587,28.3087998 0.434019271,27.2342832 0.434019271,25.9087998 L0.434019271,3.40879985 C0.434019271,2.08331645 1.50853587,1.00879985 2.83401927,1.00879985 Z" id="Rectangle" fill="#7596FF" fill-rule="nonzero"></path>
                            <rect id="Rectangle" fill="#93C2F9" x="1.46142328" y="0.65" width="13.6399506" height="27.3"></rect>
                            <path d="M3.89946706,1.625 L4.93393862,1.625 C5.14468559,1.625 5.31996341,1.77697337 5.35631222,1.97738404 L5.36322866,2.05460632 C5.36322866,2.29187134 5.55542835,2.48421264 5.79251869,2.48421264 L10.7807215,2.48421264 C10.9914685,2.48421264 11.1667463,2.33223927 11.2030951,2.1318286 L11.2100115,2.05460632 C11.2100115,1.8173413 11.4022112,1.625 11.6393016,1.625 L12.6685516,1.625 C13.4331281,1.625 14.0601781,2.21425494 14.1209716,2.96371911 L14.1258018,3.0846141 L14.1258018,3.0846141 L14.1061827,25.2849594 C14.103775,26.2536113 13.3188643,27.0384059 12.3509238,27.039961 L4.16695342,27.039961 C3.24051797,27.0414427 2.48186708,26.3226068 2.41764874,25.4118449 L2.41324548,25.2865101 C2.41324548,25.2859928 2.41324548,25.2854754 2.41479643,25.2849594 L2.43441094,3.08983947 C2.43512607,2.2806215 3.09084454,1.625 3.89946706,1.625 Z" id="Rectangle" fill="#E6F3FF" fill-rule="nonzero"></path>
                        </g>
                    </g>
                    <g id="Body" transform="translate(19.199222, 42.033012)">
                        <path d="M0,8.14953369 C0,8.14953369 8.30470904,35.9779761 8.55065821,41.2456897 C8.79660737,46.513927 1.75827488,61.9970984 2.95662294,65.9105713 C5.71962633,74.9540295 40.9950162,78.8481262 42.3427415,66.682478 C42.9712774,61.008809 41.6632494,55.9166309 43.1703422,49.231311 C44.672202,42.5459912 50.709048,32.6115126 47.2850352,23.2713647 C43.8610225,13.9312169 44.7784469,5.29012788 42.3294212,3.6568689 C39.8803955,2.02360991 34.1555362,0.289072266 34.1555362,0.289072266 C31.371601,4.38897583 21.9732031,4.32927612 17.4885555,-4.61852778e-14 C17.4885555,-4.61852778e-14 6.34758164,2.16280518 0,8.14953369 Z" id="Path" fill="#7367F0"></path>
                        <path d="M7.44204499,12.6566474 C12.9777608,21.4481993 12.9611181,36.7551158 15.9341961,38.7597961 C18.9072742,40.7644763 30.478776,38.7972168 30.478776,40.3847961 C30.478776,41.9723753 14.4876884,56.5216394 17.1128512,63.4768685 C18.487435,67.1187554 18.1145696,70.3768698 15.9942549,73.2512117 L15.3021518,73.1002818 C9.00153325,71.6753127 3.93611742,69.1165093 2.95662294,65.9105713 C1.75827488,61.9970984 9.60850919,46.513927 9.36256003,41.2456897 C9.1537815,36.7740929 2.553,16.0457331 0.562598119,9.88245598 C2.18310029,7.0213655 4.47585674,7.94589292 7.44204499,12.6566474 Z" id="Path" fill-opacity="0.199355332" fill="#000000"></path>
                    </g>
                    <g id="RArm" transform="translate(0.000000, 47.856250)">
                        <path d="M36.0809169,30.1578931 C36.0809169,30.1578931 43.075914,23.9623394 45.2172396,23.2433531 C47.3585653,22.5243668 59.8998601,21.6606393 59.8205517,23.2853071 C59.7306689,25.0258727 52.9947458,24.9257076 52.2968323,25.7820932 C51.5989187,26.6379543 51.440302,32.4905342 48.8019774,33.1476384 C46.1689399,33.8047426 38.2751148,34.9375 38.2751148,34.9375 L36.0809169,30.1578931 Z" id="Path" fill="#FFD7D7"></path>
                        <path d="M17.4714673,3.92556582 C10.1018091,14.3342796 3.80977615,30.1892887 1.39459023,36.3707014 C-1.02059568,42.5521142 1.41572822,51.8756501 12.0358639,50.0452526 C22.6369072,48.2196317 39.5040724,38.3000398 41.3703525,35.4063687 C43.2366325,32.5126975 40.4014142,27.2473706 36.8311394,27.9366356 C33.5233848,28.5743133 17.1162127,35.5558766 17.1162127,35.5558766 C17.1162127,35.5558766 27.6715707,16.8324473 30.2490418,11.8131841 C34.5543732,3.43070889 23.9628761,-5.24552793 17.4714673,3.92556582 Z" id="Path" fill="#675CD7"></path>
                        <path d="M17.283271,35.4278634 C13.5975855,37.2603447 11.9795064,37.7923228 12.4290337,37.0237975 C12.878561,36.2552723 15.1998761,34.5210212 19.3929789,31.8210442 L17.283271,35.4278634 Z" id="Path" fill-opacity="0.302802666" fill="#000000"></path>
                    </g>
                    <g id="RLeg" transform="translate(17.861840, 104.000000)">
                        <path d="M91.4076631,79.4952998 C91.4076631,79.4952998 91.2792636,89.6276388 99.6221559,93.4159692 C107.959798,97.2037742 113.900098,96.9757388 113.14404,99.9044703 C112.387982,102.832676 90.6858808,102.714457 88.6592247,100.42412 C86.9318418,98.4758354 83.1755526,80.333358 82.141223,81.7204859 L91.4076631,79.4952998 Z" id="Path" fill="#FFD7D7"></path>
                        <path d="M84.8069282,90.8371723 C85.7386004,89.03576 85.7971682,94.1034778 89.4719908,92.9866201 C92.4542204,92.0802564 93.4736553,86.8931938 95.3581474,88.029214 C97.2426394,89.1652343 113.830414,97.9741239 113.924921,98.0271921 C115.967328,99.1279621 115.396535,102.463301 111.947019,103.045474 C108.114224,103.69175 88.2544203,103.256698 87.1885883,102.234216 C86.1227562,101.211735 84.0598272,92.2817116 84.8069282,90.8371723 Z" id="Path" fill="#2B2E35"></path>
                        <path d="M97.8117334,91.0588899 C97.8117334,91.0588899 97.8117334,91.0588899 97.8117334,91.0588899 C97.2799179,91.0588899 96.8487962,91.4900116 96.8487962,92.021827 C96.8487962,92.4119497 97.0841829,92.7635236 97.4448688,92.9121888 L106.135007,96.4928726 C106.467864,96.6299966 106.84887,96.4713494 106.986017,96.1385015 C107.056364,95.9677723 107.050998,95.7752174 106.971252,95.608671 C106.971252,95.608671 106.971252,95.608671 106.971252,95.608671 C106.809442,95.2707396 98.4366825,91.0588899 97.8117334,91.0588899 Z" id="Path-14" fill-opacity="0.54097465" fill="#FFFFFF"></path>
                        <path d="M4.78857772,0.143374092 C-2.39165108,15.3184151 -0.936489279,25.5113336 9.15406313,30.7221294 C23.7916574,38.2810332 67.6116278,29.3408794 67.6116278,29.3408794 C67.6116278,29.3408794 66.8286028,35.6497722 67.6116278,41.2765442 C69.6566966,55.972289 79.382855,80.4561508 81.4406691,83.5326077 C84.2863881,87.7869921 92.9550159,84.5785271 93.1183018,81.0360844 C93.2815876,77.4936417 86.5834487,32.2506833 85.5648703,23.6231679 C84.5515423,14.9951271 81.3523503,13.7418728 72.0083267,11.3833402 C69.8616678,10.8415002 44.4761086,4.52813002 42.1505735,4.71214591 C28.829399,5.76622925 16.3754004,4.24330531 4.78857772,0.143374092 Z" id="Path" fill="#42474F"></path>
                        <path d="M16.5952732,28.3729641 C31.0869804,29.9979641 69.4531766,26.6483856 70.9940489,28.170438 C72.4651592,29.6235806 72.2197082,54.9050083 75.5197479,69.537678 L75.0178684,68.1559 C71.9143075,59.5296283 68.6917127,49.0379716 67.6116278,41.2765442 C66.8286028,35.6497722 67.6116278,29.3408794 67.6116278,29.3408794 L65.8447531,29.6831351 C57.5150611,31.2489299 22.0351461,37.3739648 9.15406313,30.7221294 C2.17465151,27.1179373 -0.673431635,21.1302069 0.609813693,12.758938 C2.81949775,22.2208558 8.1479704,27.4257418 16.5952732,28.3729641 Z" id="Path" fill="#52565E"></path>
                    </g>
                </g>
                <path d="M108.11136,127.5 L170,127.5 L170,127.5 L170,195.7528 C170,196.717752 169.217752,197.5 168.2528,197.5 L84,197.5 L84,197.5 L84,151.61136 C84,138.295024 94.7950236,127.5 108.11136,127.5 Z" id="Rectangle" fill="#DFDFDF"></path>
            </g>
        </g>
    </g>
</svg>