<svg width="704" height="494" viewBox="0 0 704 494" fill="none" xmlns="http://www.w3.org/2000/svg">
<g id="Illustration">
<g id="Shape">
<path id="Triangle" opacity="0.05" fill-rule="evenodd" clip-rule="evenodd" d="M620.145 49.168C621.722 46.7387 625.278 46.7387 626.855 49.168L699.989 161.822C701.717 164.483 699.807 168 696.634 168H550.366C547.193 168 545.283 164.483 547.011 161.822L620.145 49.168Z" fill="#EA5455"/>
<path id="Triangle_2" opacity="0.05" fill-rule="evenodd" clip-rule="evenodd" d="M94.1396 244.204C95.7153 241.764 99.2847 241.764 100.86 244.204L191.016 383.83C192.735 386.492 190.824 390 187.656 390H7.34417C4.17589 390 2.26518 386.492 3.98379 383.83L94.1396 244.204Z" fill="#EA5455"/>
<path id="Triangle_3" opacity="0.25" fill-rule="evenodd" clip-rule="evenodd" d="M442.638 220.218C444.213 217.774 447.787 217.774 449.362 220.218L596.027 447.833C597.742 450.495 595.831 454 592.664 454H299.336C296.169 454 294.258 450.495 295.973 447.833L442.638 220.218Z" fill="#7367F0"/>
<path id="Triangle_4" opacity="0.25" fill-rule="evenodd" clip-rule="evenodd" d="M585.558 39.8163C587.107 37.1994 590.893 37.1994 592.442 39.8163L643.427 125.963C645.005 128.629 643.083 132 639.985 132H538.015C534.917 132 532.995 128.629 534.573 125.963L585.558 39.8163Z" fill="#7367F0"/>
<path id="Triangle_5" opacity="0.05" fill-rule="evenodd" clip-rule="evenodd" d="M174.13 5.26732C175.704 2.808 179.296 2.808 180.87 5.26732L217.062 61.8445C218.765 64.507 216.853 68 213.693 68H141.307C138.147 68 136.235 64.507 137.938 61.8445L174.13 5.26732Z" fill="#EA5455"/>
</g>
<g id="Finance Presentation">
<g id="DesktopDasboard">
<path id="Rectangle" fill-rule="evenodd" clip-rule="evenodd" d="M95 107.137C95 93.2542 106.254 82 120.137 82H582.669C596.552 82 607.806 93.2542 607.806 107.137V392.647C607.806 406.53 596.552 417.784 582.669 417.784H120.137C106.254 417.784 95 406.53 95 392.647V107.137Z" fill="#313A53"/>
<g id="ElementCard11">
<g id="Rectangle_2" filter="url(#filter0_d)">
<path fill-rule="evenodd" clip-rule="evenodd" d="M238.033 141.361C238.033 137.227 241.384 133.876 245.518 133.876H433.887C438.02 133.876 441.371 137.227 441.371 141.361V266.167C441.371 270.301 438.02 273.652 433.887 273.652H245.518C241.384 273.652 238.033 270.301 238.033 266.167V141.361Z" fill="#7367F0"/>
</g>
<g id="Group 12">
<path id="Path" opacity="0.39488" fill-rule="evenodd" clip-rule="evenodd" d="M291.856 185.909C292.683 185.909 293.353 186.579 293.353 187.406V217.678C293.353 218.505 292.683 219.175 291.856 219.175H284.982C284.156 219.175 283.485 218.505 283.485 217.678V187.406C283.485 186.579 284.156 185.909 284.982 185.909H291.856Z" fill="white"/>
<path id="Path_2" fill-rule="evenodd" clip-rule="evenodd" d="M276.307 198.453C277.133 198.453 277.803 199.123 277.803 199.95V217.678C277.803 218.505 277.133 219.175 276.307 219.175H269.432C268.606 219.175 267.936 218.505 267.936 217.678V199.95C267.936 199.123 268.606 198.453 269.432 198.453H276.307Z" fill="white"/>
<path id="Path_3" fill-rule="evenodd" clip-rule="evenodd" d="M307.405 173.962C308.232 173.962 308.902 174.632 308.902 175.459V217.678C308.902 218.505 308.232 219.175 307.405 219.175H300.531C299.704 219.175 299.034 218.505 299.034 217.678V175.459C299.034 174.632 299.704 173.962 300.531 173.962H307.405Z" fill="white"/>
<path id="Path_4" opacity="0.39488" fill-rule="evenodd" clip-rule="evenodd" d="M322.955 179.936C323.782 179.936 324.452 180.606 324.452 181.432V217.678C324.452 218.505 323.782 219.175 322.955 219.175H316.081C315.254 219.175 314.584 218.505 314.584 217.678V181.432C314.584 180.606 315.254 179.936 316.081 179.936H322.955Z" fill="white"/>
<path id="Path_5" fill-rule="evenodd" clip-rule="evenodd" d="M338.504 191.882C339.331 191.882 340.001 192.552 340.001 193.379V217.678C340.001 218.505 339.331 219.175 338.504 219.175H331.63C330.803 219.175 330.133 218.505 330.133 217.678V193.379C330.133 192.552 330.803 191.882 331.63 191.882H338.504Z" fill="white"/>
<path id="Path_6" opacity="0.39488" fill-rule="evenodd" clip-rule="evenodd" d="M354.054 218.762C354.88 218.762 355.55 219.432 355.55 220.259V238.585C355.55 239.411 354.88 240.081 354.054 240.081H347.179C346.353 240.081 345.683 239.411 345.683 238.585V220.259C345.683 219.432 346.353 218.762 347.179 218.762H354.054Z" fill="white"/>
<path id="Path_7" fill-rule="evenodd" clip-rule="evenodd" d="M369.602 218.762C370.429 218.762 371.099 219.432 371.099 220.259V255.31C371.099 256.136 370.429 256.807 369.602 256.807H362.728C361.902 256.807 361.231 256.136 361.231 255.31V220.259C361.231 219.432 361.902 218.762 362.728 218.762H369.602Z" fill="white"/>
<path id="Path_8" opacity="0.39488" fill-rule="evenodd" clip-rule="evenodd" d="M385.152 218.762C385.979 218.762 386.649 219.432 386.649 220.259V246.35C386.649 247.177 385.979 247.847 385.152 247.847H378.278C377.451 247.847 376.781 247.177 376.781 246.35V220.259C376.781 219.432 377.451 218.762 378.278 218.762H385.152Z" fill="white"/>
<path id="Path_9" fill-rule="evenodd" clip-rule="evenodd" d="M400.701 218.762C401.528 218.762 402.198 219.432 402.198 220.259V252.323C402.198 253.15 401.528 253.82 400.701 253.82H393.827C393 253.82 392.33 253.15 392.33 252.323V220.259C392.33 219.432 393 218.762 393.827 218.762H400.701Z" fill="white"/>
<path id="Path_10" opacity="0.39488" fill-rule="evenodd" clip-rule="evenodd" d="M416.251 218.762C417.078 218.762 417.748 219.432 417.748 220.259V238.585C417.748 239.411 417.078 240.081 416.251 240.081H409.377C408.55 240.081 407.88 239.411 407.88 238.585V220.259C407.88 219.432 408.55 218.762 409.377 218.762H416.251Z" fill="white"/>
</g>
<path id="Rectangle_3" opacity="0.39488" fill-rule="evenodd" clip-rule="evenodd" d="M262.554 159.562C262.554 158.572 263.356 157.77 264.346 157.77H324.155C325.145 157.77 325.947 158.572 325.947 159.562V159.562C325.947 160.551 325.145 161.354 324.155 161.354H264.346C263.356 161.354 262.554 160.551 262.554 159.562V159.562Z" fill="white"/>
<rect id="Rectangle_4" x="262.554" y="147.615" width="33.4909" height="3.58398" rx="1.79199" fill="white"/>
</g>
<path id="Rectangle_5" fill-rule="evenodd" clip-rule="evenodd" d="M95 107.137C95 93.2542 106.254 82 120.137 82H175.146C189.029 82 200.283 93.2542 200.283 107.137V417.784H120.137C106.254 417.784 95 406.53 95 392.647V107.137Z" fill="#2C344B"/>
<path id="Rectangle_6" fill-rule="evenodd" clip-rule="evenodd" d="M107.785 133.29C107.785 130.528 110.024 128.29 112.785 128.29L181.094 128.29C183.855 128.29 186.094 130.528 186.094 133.29V137.656C186.094 140.417 183.855 142.656 181.094 142.656H112.785C110.024 142.656 107.785 140.417 107.785 137.656V133.29Z" fill="white" fill-opacity="0.423924"/>
<path id="Rectangle_7" fill-rule="evenodd" clip-rule="evenodd" d="M107.785 159.627C107.785 156.866 110.024 154.627 112.785 154.627L149.131 154.627C151.892 154.627 154.131 156.866 154.131 159.627V163.993C154.131 166.754 151.892 168.993 149.131 168.993H112.785C110.024 168.993 107.785 166.754 107.785 163.993V159.627Z" fill="white" fill-opacity="0.204873"/>
<path id="Rectangle_8" fill-rule="evenodd" clip-rule="evenodd" d="M107.785 183.57C107.785 180.809 110.024 178.57 112.785 178.57L149.131 178.57C151.892 178.57 154.131 180.809 154.131 183.57V187.936C154.131 190.697 151.892 192.936 149.131 192.936H112.785C110.024 192.936 107.785 190.697 107.785 187.936V183.57Z" fill="white" fill-opacity="0.204873"/>
<path id="Rectangle_9" fill-rule="evenodd" clip-rule="evenodd" d="M470.561 82H582.669C596.552 82 607.806 93.2542 607.806 107.137V392.647C607.806 406.53 596.552 417.784 582.669 417.784H470.561V82Z" fill="#2C344B"/>
<g id="Group 23">
<g id="Rectangle_10" filter="url(#filter1_d)">
<path fill-rule="evenodd" clip-rule="evenodd" d="M493.773 139.127C493.751 133.589 498.235 129.088 503.773 129.088H579.181C584.689 129.088 589.159 133.541 589.181 139.048L589.582 240.36C589.603 245.898 585.12 250.399 579.582 250.399H504.173C498.666 250.399 494.195 245.946 494.173 240.439L493.773 139.127Z" fill="white"/>
</g>
<path id="Rectangle_11" opacity="0.33996" d="M524.098 206.504C524.098 205.181 525.17 204.109 526.492 204.109H556.862C558.185 204.109 559.257 205.181 559.257 206.504V206.504C559.257 207.826 558.185 208.898 556.862 208.898H526.492C525.17 208.898 524.098 207.826 524.098 206.504V206.504Z" fill="#467FFF"/>
<path id="Rectangle_12" opacity="0.33996" d="M516.107 219.273C516.107 217.951 517.179 216.879 518.502 216.879H564.853C566.176 216.879 567.248 217.951 567.248 219.273V219.273C567.248 220.596 566.176 221.668 564.853 221.668H518.502C517.179 221.668 516.107 220.596 516.107 219.273V219.273Z" fill="#467FFF"/>
<g id="Icon8">
<g id="Oval" filter="url(#filter2_dd)">
<ellipse cx="541.737" cy="167.866" rx="18.4384" ry="18.8254" fill="white"/>
</g>
<g id="Group 70">
<path id="Combined Shape" fill-rule="evenodd" clip-rule="evenodd" d="M542.085 167.241C544.689 167.241 546.801 165.132 546.801 162.53C546.801 159.929 544.689 157.819 542.085 157.819C539.48 157.819 537.368 159.929 537.368 162.53C537.368 165.132 539.48 167.241 542.085 167.241ZM541.532 168.575C537.64 168.575 534.485 171.73 534.485 175.622C534.485 176.066 534.846 176.427 535.291 176.427H548.878C549.323 176.427 549.684 176.066 549.684 175.622C549.684 171.73 546.529 168.575 542.637 168.575H541.532Z" fill="#7367F0"/>
</g>
</g>
</g>
<path id="Rectangle_13" fill-rule="evenodd" clip-rule="evenodd" d="M491.337 324.036C491.337 321.274 493.575 319.036 496.337 319.036H587.019C589.781 319.036 592.019 321.274 592.019 324.036V392.249C592.019 395.011 589.781 397.249 587.019 397.249H496.337C493.575 397.249 491.337 395.011 491.337 392.249V324.036Z" fill="white" fill-opacity="0.345908"/>
<path id="Rectangle_14" fill-rule="evenodd" clip-rule="evenodd" d="M95 107.137C95 93.2542 106.254 82 120.137 82H582.669C596.552 82 607.806 93.2542 607.806 107.137V109.718H95V107.137Z" fill="#283046"/>
<ellipse id="Oval_2" cx="115.775" cy="95.5676" rx="3.19626" ry="3.1924" fill="#F5818D"/>
<ellipse id="Oval_3" cx="128.561" cy="95.5676" rx="3.19626" ry="3.1924" fill="#FFBD63"/>
<ellipse id="Oval_4" cx="142.145" cy="95.5676" rx="3.19626" ry="3.1924" fill="#4CE47A"/>
</g>
<g id="ElementCard25">
<g id="Rectangle_15" filter="url(#filter3_d)">
<path fill-rule="evenodd" clip-rule="evenodd" d="M240 296.988C240 293.681 242.681 291 245.988 291H361.906C365.213 291 367.893 293.681 367.893 296.988V332.434C367.893 335.74 365.213 338.421 361.906 338.421H245.988C242.681 338.421 240 335.74 240 332.434V296.988Z" fill="white"/>
</g>
<path id="Rectangle_16" opacity="0.2" fill-rule="evenodd" clip-rule="evenodd" d="M281.673 318.782C281.673 317.988 282.316 317.345 283.11 317.345H307.06C307.854 317.345 308.497 317.988 308.497 318.782V318.782C308.497 319.576 307.854 320.219 307.06 320.219H283.11C282.316 320.219 281.673 319.576 281.673 318.782V318.782Z" fill="#FF9F43"/>
<path id="Rectangle_17" opacity="0.5" fill-rule="evenodd" clip-rule="evenodd" d="M281.673 310.639C281.673 309.845 282.316 309.202 283.11 309.202H297.48C298.274 309.202 298.917 309.845 298.917 310.639V310.639C298.917 311.433 298.274 312.076 297.48 312.076H283.11C282.316 312.076 281.673 311.433 281.673 310.639V310.639Z" fill="#FF9F43"/>
<path id="Path_11" d="M328.737 309.333C329.149 308.43 330.214 308.032 331.117 308.444C331.415 308.58 331.67 308.794 331.855 309.064L331.92 309.168L335.443 315.158C335.477 315.215 335.55 315.234 335.607 315.201L335.622 315.19L335.636 315.177L337.51 313.058C338.168 312.315 339.303 312.245 340.046 312.902C340.095 312.946 340.141 312.991 340.185 313.04L340.249 313.114L342.998 316.489C343.039 316.541 343.115 316.548 343.166 316.507L343.18 316.493L343.192 316.477L347.534 309.46C348.056 308.617 349.163 308.356 350.007 308.878C350.138 308.959 350.257 309.056 350.363 309.167L350.439 309.253L352.462 311.671C352.759 312.026 352.712 312.555 352.357 312.852C352.022 313.132 351.531 313.106 351.228 312.803L351.176 312.747L349.154 310.329C349.145 310.319 349.136 310.311 349.125 310.304C349.078 310.275 349.019 310.282 348.98 310.318L348.96 310.343L344.618 317.359C344.513 317.529 344.38 317.68 344.225 317.807C343.482 318.412 342.402 318.324 341.764 317.625L341.698 317.548L338.949 314.172C338.945 314.167 338.94 314.162 338.935 314.158C338.894 314.122 338.835 314.119 338.791 314.148L338.766 314.169L336.892 316.288C336.767 316.429 336.62 316.55 336.457 316.646C335.63 317.132 334.574 316.882 334.05 316.092L333.998 316.008L330.475 310.017C330.463 309.996 330.444 309.979 330.422 309.969C330.372 309.946 330.314 309.961 330.28 310.001L330.263 310.028L326.831 317.56C326.703 317.841 326.505 318.083 326.257 318.265L326.162 318.33L322.093 320.924C321.702 321.173 321.184 321.059 320.935 320.668C320.7 320.3 320.789 319.817 321.129 319.555L321.191 319.511L325.261 316.916C325.274 316.908 325.285 316.897 325.294 316.885L325.305 316.865L328.737 309.333Z" fill="#FF9F43"/>
<circle id="Oval_5" cx="263.71" cy="315.19" r="9.81953" fill="#FF9F43"/>
</g>
<g id="ElementCard26">
<g id="Rectangle_18" filter="url(#filter4_d)">
<path fill-rule="evenodd" clip-rule="evenodd" d="M240 361.988C240 358.681 242.681 356 245.988 356H361.906C365.213 356 367.893 358.681 367.893 361.988V397.434C367.893 400.74 365.213 403.421 361.906 403.421H245.988C242.681 403.421 240 400.74 240 397.434V361.988Z" fill="white"/>
</g>
<path id="Rectangle_19" opacity="0.454078" fill-rule="evenodd" clip-rule="evenodd" d="M282.631 384.261C282.631 383.467 283.274 382.824 284.068 382.824H308.018C308.812 382.824 309.455 383.467 309.455 384.261V384.261C309.455 385.055 308.812 385.698 308.018 385.698H284.068C283.274 385.698 282.631 385.055 282.631 384.261V384.261Z" fill="#28C76F"/>
<path id="Rectangle_20" fill-rule="evenodd" clip-rule="evenodd" d="M282.631 376.118C282.631 375.324 283.274 374.681 284.068 374.681H298.438C299.232 374.681 299.875 375.324 299.875 376.118V376.118C299.875 376.912 299.232 377.555 298.438 377.555H284.068C283.274 377.555 282.631 376.912 282.631 376.118V376.118Z" fill="#28C76F"/>
<path id="Path 146" fill-rule="evenodd" clip-rule="evenodd" d="M321.909 385.495L326.819 376.877C327.481 375.715 328.966 375.32 330.118 376L331.333 376.717C332.182 377.219 333.253 377.148 334.029 376.539L336.176 374.853C336.975 374.225 338.082 374.17 338.94 374.715L340.103 375.455C341.404 376.281 343.158 375.678 343.988 374.38C344.778 373.144 345.902 371.865 347.324 371.466C350.324 370.626 354.156 371.466 354.156 371.466V385.495H321.909Z" fill="url(#paint0_linear)"/>
<path id="Path 146_2" fill-rule="evenodd" clip-rule="evenodd" d="M321.909 385.495L327.208 381.28C328.024 380.63 329.166 380.584 330.033 381.165L330.339 381.37C331.201 381.948 332.336 381.906 333.152 381.265L335.218 379.643C336.017 379.015 337.124 378.96 337.982 379.505L339.795 380.658C340.86 381.334 342.27 381.07 343.124 380.141C344.328 378.829 346.126 377.167 347.864 376.68C350.864 375.839 354.156 376.256 354.156 376.256V385.495H321.909Z" fill="#28C76F"/>
<circle id="Oval_6" cx="263.71" cy="380.19" r="9.81953" fill="#28C76F"/>
</g>
<g id="Icon2">
<ellipse id="Oval_7" cx="367.75" cy="358.457" rx="14.5737" ry="14.9994" fill="#28C76F"/>
<path id="Path_12" fill-rule="evenodd" clip-rule="evenodd" d="M362.765 357.328C362.331 356.803 361.554 356.729 361.028 357.162C360.502 357.596 360.428 358.373 360.861 358.899L365.146 364.087C365.663 364.712 366.589 364.801 367.215 364.285C367.306 364.209 367.388 364.123 367.458 364.029L373.598 355.78C374.005 355.234 373.892 354.461 373.345 354.054C372.798 353.648 372.024 353.761 371.618 354.308L366.239 361.534L362.765 357.328Z" fill="white"/>
</g>
<g id="Men3.2">
<g id="LLeg">
<path id="Path_13" fill-rule="evenodd" clip-rule="evenodd" d="M180.62 467.175C180.62 467.175 180.495 475.068 185.386 477.872C190.277 480.676 197.855 485.886 197.855 485.886L169.028 486.854L169.85 467.104L180.62 467.175Z" fill="#F8CFCF"/>
<path id="Path_14" fill-rule="evenodd" clip-rule="evenodd" d="M168.022 475.873L167.553 488.678H174.248L174.707 487.029C174.707 487.029 177.228 486.926 178.685 487.639C180.225 488.392 180.431 488.758 180.431 488.758L201.67 488.802C201.67 488.802 202.717 484.663 196.243 481.67C189.769 478.675 185.056 474.426 184.16 473.991C183.258 473.553 181.439 473.305 180.157 474.335C178.876 475.364 177.862 478.07 174.958 478.155C171.221 478.264 169.074 473.707 168.022 475.873Z" fill="#4B4B4B"/>
<path id="Path 38" d="M186.172 475.38L183.97 477.489" stroke="white" stroke-width="2" stroke-linecap="round"/>
<path id="Path 38_2" d="M189.383 476.979L187.181 479.088" stroke="white" stroke-width="2" stroke-linecap="round"/>
<path id="Path 38_3" d="M192.593 478.578L190.392 480.687" stroke="white" stroke-width="2" stroke-linecap="round"/>
<path id="Path_15" fill-rule="evenodd" clip-rule="evenodd" d="M159.521 296.651C159.521 296.651 167.529 383.981 167.778 390.052C168.027 396.123 165.206 406.599 165.261 417.955C165.316 429.311 166.291 469.332 166.291 469.332L183.957 469.703C183.957 469.703 191.382 397.38 191.462 386.535C191.542 375.69 192.223 297.695 192.223 297.695L159.521 296.651Z" fill="#383838"/>
<path id="Path_16" opacity="0.283552" fill-rule="evenodd" clip-rule="evenodd" d="M172.254 392.77L172.274 392.986C172.54 396.688 170.218 408.869 165.309 429.527L165.261 417.955V417.955C165.207 406.802 167.927 396.497 167.788 390.381L167.778 390.052C167.694 388.006 166.729 376.732 165.486 362.681L166.066 364.739C169.472 376.928 171.535 386.272 172.254 392.77Z" fill="white" fill-opacity="0.192499"/>
</g>
<g id="RLeg">
<path id="Path_17" fill-rule="evenodd" clip-rule="evenodd" d="M138.518 465.788L135.136 486.248L147.605 486.186L147.999 465.467L138.518 465.788Z" fill="#F8CFCF"/>
<path id="Path_18" fill-rule="evenodd" clip-rule="evenodd" d="M137.386 474.592C136.042 474.883 135.068 476.05 135.023 477.425L134.929 480.248C133.172 482.194 132.338 487.802 132.245 488.464C132.239 488.507 132.235 488.55 132.24 488.594C132.524 491.347 150.548 491.317 152.326 488.738C152.415 488.609 152.421 488.451 152.395 488.297C152.196 487.098 151.183 481.577 149.246 480.064L149.236 477.265C149.231 475.911 148.32 474.728 147.012 474.378L145.343 473.931C143.52 471.276 141.036 471.37 138.907 474.263L137.386 474.592Z" fill="#4B4B4B"/>
<path id="Path 39" d="M139.615 476.474H144.663" stroke="white" stroke-width="2" stroke-linecap="round"/>
<path id="Path 39_2" d="M139.615 478.872H144.663" stroke="white" stroke-width="2" stroke-linecap="round"/>
<path id="Path 39_3" d="M140.418 481.271H143.86" stroke="white" stroke-width="2" stroke-linecap="round"/>
<path id="Path_19" fill-rule="evenodd" clip-rule="evenodd" d="M144.807 297.361C144.807 297.361 139.235 357.281 139.311 368.756C139.387 380.231 141.026 385.27 138.693 393.502C136.36 401.734 134.371 467.438 134.371 467.438L151.621 469.323C151.621 469.323 162.641 399.016 163.839 389.268C165.038 379.52 179.848 296.534 179.848 296.534L144.807 297.361Z" fill="#2E2E2E"/>
<path id="Path_20" opacity="0.283552" fill-rule="evenodd" clip-rule="evenodd" d="M149.466 338.03L148.414 341.833C145.333 353.057 142.489 364.927 143.234 381.882L143.27 382.656C143.453 386.329 141.113 407.645 136.25 446.605L135.787 449.343C135.31 452.136 134.886 454.519 134.514 456.492L134.619 453.042C135.239 433.996 136.907 399.804 138.693 393.502C141.026 385.27 139.387 380.231 139.311 368.756C139.258 360.723 141.972 328.953 143.606 310.613L144.807 297.361L152.088 297.189L152.106 299.23C152.234 318.071 151.354 331.004 149.466 338.03V338.03Z" fill="white" fill-opacity="0.192499"/>
</g>
<g id="LArm">
<g id="Group 6">
<path id="Path_21" fill-rule="evenodd" clip-rule="evenodd" d="M229.585 223.519C229.585 223.519 228.148 215.545 228.665 213.931C229.106 212.535 233.276 210.523 233.276 210.523C233.276 210.523 240.528 199.111 242.115 200.273C243.406 201.215 238.338 209.628 238.338 209.628C238.338 209.628 242.96 214.458 242.895 216.617C242.831 218.776 235.352 225.534 235.352 225.534L229.585 223.519Z" fill="#F8CFCF"/>
<path id="Path_22" fill-rule="evenodd" clip-rule="evenodd" d="M233.432 210.408C233.432 210.408 236.644 209.973 237.155 210.969C237.59 211.817 234.922 214.223 234.922 214.9C234.922 215.576 234.96 220.696 235.175 220.742C235.39 220.789 238.392 212.388 237.752 210.611C237.225 209.152 233.432 210.408 233.432 210.408Z" fill="#F28585"/>
</g>
<path id="Path_23" fill-rule="evenodd" clip-rule="evenodd" d="M191.27 233.664C182.857 226.344 170.224 239.541 184.31 251.81C189.685 256.49 206.566 268.166 210.704 270.733C217.292 274.819 222.705 271.132 224.93 264.702C226.817 259.25 238.105 230.068 236.669 225.782C235.732 222.987 230.705 220.267 228.182 222.466C224.494 225.681 213.214 253.881 213.214 253.881C213.214 253.881 200.835 241.987 191.27 233.664Z" fill="#877BFF"/>
<path id="Path_24" fill-rule="evenodd" clip-rule="evenodd" d="M213.214 253.881C213.214 253.881 216.909 258.395 217.175 257.705C217.442 257.016 214.245 251.216 214.245 251.216L213.214 253.881Z" fill="black" fill-opacity="0.159856"/>
<path id="Path 41" d="M227.202 224.274C230.137 222.905 233.344 224.597 235.111 227.313" stroke="#5386BF" stroke-linecap="round"/>
</g>
<g id="Head">
<path id="Path_25" fill-rule="evenodd" clip-rule="evenodd" d="M155.047 225.392C155.047 225.392 159.823 224.275 159.989 216.48C160.155 208.684 160.038 206.023 160.038 206.023L171.362 205.834C171.362 205.834 171.476 214.522 171.478 217.665C171.483 224.506 176.583 226.355 176.583 226.355C176.583 226.355 176.159 233.835 166.626 234.369C159.183 234.786 155.047 225.392 155.047 225.392Z" fill="#F8C5C5"/>
<g id="Head1">
<path id="Path_26" fill-rule="evenodd" clip-rule="evenodd" d="M181.45 197.62L181.197 204.987C183.337 202.482 184.782 199.376 185.21 195.393L181.45 197.62Z" fill="url(#paint1_linear)"/>
<path id="Path_27" fill-rule="evenodd" clip-rule="evenodd" d="M158.999 202.083C154.305 201.902 155.071 208.746 159.946 208.736C159.946 208.736 165.186 219.231 173.412 219.258C177.375 219.271 178.669 215.755 179.856 213.287C181.044 210.819 181.916 207.127 181.989 204.867C182.066 202.457 182.076 194.539 182.076 194.539L158.816 194.528L158.999 202.083Z" fill="#F8CFCF"/>
<path id="Path_28" fill-rule="evenodd" clip-rule="evenodd" d="M182.077 198.172H165.718C165.546 201.116 164.564 203.561 162.071 205.365C162.142 209.678 163.591 212.818 166.103 215.021C168.29 208.777 181.668 210.485 180.695 214.559C178.651 223.117 159.49 223.311 160.653 203.614C159.888 202.576 157.154 202.382 156.255 203.42C154.718 199.117 155.374 193.029 159.818 192.149C156.329 182.979 203.77 181.039 182.077 198.172Z" fill="#424242"/>
<path id="Path_29" d="M171.595 214.181C171.595 214.181 173.726 215.741 176.532 214.035" stroke="#CC6969" stroke-linecap="round"/>
<path id="Path 8" d="M159.73 205.99C159.779 204.892 159.442 204.02 158.318 203.845" stroke="#DE6767" stroke-linecap="round"/>
</g>
</g>
<g id="Body">
<path id="Path_30" fill-rule="evenodd" clip-rule="evenodd" d="M156.936 224.175L170.6 233.08L176.762 225.89C176.762 225.89 189.742 229.926 192.15 234.645C195.625 241.455 191.047 296.013 193.042 299.305C197.295 306.32 191.641 311.136 172.921 312.906C154.202 314.675 137.594 313.226 140.608 303.864C143.622 294.501 131.992 233.399 142.245 230.033C145.449 228.982 156.936 224.175 156.936 224.175Z" fill="#7367F0"/>
<path id="Path_31" fill-rule="evenodd" clip-rule="evenodd" d="M147.715 241.019C148.542 242.487 148.115 247.572 146.435 256.273C145.003 263.687 146.64 271.356 150.963 277.543L151.206 277.885C152.667 279.912 154.015 282.581 155.248 285.891C158.274 294.011 151.296 300.78 156.643 313.483L155.996 313.452C145.505 312.907 138.57 310.195 140.608 303.864C143.079 296.187 135.706 253.729 138.622 236.83C143.67 237.824 146.7 239.221 147.715 241.019Z" fill="black" fill-opacity="0.159856"/>
<path id="Path_32" fill-rule="evenodd" clip-rule="evenodd" d="M156.936 224.175L169.158 232.17C167.367 234.259 166.406 236.69 166.043 239.365C161.346 235.68 156.463 230.531 154.95 224.994L156.936 224.175Z" fill="#5E54C7"/>
<path id="Path_33" fill-rule="evenodd" clip-rule="evenodd" d="M171.566 231.962C173.633 233.364 175.282 235.846 176.624 238.669C178.233 235.425 178.849 231.142 178.849 226.574L176.831 225.773L171.566 231.962Z" fill="#5E54C7"/>
<path id="Path_34" fill-rule="evenodd" clip-rule="evenodd" d="M169.158 232.169L169.317 232.258C170.049 232.669 170.965 232.548 171.566 231.962V231.962C176.174 248.908 179.415 267.56 180.395 286.516L175.586 294.529L169.961 287.03C170.694 267.329 170.689 248.119 169.158 232.169Z" fill="url(#paint2_linear)"/>
</g>
<g id="RArm">
<g id="Example Book Back">
<g id="Group 3">
<path id="Rectangle_21" d="M181.937 275.326C182.083 273.933 183.359 272.942 184.744 273.145L195.481 274.716C196.789 274.907 197.713 276.097 197.575 277.411L195.609 296.118C195.462 297.51 194.187 298.501 192.801 298.298L182.065 296.727C180.757 296.536 179.833 295.347 179.971 294.032L181.937 275.326Z" fill="#6182EC"/>
<path id="Rectangle_22" fill-rule="evenodd" clip-rule="evenodd" d="M183.267 274.951C183.419 273.512 184.772 272.512 186.192 272.791L197.643 275.04L205.389 274.907C206.869 274.882 208.036 276.157 207.882 277.629L205.919 296.302C205.789 297.541 204.755 298.487 203.511 298.508L195.161 298.651L183.278 296.317C182.027 296.072 181.169 294.911 181.303 293.642L183.267 274.951Z" fill="#96EFFA"/>
<path id="Rectangle_23" d="M185.388 279.347C185.485 278.42 186.351 277.772 187.267 277.94L192.345 278.871C193.168 279.021 193.736 279.78 193.648 280.612L193.449 282.509C193.351 283.435 192.486 284.083 191.569 283.915L186.491 282.985C185.669 282.834 185.101 282.075 185.188 281.244L185.388 279.347Z" fill="#74CFDB"/>
<path id="Rectangle_24" d="M196.742 275.749C196.788 275.31 197.181 274.991 197.621 275.037L197.945 275.071C198.385 275.118 198.704 275.511 198.657 275.951L196.351 297.894C196.305 298.334 195.911 298.652 195.472 298.606L195.147 298.572C194.708 298.526 194.389 298.132 194.435 297.693L196.742 275.749Z" fill="#EAEFFF"/>
<path id="Rectangle_25" d="M197.38 275.816C197.426 275.377 197.82 275.058 198.259 275.104L198.584 275.138C199.023 275.185 199.342 275.578 199.296 276.018L196.99 297.961C196.943 298.401 196.55 298.72 196.11 298.673L195.786 298.639C195.346 298.593 195.028 298.199 195.074 297.76L197.38 275.816Z" fill="#7AD2DD"/>
</g>
</g>
<path id="Path_35" fill-rule="evenodd" clip-rule="evenodd" d="M169.97 283.68C169.97 283.68 174.138 282.845 175.844 281.511C177.549 280.177 182.715 279.234 182.715 279.234L181.062 282.701C181.062 282.701 193.723 281.517 194.022 282.761C194.323 284.005 190.661 285.358 190.661 285.358C190.661 285.358 188.855 288.717 187.107 290.665C185.453 292.508 177.235 292.288 174.354 291.138C171.865 290.145 169.158 290.642 169.158 290.642L169.97 283.68Z" fill="#F8CFCF"/>
<path id="Path_36" fill-rule="evenodd" clip-rule="evenodd" d="M136.449 235.239C140.976 225.494 156.477 232.06 152.571 242.499C148.786 252.612 139.618 276.224 139.618 276.224C139.618 276.224 168.672 279.898 170.936 281.611C173.958 283.897 172.09 290.42 169.522 291.581C167.349 292.563 151.209 293.137 135.417 291.897C127.604 291.284 121.827 287.941 121.021 279.256C120.456 273.175 132.088 244.626 136.449 235.239Z" fill="#877BFF"/>
<path id="Path_37" fill-rule="evenodd" clip-rule="evenodd" d="M139.63 276.218C139.63 276.218 137.215 280.79 137.905 280.884C138.596 280.977 142.104 276.553 142.104 276.553L139.63 276.218Z" fill="black" fill-opacity="0.159856"/>
<path id="Path 40" d="M168.892 281.115C169.788 283.965 169.158 287.306 167.915 289.668" stroke="#5386BF" stroke-linecap="round"/>
</g>
</g>
<g id="Example Paper">
<path id="Rectangle_26" fill-rule="evenodd" clip-rule="evenodd" d="M476.856 256.31L454.111 270.523C454.111 270.523 459.198 278.664 464.286 286.805C469.373 294.947 471.211 305.118 471.211 305.118L493.956 290.906C493.956 290.906 492.118 280.734 487.031 272.593C481.944 264.451 476.856 256.31 476.856 256.31Z" fill="#E8FFFF"/>
<path id="Path 4" d="M476.283 265.889L464.456 273.279" stroke="black" stroke-opacity="0.115767" stroke-width="0.8" stroke-linecap="round"/>
<path id="Path 4_2" d="M478.685 270.455L466.858 277.845" stroke="black" stroke-opacity="0.115767" stroke-width="0.8" stroke-linecap="round"/>
<path id="Path 4_3" d="M481.088 275.021L469.261 282.412" stroke="black" stroke-opacity="0.115767" stroke-width="0.8" stroke-linecap="round"/>
<path id="Path 4_4" d="M483.491 279.588L471.664 286.978" stroke="black" stroke-opacity="0.115767" stroke-width="0.8" stroke-linecap="round"/>
</g>
<g id="Wom4.6">
<g id="RLeg_2">
<path id="Path_38" fill-rule="evenodd" clip-rule="evenodd" d="M570.211 469.491C570.211 469.491 570.114 475.041 570.114 476.828C570.114 478.196 570.17 482.249 570.019 482.872C569.807 483.749 569.59 485.897 569.59 485.897L581.231 486.207C581.231 486.207 578.289 480.486 578.117 479.729C577.946 478.973 576.646 469.491 576.646 469.491H570.211Z" fill="#FFE2E2"/>
<path id="Path_39" fill-rule="evenodd" clip-rule="evenodd" d="M579.092 484.108C578.835 483.885 577.266 480.346 574.486 480.346C571.38 480.346 570.536 483.995 570.431 484.108C570.259 484.294 569.463 484.22 569.27 484.574C568.33 486.291 567.832 489.775 568.694 491.036C569.609 492.382 582.069 492.405 582.758 491.137C583.479 489.799 581.775 486.151 580.462 484.574C580.128 484.173 579.226 484.225 579.092 484.108Z" fill="#2E2E2E"/>
<path id="Path_40" fill-rule="evenodd" clip-rule="evenodd" d="M540.917 314.288L563.661 311.809L563.995 312.12C565.616 313.669 572.661 320.862 574.685 330.693C578.506 349.253 573.392 383.533 573.505 391.049C573.613 398.566 577.155 403.101 578.627 413.73C580.099 424.358 580.238 471.856 580.238 471.856C576.335 474.176 572.901 474.342 568.248 471.717L540.917 314.288Z" fill="#26553B"/>
<path id="Path_41" fill-rule="evenodd" clip-rule="evenodd" d="M561.233 431.311L540.917 314.288L553.563 312.91C554.126 353.563 561.99 408.515 561.233 431.311Z" fill="white" fill-opacity="0.192499"/>
</g>
<g id="LLeg_2">
<path id="Path_42" fill-rule="evenodd" clip-rule="evenodd" d="M545.576 469.062L537.301 469.184C537.301 469.184 537.793 476.966 534.918 479.602L524.09 485.456C523.243 486.168 522.751 488.376 524.487 488.691C529.861 489.666 545.253 487.352 545.253 487.352L545.576 469.062Z" fill="#FFE2E2"/>
<path id="Path_43" fill-rule="evenodd" clip-rule="evenodd" d="M545.332 480.2C544.776 480.23 544.071 483.379 540.917 484.994C537.302 486.846 532.044 486.141 529.759 486.403C528.103 486.593 527.283 483.319 527.283 483.319C527.283 483.319 518.884 487.652 518.139 489.71C517.27 492.1 522.895 492.279 526.916 492.104C530.943 491.93 534.395 490.12 536.349 490.165C538.308 490.21 538.771 491.429 540.236 491.765C541.722 492.106 545.44 492.055 545.784 490.987C546.144 489.878 546.52 480.136 545.332 480.2Z" fill="#2E2E2E"/>
<path id="Path_44" fill-rule="evenodd" clip-rule="evenodd" d="M529.635 315.897L555.174 315.029L555.365 315.383C556.604 317.74 563.395 331.54 561.298 347.225C558.355 369.241 549.278 395.051 548.911 398.994C548.258 406.024 549.565 411.114 550.1 418.375C550.636 425.636 547.26 471.301 547.26 471.301C543.47 473.586 538.961 474.035 533.227 471.37C533.227 471.37 528.849 409.343 528.811 399.527C528.773 389.71 529.635 315.897 529.635 315.897Z" fill="#31694A"/>
<path id="Path_45" fill-rule="evenodd" clip-rule="evenodd" d="M534.89 339.71L534.719 341.341C532.956 358.542 531.467 395.071 532.096 400.705L532.184 401.419C532.887 407.634 532.7 423.235 531.621 448.223L530.664 433.881C529.505 416.119 528.89 404.894 528.818 400.204L528.811 399.527C528.773 389.71 529.635 315.897 529.635 315.897L535.021 315.714C535.597 325.152 535.553 333.151 534.89 339.71Z" fill="white" fill-opacity="0.192499"/>
</g>
<g id="Head_2">
<path id="Path_46" fill-rule="evenodd" clip-rule="evenodd" d="M539.374 234.369C536.231 234.714 536.454 240.254 540.279 240.543C541.061 245.883 543.849 248.428 547.249 248.722L547.06 256.8L562.097 256.791C562.097 256.791 557.863 251.085 558.074 243.273C558.285 235.46 557.932 228.122 557.932 228.122L538.456 228.472L539.374 234.369Z" fill="url(#paint3_linear)"/>
</g>
<g id="RArm_2">
<path id="Path_47" fill-rule="evenodd" clip-rule="evenodd" d="M595.714 272.835C595.714 272.835 595.056 268.344 595.265 265.388C595.651 259.922 594.913 255.311 596.106 254.594C597.637 253.674 598.589 262.316 598.589 262.316C598.589 262.316 605.962 248.202 607.784 249.946C609.606 251.69 606.603 258.475 607.206 260.668C607.808 262.86 601.786 273.468 601.786 273.468L590.936 301.455L587.19 286.237L595.714 272.835Z" fill="#FFE2E2"/>
<path id="Path_48" fill-rule="evenodd" clip-rule="evenodd" d="M563.404 278.63C563.404 278.63 576.643 299.519 579.568 303.57C582.636 307.818 588.054 309.7 591.899 302.922C592.602 301.682 594.416 298.218 594.416 298.218C593.382 291.995 591.279 286.857 586.944 283.991L585.033 286.803C585.033 286.803 576.242 270.648 573.501 266.836C566.111 256.556 554.85 265.787 563.404 278.63Z" fill="#88CEA7"/>
</g>
<g id="Body_2">
<path id="Path_49" fill-rule="evenodd" clip-rule="evenodd" d="M535.429 258.364C532.075 263.306 526.484 280.078 526.166 283.851C525.809 288.203 530.462 295.137 530.539 301.437C530.607 307.739 527.068 328.312 528.131 330.084C528.799 331.206 545.199 336.835 558.605 335.377C570.18 334.119 574.794 326.6 574.22 325.248C572.655 321.557 565.391 310.786 566.131 305.757C566.862 300.729 571.111 282.169 573.22 275.852C575.321 269.535 574.621 262.903 570.699 260.185C568.759 258.84 563.581 255.019 554.36 255.036C545.139 255.054 535.69 257.981 535.429 258.364Z" fill="#6BCA95"/>
<path id="Path_50" fill-rule="evenodd" clip-rule="evenodd" d="M530.56 269.052L530.663 269C536.876 265.89 540.608 265.753 541.859 268.588C543.429 272.145 539.524 282.004 530.145 298.163C529.016 292.84 525.87 287.459 526.166 283.851C526.35 281.667 528.299 275.13 530.56 269.052Z" fill="black" fill-opacity="0.159856"/>
</g>
<g id="LArm_2">
<path id="Path_51" fill-rule="evenodd" clip-rule="evenodd" d="M481.218 298.451C481.218 298.451 471.934 298.994 470.334 297.675C468.733 296.356 462.356 289.789 463.053 288.246C463.749 286.704 471.163 289.967 471.659 288.986C472.296 287.725 469.006 283.229 471.889 282.967C472.631 282.899 473.156 285.667 475.246 287.49C477.336 289.313 481.584 292.557 481.584 292.557L513.611 287.49L516.601 297.768L481.218 298.451Z" fill="#FFE2E2"/>
<path id="Path_52" fill-rule="evenodd" clip-rule="evenodd" d="M532.502 260.578C525.168 267.535 514.784 283.962 512.572 285.409C512.085 285.728 507.889 287.408 507.889 287.408C506.123 292.119 509.108 297.457 513.447 299.743C513.447 299.743 518.206 299.05 519.326 298.724C525.041 297.065 535.046 281.934 539.203 277.104C550.635 263.825 539.836 253.621 532.502 260.578Z" fill="#88CEA7"/>
</g>
<path id="Path_53" fill-rule="evenodd" clip-rule="evenodd" d="M576.201 256.209C568.506 243.923 566.867 228.281 561.411 223.031C557.08 218.863 550.206 220.019 550.206 220.019C550.206 220.019 544.252 215.012 538.414 220.019C532.575 225.027 532.48 242.441 536.54 253.386C540.6 264.331 544.86 277 560.83 277C569.779 277 584.892 270.085 576.201 256.209Z" fill="#28211D"/>
</g>
<g id="Group 28">
<path id="Rectangle_27" fill-rule="evenodd" clip-rule="evenodd" d="M576 171.938C576 167.63 579.492 164.138 583.8 164.138H618.284C622.592 164.138 626.084 167.63 626.084 171.938V215.959C626.084 220.266 622.592 223.759 618.284 223.759H583.8C579.492 223.759 576 220.266 576 215.959V171.938Z" fill="#FF9F43"/>
<path id="Rectangle_28" fill-rule="evenodd" clip-rule="evenodd" d="M580.174 173.522C580.174 170.65 582.502 168.322 585.374 168.322H616.711C619.583 168.322 621.911 170.65 621.911 173.522V214.375C621.911 217.247 619.583 219.575 616.711 219.575H585.374C582.502 219.575 580.174 217.247 580.174 214.375V173.522Z" fill="white"/>
<g id="Group 29">
<ellipse id="Oval_8" cx="623.475" cy="216.96" rx="13.0428" ry="13.0747" fill="#28C76F"/>
<path id="Path_54" fill-rule="evenodd" clip-rule="evenodd" d="M627.002 212.814C627.366 212.191 628.166 211.982 628.787 212.348C629.367 212.689 629.587 213.409 629.317 214.01L629.252 214.137L624.879 221.608C624.785 221.768 624.673 221.916 624.544 222.05C623.687 222.941 622.299 223.008 621.362 222.234L621.225 222.111L617.868 218.868C617.349 218.367 617.334 217.539 617.834 217.019C618.3 216.534 619.051 216.488 619.571 216.892L619.678 216.985L622.796 219.998L627.002 212.814Z" fill="white"/>
</g>
<path id="Rectangle_29" opacity="0.33996" d="M586.435 180.874C586.435 180.296 586.903 179.828 587.481 179.828H614.604C615.182 179.828 615.65 180.296 615.65 180.874V180.874C615.65 181.451 615.182 181.92 614.604 181.92H587.481C586.903 181.92 586.435 181.451 586.435 180.874V180.874Z" fill="#467FFF"/>
<path id="Rectangle_30" opacity="0.33996" d="M586.435 189.241C586.435 188.664 586.903 188.195 587.481 188.195H614.604C615.182 188.195 615.65 188.664 615.65 189.241V189.241C615.65 189.819 615.182 190.287 614.604 190.287H587.481C586.903 190.287 586.435 189.819 586.435 189.241V189.241Z" fill="#467FFF"/>
<path id="Rectangle_31" opacity="0.33996" d="M586.435 197.609C586.435 197.032 586.903 196.563 587.481 196.563H614.604C615.182 196.563 615.65 197.032 615.65 197.609V197.609C615.65 198.187 615.182 198.655 614.604 198.655H587.481C586.903 198.655 586.435 198.187 586.435 197.609V197.609Z" fill="#467FFF"/>
<rect id="Rectangle_32" x="587.478" y="161" width="27.1289" height="11.5057" rx="5.2" fill="#FF9F43"/>
</g>
<g id="Icon17">
<circle id="Oval_9" cx="367.762" cy="295.762" r="14.7622" fill="#FF9F43"/>
<path id="Path_55" d="M366.215 287.557C366.255 287.236 366.533 287.002 366.851 287.009L366.915 287.014L373.833 287.884C374.155 287.927 374.387 288.206 374.378 288.524L374.372 288.588L373.469 295.412C373.447 295.575 373.363 295.722 373.233 295.823C372.977 296.024 372.613 295.993 372.393 295.761L372.354 295.715L371.117 294.133L364.637 299.141C364.38 299.339 364.018 299.307 363.799 299.076L363.76 299.031L362.734 297.718L362.118 303.343L367.653 304.014L366.655 302.736C366.454 302.479 366.485 302.115 366.717 301.896L366.763 301.856L371.317 298.298C371.549 298.117 371.884 298.158 372.065 298.39C372.235 298.607 372.21 298.915 372.015 299.102L371.973 299.138L367.765 302.426L369.145 304.192C369.345 304.449 369.314 304.813 369.083 305.032L369.037 305.072C368.922 305.161 368.781 305.207 368.637 305.204L368.575 305.2L361.559 304.348C361.239 304.31 361.005 304.037 361.007 303.722L361.011 303.658L361.792 296.528C361.83 296.184 362.14 295.936 362.484 295.974C362.631 295.99 362.767 296.057 362.868 296.163L362.909 296.211L364.33 298.03L370.811 293.022C371.068 292.824 371.43 292.856 371.649 293.087L371.688 293.132L372.549 294.235L373.257 288.886L367.837 288.204L368.788 289.421C368.989 289.678 368.958 290.042 368.726 290.261L368.68 290.301L364.207 293.795C363.975 293.977 363.641 293.936 363.459 293.704C363.289 293.486 363.315 293.178 363.51 292.991L363.551 292.956L367.678 289.731L366.342 288.022C366.253 287.906 366.206 287.764 366.21 287.62L366.215 287.557Z" fill="white"/>
</g>
</g>
</g>
<defs>
<filter id="filter0_d" x="214.033" y="107.876" width="263.338" height="199.775" filterUnits="userSpaceOnUse" color-interpolation-filters="sRGB">
<feFlood flood-opacity="0" result="BackgroundImageFix"/>
<feColorMatrix in="SourceAlpha" type="matrix" values="0 0 0 0 0 0 0 0 0 0 0 0 0 0 0 0 0 0 127 0"/>
<feOffset dx="6" dy="4"/>
<feGaussianBlur stdDeviation="15"/>
<feColorMatrix type="matrix" values="0 0 0 0 0 0 0 0 0 0 0 0 0 0 0 0 0 0 0.264724 0"/>
<feBlend mode="normal" in2="BackgroundImageFix" result="effect1_dropShadow"/>
<feBlend mode="normal" in="SourceGraphic" in2="effect1_dropShadow" result="shape"/>
</filter>
<filter id="filter1_d" x="480.773" y="117.088" width="137.809" height="163.311" filterUnits="userSpaceOnUse" color-interpolation-filters="sRGB">
<feFlood flood-opacity="0" result="BackgroundImageFix"/>
<feColorMatrix in="SourceAlpha" type="matrix" values="0 0 0 0 0 0 0 0 0 0 0 0 0 0 0 0 0 0 127 0"/>
<feOffset dx="8" dy="9"/>
<feGaussianBlur stdDeviation="10.5"/>
<feColorMatrix type="matrix" values="0 0 0 0 0.276721 0 0 0 0 0.276721 0 0 0 0 0.276721 0 0 0 0.208725 0"/>
<feBlend mode="normal" in2="BackgroundImageFix" result="effect1_dropShadow"/>
<feBlend mode="normal" in="SourceGraphic" in2="effect1_dropShadow" result="shape"/>
</filter>
<filter id="filter2_dd" x="503.299" y="130.04" width="92.8768" height="93.6507" filterUnits="userSpaceOnUse" color-interpolation-filters="sRGB">
<feFlood flood-opacity="0" result="BackgroundImageFix"/>
<feColorMatrix in="SourceAlpha" type="matrix" values="0 0 0 0 0 0 0 0 0 0 0 0 0 0 0 0 0 0 127 0"/>
<feOffset dx="8" dy="9"/>
<feGaussianBlur stdDeviation="14"/>
<feColorMatrix type="matrix" values="0 0 0 0 0.0755213 0 0 0 0 0.582569 0 0 0 0 0.878793 0 0 0 0.229458 0"/>
<feBlend mode="normal" in2="BackgroundImageFix" result="effect1_dropShadow"/>
<feColorMatrix in="SourceAlpha" type="matrix" values="0 0 0 0 0 0 0 0 0 0 0 0 0 0 0 0 0 0 127 0"/>
<feOffset dy="2"/>
<feGaussianBlur stdDeviation="7.5"/>
<feColorMatrix type="matrix" values="0 0 0 0 0.503982 0 0 0 0 0.700178 0 0 0 0 1 0 0 0 0.233829 0"/>
<feBlend mode="normal" in2="effect1_dropShadow" result="effect2_dropShadow"/>
<feBlend mode="normal" in="SourceGraphic" in2="effect2_dropShadow" result="shape"/>
</filter>
<filter id="filter3_d" x="229" y="281" width="161.893" height="81.4212" filterUnits="userSpaceOnUse" color-interpolation-filters="sRGB">
<feFlood flood-opacity="0" result="BackgroundImageFix"/>
<feColorMatrix in="SourceAlpha" type="matrix" values="0 0 0 0 0 0 0 0 0 0 0 0 0 0 0 0 0 0 127 0"/>
<feOffset dx="6" dy="7"/>
<feGaussianBlur stdDeviation="8.5"/>
<feColorMatrix type="matrix" values="0 0 0 0 0.561707 0 0 0 0 0.561707 0 0 0 0 0.561707 0 0 0 0.208725 0"/>
<feBlend mode="normal" in2="BackgroundImageFix" result="effect1_dropShadow"/>
<feBlend mode="normal" in="SourceGraphic" in2="effect1_dropShadow" result="shape"/>
</filter>
<filter id="filter4_d" x="232" y="348" width="153.893" height="73.4212" filterUnits="userSpaceOnUse" color-interpolation-filters="sRGB">
<feFlood flood-opacity="0" result="BackgroundImageFix"/>
<feColorMatrix in="SourceAlpha" type="matrix" values="0 0 0 0 0 0 0 0 0 0 0 0 0 0 0 0 0 0 127 0"/>
<feOffset dx="5" dy="5"/>
<feGaussianBlur stdDeviation="6.5"/>
<feColorMatrix type="matrix" values="0 0 0 0 0.649655 0 0 0 0 0.649655 0 0 0 0 0.649655 0 0 0 0.208725 0"/>
<feBlend mode="normal" in2="BackgroundImageFix" result="effect1_dropShadow"/>
<feBlend mode="normal" in="SourceGraphic" in2="effect1_dropShadow" result="shape"/>
</filter>
<linearGradient id="paint0_linear" x1="326.855" y1="370.083" x2="326.855" y2="385.495" gradientUnits="userSpaceOnUse">
<stop stop-color="#71FFB0"/>
<stop offset="1" stop-color="#91F688"/>
</linearGradient>
<linearGradient id="paint1_linear" x1="186.895" y1="188.881" x2="178.044" y2="189.696" gradientUnits="userSpaceOnUse">
<stop stop-color="#4D63A0"/>
<stop offset="1" stop-color="#222735"/>
</linearGradient>
<linearGradient id="paint2_linear" x1="177.015" y1="287.953" x2="192.022" y2="283.585" gradientUnits="userSpaceOnUse">
<stop stop-color="#2E4175"/>
<stop offset="1" stop-color="#222735"/>
</linearGradient>
<linearGradient id="paint3_linear" x1="530.384" y1="221.14" x2="532.92" y2="261.061" gradientUnits="userSpaceOnUse">
<stop stop-color="#FDC6C6"/>
<stop offset="1" stop-color="#A47070"/>
</linearGradient>
</defs>
</svg>
