<?xml version="1.0" encoding="UTF-8"?>
<svg width="704px" height="494px" viewBox="0 0 704 494" version="1.1" xmlns="http://www.w3.org/2000/svg" xmlns:xlink="http://www.w3.org/1999/xlink">
    <title>Illustration</title>
    <defs>
        <path d="M7.4844,0 L195.853458,0 C199.986978,-7.59315302e-16 203.337858,3.35088002 203.337858,7.4844 L203.337858,132.29077 C203.337858,136.42429 199.986978,139.77517 195.853458,139.77517 L7.4844,139.77517 C3.35088002,139.77517 7.61163756e-15,136.42429 0,132.29077 L0,7.4844 C-5.06210201e-16,3.35088002 3.35088002,7.59315302e-16 7.4844,0 Z" id="path-1"></path>
        <filter x="-20.7%" y="-31.5%" width="147.2%" height="168.7%" filterUnits="objectBoundingBox" id="filter-2">
            <feOffset dx="6" dy="4" in="SourceAlpha" result="shadowOffsetOuter1"></feOffset>
            <feGaussianBlur stdDeviation="15" in="shadowOffsetOuter1" result="shadowBlurOuter1"></feGaussianBlur>
            <feColorMatrix values="0 0 0 0 0.567616636   0 0 0 0 0.42745098   0 0 0 0 1  0 0 0 0.725906906 0" type="matrix" in="shadowBlurOuter1"></feColorMatrix>
        </filter>
        <path d="M10.0395995,9.07334382e-14 L85.4478546,9.07334382e-14 C90.9552744,9.32744553e-14 95.4260105,4.45310207 95.4477765,9.96047886 L95.8481728,111.271643 C95.8699997,116.794447 91.4105764,121.289259 85.8877721,121.311086 C85.8745984,121.311138 85.8614247,121.311164 85.8482509,121.311164 L10.4399959,121.311164 C4.9325761,121.311164 0.461839949,116.858062 0.440074,111.350685 L0.0396776385,10.0395211 C0.0178507175,4.51671677 4.47727404,0.0219050174 10.0000784,7.8096317e-05 C10.0132521,2.60321565e-05 10.0264258,8.89595013e-14 10.0395995,9.07334382e-14 Z" id="path-3"></path>
        <filter x="-29.2%" y="-22.3%" width="175.0%" height="159.4%" filterUnits="objectBoundingBox" id="filter-4">
            <feOffset dx="8" dy="9" in="SourceAlpha" result="shadowOffsetOuter1"></feOffset>
            <feGaussianBlur stdDeviation="10.5" in="shadowOffsetOuter1" result="shadowBlurOuter1"></feGaussianBlur>
            <feColorMatrix values="0 0 0 0 0.276721014   0 0 0 0 0.276721014   0 0 0 0 0.276721014  0 0 0 0.208724869 0" type="matrix" in="shadowBlurOuter1"></feColorMatrix>
        </filter>
        <ellipse id="path-5" cx="18.438405" cy="18.8253697" rx="18.438405" ry="18.8253697"></ellipse>
        <filter x="-104.4%" y="-99.6%" width="352.2%" height="347.0%" filterUnits="objectBoundingBox" id="filter-6">
            <feOffset dx="8" dy="9" in="SourceAlpha" result="shadowOffsetOuter1"></feOffset>
            <feGaussianBlur stdDeviation="14" in="shadowOffsetOuter1" result="shadowBlurOuter1"></feGaussianBlur>
            <feColorMatrix values="0 0 0 0 0.0755212756   0 0 0 0 0.582569014   0 0 0 0 0.878793025  0 0 0 0.229458042 0" type="matrix" in="shadowBlurOuter1" result="shadowMatrixOuter1"></feColorMatrix>
            <feOffset dx="0" dy="2" in="SourceAlpha" result="shadowOffsetOuter2"></feOffset>
            <feGaussianBlur stdDeviation="7.5" in="shadowOffsetOuter2" result="shadowBlurOuter2"></feGaussianBlur>
            <feColorMatrix values="0 0 0 0 0.50398247   0 0 0 0 0.700178215   0 0 0 0 1  0 0 0 0.233828671 0" type="matrix" in="shadowBlurOuter2" result="shadowMatrixOuter2"></feColorMatrix>
            <feMerge>
                <feMergeNode in="shadowMatrixOuter1"></feMergeNode>
                <feMergeNode in="shadowMatrixOuter2"></feMergeNode>
            </feMerge>
        </filter>
        <path d="M5.98752,0 L121.905907,0 C125.212723,-1.49563066e-15 127.893427,2.68070401 127.893427,5.98752 L127.893427,41.4336384 C127.893427,44.7404544 125.212723,47.4211584 121.905907,47.4211584 L5.98752,47.4211584 C2.68070401,47.4211584 6.58688889e-15,44.7404544 0,41.4336384 L0,5.98752 C-1.29314658e-15,2.68070401 2.68070401,2.38380908e-15 5.98752,0 Z" id="path-7"></path>
        <filter x="-18.0%" y="-46.4%" width="145.4%" height="222.3%" filterUnits="objectBoundingBox" id="filter-8">
            <feOffset dx="6" dy="7" in="SourceAlpha" result="shadowOffsetOuter1"></feOffset>
            <feGaussianBlur stdDeviation="8.5" in="shadowOffsetOuter1" result="shadowBlurOuter1"></feGaussianBlur>
            <feColorMatrix values="0 0 0 0 0.561707428   0 0 0 0 0.561707428   0 0 0 0 0.561707428  0 0 0 0.208724869 0" type="matrix" in="shadowBlurOuter1"></feColorMatrix>
        </filter>
        <path d="M5.98752,0 L121.905907,0 C125.212723,-1.49563066e-15 127.893427,2.68070401 127.893427,5.98752 L127.893427,41.4336384 C127.893427,44.7404544 125.212723,47.4211584 121.905907,47.4211584 L5.98752,47.4211584 C2.68070401,47.4211584 6.58688889e-15,44.7404544 0,41.4336384 L0,5.98752 C-1.29314658e-15,2.68070401 2.68070401,2.38380908e-15 5.98752,0 Z" id="path-9"></path>
        <filter x="-13.3%" y="-35.8%" width="134.4%" height="192.8%" filterUnits="objectBoundingBox" id="filter-10">
            <feOffset dx="5" dy="5" in="SourceAlpha" result="shadowOffsetOuter1"></feOffset>
            <feGaussianBlur stdDeviation="6.5" in="shadowOffsetOuter1" result="shadowBlurOuter1"></feGaussianBlur>
            <feColorMatrix values="0 0 0 0 0.649654665   0 0 0 0 0.649654665   0 0 0 0 0.649654665  0 0 0 0.208724869 0" type="matrix" in="shadowBlurOuter1"></feColorMatrix>
        </filter>
        <linearGradient x1="68.6694733%" y1="-6.66432423%" x2="68.6694733%" y2="100%" id="linearGradient-11">
            <stop stop-color="#71FFB0" offset="0%"></stop>
            <stop stop-color="#91F688" offset="100%"></stop>
        </linearGradient>
        <linearGradient x1="70.1764874%" y1="38.1822589%" x2="33.0576234%" y2="84.8636514%" id="linearGradient-12">
            <stop stop-color="#4D63A0" offset="0%"></stop>
            <stop stop-color="#222735" offset="100%"></stop>
        </linearGradient>
        <linearGradient x1="49.5984419%" y1="69.5178093%" x2="50.8868609%" y2="4.7798907%" id="linearGradient-13">
            <stop stop-color="#2E4175" offset="0%"></stop>
            <stop stop-color="#222735" offset="100%"></stop>
        </linearGradient>
        <linearGradient x1="44.2054494%" y1="-28.1859254%" x2="50%" y2="111.153913%" id="linearGradient-14">
            <stop stop-color="#FDC6C6" offset="0%"></stop>
            <stop stop-color="#A47070" offset="100%"></stop>
        </linearGradient>
    </defs>
    <g id="ðŸ“-Pages-New" stroke="none" stroke-width="1" fill="none" fill-rule="evenodd">
        <g id="Comingsoon" transform="translate(-368.000000, -400.000000)">
            <g id="Illustration" transform="translate(368.000000, 400.000000)">
                <g id="Shape">
                    <path d="M626.85501,49.1679661 L699.989249,161.821949 C701.192153,163.67487 700.665211,166.152106 698.81229,167.35501 C698.163857,167.775968 697.40733,168 696.634239,168 L550.365761,168 C548.156622,168 546.365761,166.209139 546.365761,164 C546.365761,163.226908 546.589793,162.470382 547.010751,161.821949 L620.14499,49.1679661 C621.347894,47.3150451 623.82513,46.7881025 625.678051,47.9910069 C626.148559,48.2964578 626.549559,48.6974579 626.85501,49.1679661 Z" id="Triangle" fill="#EA5455" opacity="0.05"></path>
                    <path d="M100.860369,244.204263 L191.016205,383.830225 C192.214539,385.686106 191.681491,388.162035 189.825611,389.360369 C189.178962,389.777907 188.425573,390 187.655836,390 L7.34416361,390 C5.13502462,390 3.34416361,388.209139 3.34416361,386 C3.34416361,385.230264 3.56625631,384.476875 3.98379483,383.830225 L94.1396312,244.204263 C95.3379646,242.348383 97.8138941,241.815336 99.6697745,243.013669 C100.146618,243.321565 100.552473,243.72742 100.860369,244.204263 Z" id="Triangle" fill="#EA5455" opacity="0.05"></path>
                    <path d="M449.362426,220.218311 L596.026552,447.833416 C597.223124,449.690432 596.687727,452.165855 594.83071,453.362426 C594.184751,453.778651 593.43257,454 592.664126,454 L299.335874,454 C297.126735,454 295.335874,452.209139 295.335874,450 C295.335874,449.231555 295.557223,448.479375 295.973448,447.833416 L442.637574,220.218311 C443.834145,218.361294 446.309568,217.825898 448.166584,219.022469 C448.645872,219.331299 449.053597,219.739024 449.362426,220.218311 Z" id="Triangle" fill="#7367F0" opacity="0.25"></path>
                    <path d="M592.442307,39.8163114 L643.426914,125.962716 C644.552074,127.86385 643.923024,130.317146 642.021891,131.442307 C641.405032,131.807386 640.701404,132 639.984607,132 L538.015393,132 C535.806254,132 534.015393,130.209139 534.015393,128 C534.015393,127.283203 534.208007,126.579575 534.573086,125.962716 L585.557693,39.8163114 C586.682854,37.9151779 589.13615,37.2861276 591.037284,38.4112882 C591.616346,38.7539985 592.099596,39.2372492 592.442307,39.8163114 Z" id="Triangle" fill="#7367F0" opacity="0.25"></path>
                    <path d="M180.869535,5.26731985 L217.062283,61.8444883 C218.252739,63.7054314 217.709202,66.1790793 215.848259,67.3695355 C215.204705,67.7812209 214.456715,68 213.692747,68 L141.307253,68 C139.098114,68 137.307253,66.209139 137.307253,64 C137.307253,63.2360321 137.526032,62.4880425 137.937717,61.8444883 L174.130465,5.26731985 C175.320921,3.40637678 177.794569,2.86283981 179.655512,4.05329603 C180.143288,4.36532913 180.557502,4.77954397 180.869535,5.26731985 Z" id="Triangle" fill="#EA5455" opacity="0.05"></path>
                </g>
                <g id="Finance-Presentation" transform="translate(95.000000, 82.000000)">
                    <g id="DesktopDasboard">
                        <path d="M25.137,0 L487.669227,0 C501.552008,-2.55022564e-15 512.806227,11.2542182 512.806227,25.137 L512.806227,310.647114 C512.806227,324.529896 501.552008,335.784114 487.669227,335.784114 L25.137,335.784114 C11.2542182,335.784114 1.70015042e-15,324.529896 0,310.647114 L0,25.137 C-1.70015042e-15,11.2542182 11.2542182,2.55022564e-15 25.137,0 Z" id="Rectangle" fill="#F2F2F2"></path>
                        <g id="ElementCard11" transform="translate(143.032710, 51.876485)">
                            <g id="Rectangle">
                                <use fill="black" fill-opacity="1" filter="url(#filter-2)" xlink:href="#path-1"></use>
                                <use fill="#7367F0" fill-rule="evenodd" xlink:href="#path-1"></use>
                            </g>
                            <g id="Group-12" transform="translate(29.902626, 40.021096)" fill="#FFFFFF">
                                <path d="M25.4172322,13.5081601 L25.4172322,43.7804617 C25.4172322,44.6071657 24.7470562,45.2773417 23.9203522,45.2773417 L17.0462456,45.2773417 C16.2195416,45.2773417 15.5493656,44.6071657 15.5493656,43.7804617 L15.5493656,13.5081601 C15.5493656,12.6814561 16.2195416,12.0112801 17.0462456,12.0112801 L23.9203522,12.0112801 C24.7470562,12.0112801 25.4172322,12.6814561 25.4172322,13.5081601 Z" id="Path" opacity="0.394880022"></path>
                                <path d="M9.86786664,26.0520856 L9.86786664,43.7804617 C9.86786664,44.6071657 9.19769063,45.2773417 8.37098664,45.2773417 L1.49688,45.2773417 C0.670176004,45.2773417 -1.20802565e-16,44.6071657 0,43.7804617 L0,26.0520856 C-3.23286645e-16,25.2253816 0.670176004,24.5552056 1.49688,24.5552056 L8.37098664,24.5552056 C9.19769063,24.5552056 9.86786664,25.2253816 9.86786664,26.0520856 Z" id="Path"></path>
                                <path d="M40.9665979,1.56156438 L40.9665979,43.7804617 C40.9665979,44.6071657 40.2964218,45.2773417 39.4697179,45.2773417 L32.5956112,45.2773417 C31.7689072,45.2773417 31.0987312,44.6071657 31.0987312,43.7804617 L31.0987312,1.56156438 C31.0987312,0.734860383 31.7689072,0.064684379 32.5956112,0.064684379 L39.4697179,0.064684379 C40.2964218,0.064684379 40.9665979,0.734860383 40.9665979,1.56156438 Z" id="Path"></path>
                                <path d="M56.5159635,7.53486224 L56.5159635,43.7804617 C56.5159635,44.6071657 55.8457875,45.2773417 55.0190835,45.2773417 L48.1449768,45.2773417 C47.3182728,45.2773417 46.6480968,44.6071657 46.6480968,43.7804617 L46.6480968,7.53486224 C46.6480968,6.70815824 47.3182728,6.03798224 48.1449768,6.03798224 L55.0190835,6.03798224 C55.8457875,6.03798224 56.5159635,6.70815824 56.5159635,7.53486224 Z" id="Path" opacity="0.394880022"></path>
                                <path d="M72.0653291,19.481458 L72.0653291,43.7804617 C72.0653291,44.6071657 71.3951531,45.2773417 70.5684491,45.2773417 L63.6943424,45.2773417 C62.8676384,45.2773417 62.1974624,44.6071657 62.1974624,43.7804617 L62.1974624,19.481458 C62.1974624,18.654754 62.8676384,17.984578 63.6943424,17.984578 L70.5684491,17.984578 C71.3951531,17.984578 72.0653291,18.654754 72.0653291,19.481458 Z" id="Path"></path>
                                <path d="M87.6146947,46.3612983 L87.6146947,64.6870043 C87.6146947,65.5137083 86.9445187,66.1838843 86.1178147,66.1838843 L79.243708,66.1838843 C78.417004,66.1838843 77.746828,65.5137083 77.746828,64.6870043 L77.746828,46.3612983 C77.746828,45.5345943 78.417004,44.8644183 79.243708,44.8644183 L86.1178147,44.8644183 C86.9445187,44.8644183 87.6146947,45.5345943 87.6146947,46.3612983 Z" id="Path" opacity="0.394880022"></path>
                                <path d="M103.16406,46.3612983 L103.16406,81.4122383 C103.16406,82.2389423 102.493884,82.9091183 101.66718,82.9091183 L94.7930736,82.9091183 C93.9663696,82.9091183 93.2961936,82.2389423 93.2961936,81.4122383 L93.2961936,46.3612983 C93.2961936,45.5345943 93.9663696,44.8644183 94.7930736,44.8644183 L101.66718,44.8644183 C102.493884,44.8644183 103.16406,45.5345943 103.16406,46.3612983 Z" id="Path"></path>
                                <path d="M118.713426,46.3612983 L118.713426,72.4522915 C118.713426,73.2789955 118.04325,73.9491715 117.216546,73.9491715 L110.342439,73.9491715 C109.515735,73.9491715 108.845559,73.2789955 108.845559,72.4522915 L108.845559,46.3612983 C108.845559,45.5345943 109.515735,44.8644183 110.342439,44.8644183 L117.216546,44.8644183 C118.04325,44.8644183 118.713426,45.5345943 118.713426,46.3612983 Z" id="Path" opacity="0.394880022"></path>
                                <path d="M134.262791,46.3612983 L134.262791,78.4255894 C134.262791,79.2522933 133.592615,79.9224694 132.765911,79.9224694 L125.891805,79.9224694 C125.065101,79.9224694 124.394925,79.2522933 124.394925,78.4255894 L124.394925,46.3612983 C124.394925,45.5345943 125.065101,44.8644183 125.891805,44.8644183 L132.765911,44.8644183 C133.592615,44.8644183 134.262791,45.5345943 134.262791,46.3612983 Z" id="Path"></path>
                                <path d="M149.812157,46.3612983 L149.812157,64.6870043 C149.812157,65.5137083 149.141981,66.1838843 148.315277,66.1838843 L141.44117,66.1838843 C140.614466,66.1838843 139.94429,65.5137083 139.94429,64.6870043 L139.94429,46.3612983 C139.94429,45.5345943 140.614466,44.8644183 141.44117,44.8644183 L148.315277,44.8644183 C149.141981,44.8644183 149.812157,45.5345943 149.812157,46.3612983 Z" id="Path" opacity="0.394880022"></path>
                            </g>
                            <path d="M26.3121428,23.8931914 L86.1217316,23.8931914 C87.11142,23.8931914 87.9137209,24.6954924 87.9137209,25.6851808 C87.9137209,26.6748692 87.11142,27.4771702 86.1217316,27.4771702 L26.3121428,27.4771702 C25.3224544,27.4771702 24.5201535,26.6748692 24.5201535,25.6851808 C24.5201535,24.6954924 25.3224544,23.8931914 26.3121428,23.8931914 Z" id="Rectangle" fill="#FFFFFF" opacity="0.394880022"></path>
                            <rect id="Rectangle" fill="#FFFFFF" x="24.5201535" y="13.7385851" width="33.4909413" height="3.58397872"></rect>
                        </g>
                        <path d="M25.137,0 L80.1458621,0 C94.0286439,-2.55022564e-15 105.282862,11.2542182 105.282862,25.137 L105.282862,335.784114 L105.282862,335.784114 L25.137,335.784114 C11.2542182,335.784114 3.25261183e-14,324.529896 0,310.647114 L0,25.137 C-1.70015042e-15,11.2542182 11.2542182,2.55022564e-15 25.137,0 Z" id="Rectangle" fill="#E4E4E4"></path>
                        <path d="M17.7850467,46.2897862 L86.0934579,46.2897862 C88.8548817,46.2897862 91.0934579,48.5283625 91.0934579,51.2897862 L91.0934579,55.6555819 C91.0934579,58.4170057 88.8548817,60.6555819 86.0934579,60.6555819 L17.7850467,60.6555819 C15.023623,60.6555819 12.7850467,58.4170057 12.7850467,55.6555819 L12.7850467,51.2897862 C12.7850467,48.5283625 15.023623,46.2897862 17.7850467,46.2897862 Z" id="Rectangle" fill-opacity="0.423923733" fill="#FFFFFF"></path>
                        <path d="M17.7850467,72.6270784 L54.1308411,72.6270784 C56.8922649,72.6270784 59.1308411,74.8656546 59.1308411,77.6270784 L59.1308411,81.9928741 C59.1308411,84.7542979 56.8922649,86.9928741 54.1308411,86.9928741 L17.7850467,86.9928741 C15.023623,86.9928741 12.7850467,84.7542979 12.7850467,81.9928741 L12.7850467,77.6270784 C12.7850467,74.8656546 15.023623,72.6270784 17.7850467,72.6270784 Z" id="Rectangle" fill-opacity="0.204873252" fill="#FFFFFF"></path>
                        <path d="M17.7850467,96.5700713 L54.1308411,96.5700713 C56.8922649,96.5700713 59.1308411,98.8086475 59.1308411,101.570071 L59.1308411,105.935867 C59.1308411,108.697291 56.8922649,110.935867 54.1308411,110.935867 L17.7850467,110.935867 C15.023623,110.935867 12.7850467,108.697291 12.7850467,105.935867 L12.7850467,101.570071 C12.7850467,98.8086475 15.023623,96.5700713 17.7850467,96.5700713 Z" id="Rectangle" fill-opacity="0.204873252" fill="#FFFFFF"></path>
                        <path d="M375.560748,0 L487.669227,0 C501.552008,-7.77518544e-15 512.806227,11.2542182 512.806227,25.137 L512.806227,310.647114 C512.806227,324.529896 501.552008,335.784114 487.669227,335.784114 L375.560748,335.784114 L375.560748,335.784114 L375.560748,0 Z" id="Rectangle" fill="#E4E4E4"></path>
                        <g id="Group-23" transform="translate(398.733645, 47.087886)">
                            <g id="Rectangle">
                                <use fill="black" fill-opacity="1" filter="url(#filter-4)" xlink:href="#path-3"></use>
                                <use fill="#FFFFFF" fill-rule="evenodd" xlink:href="#path-3"></use>
                            </g>
                            <path d="M32.7587853,75.0213777 L63.1290652,75.0213777 C64.4514002,75.0213777 65.5233645,76.093342 65.5233645,77.415677 C65.5233645,78.7380119 64.4514002,79.8099762 63.1290652,79.8099762 L32.7587853,79.8099762 C31.4364503,79.8099762 30.364486,78.7380119 30.364486,77.415677 C30.364486,76.093342 31.4364503,75.0213777 32.7587853,75.0213777 Z" id="Rectangle" fill="#467FFF" fill-rule="nonzero" opacity="0.339960007"></path>
                            <path d="M24.7681311,87.7909739 L71.1197194,87.7909739 C72.4420544,87.7909739 73.5140187,88.8629382 73.5140187,90.1852732 C73.5140187,91.5076081 72.4420544,92.5795724 71.1197194,92.5795724 L24.7681311,92.5795724 C23.4457961,92.5795724 22.3738318,91.5076081 22.3738318,90.1852732 C22.3738318,88.8629382 23.4457961,87.7909739 24.7681311,87.7909739 Z" id="Rectangle" fill="#467FFF" fill-rule="nonzero" opacity="0.339960007"></path>
                            <g id="Icon8" transform="translate(29.565421, 19.952494)">
                                <g id="Oval">
                                    <use fill="black" fill-opacity="1" filter="url(#filter-6)" xlink:href="#path-5"></use>
                                    <use fill="#FFFFFF" fill-rule="evenodd" xlink:href="#path-5"></use>
                                </g>
                                <g id="Group-70" transform="translate(11.186916, 8.779097)" fill="#7367F0">
                                    <path d="M11.2724566,10.7557768 C13.440641,10.7557768 15.1983018,12.5134376 15.1983018,14.6816221 L15.1983018,17.2957365 C15.1983018,18.0201854 14.6110199,18.6074673 13.886571,18.6074673 L1.31173083,18.6074673 C0.587281895,18.6074673 1.52475904e-12,18.0201854 1.52467032e-12,17.2957365 L1.52467032e-12,14.6816221 C1.52440479e-12,12.5134376 1.75766078,10.7557768 3.92584523,10.7557768 L11.2724566,10.7557768 Z M7.5991509,6.21554009e-13 C10.2041203,6.21554009e-13 12.3158653,2.10919294 12.3158653,4.71101428 C12.3158653,7.31283562 10.2041203,9.42202855 7.5991509,9.42202855 C4.9941815,9.42202855 2.88243655,7.31283562 2.88243655,4.71101428 C2.88243655,2.10919294 4.9941815,6.21554009e-13 7.5991509,6.21554009e-13 Z" id="Combined-Shape"></path>
                                </g>
                            </g>
                        </g>
                        <path d="M401.336449,237.035629 L492.018692,237.035629 C494.780115,237.035629 497.018692,239.274206 497.018692,242.035629 L497.018692,310.249406 C497.018692,313.01083 494.780115,315.249406 492.018692,315.249406 L401.336449,315.249406 C398.575025,315.249406 396.336449,313.01083 396.336449,310.249406 L396.336449,242.035629 C396.336449,239.274206 398.575025,237.035629 401.336449,237.035629 Z" id="Rectangle" fill-opacity="0.345907998" fill="#FFFFFF"></path>
                        <path d="M25.137,0 L487.669227,0 C501.552008,1.00248804e-15 512.806227,11.2542182 512.806227,25.137 L512.806227,27.7176057 L512.806227,27.7176057 L0,27.7176057 L0,25.137 C-5.2528641e-15,11.2542182 11.2542182,6.10293932e-15 25.137,0 Z" id="Rectangle" fill="#D4D4D4"></path>
                        <path d="M20.7757009,16.760095 C22.5409475,16.760095 23.9719626,15.3308093 23.9719626,13.567696 C23.9719626,11.8045827 22.5409475,10.3752969 20.7757009,10.3752969 C19.0104544,10.3752969 17.5794393,11.8045827 17.5794393,13.567696 C17.5794393,15.3308093 19.0104544,16.760095 20.7757009,16.760095 Z" id="Oval" fill="#F5818D"></path>
                        <path d="M33.5607477,16.760095 C35.3259942,16.760095 36.7570093,15.3308093 36.7570093,13.567696 C36.7570093,11.8045827 35.3259942,10.3752969 33.5607477,10.3752969 C31.7955011,10.3752969 30.364486,11.8045827 30.364486,13.567696 C30.364486,15.3308093 31.7955011,16.760095 33.5607477,16.760095 Z" id="Oval" fill="#FFBD63"></path>
                        <path d="M47.1448598,16.760095 C48.9101064,16.760095 50.3411215,15.3308093 50.3411215,13.567696 C50.3411215,11.8045827 48.9101064,10.3752969 47.1448598,10.3752969 C45.3796132,10.3752969 43.9485981,11.8045827 43.9485981,13.567696 C43.9485981,15.3308093 45.3796132,16.760095 47.1448598,16.760095 Z" id="Oval" fill="#4CE47A"></path>
                    </g>
                    <g id="ElementCard25" transform="translate(145.000000, 209.000000)">
                        <g id="Rectangle">
                            <use fill="black" fill-opacity="1" filter="url(#filter-8)" xlink:href="#path-7"></use>
                            <use fill="#FFFFFF" fill-rule="evenodd" xlink:href="#path-7"></use>
                        </g>
                        <path d="M43.110144,26.345088 L67.060224,26.345088 C67.8538598,26.345088 68.4972288,26.988457 68.4972288,27.7820928 C68.4972288,28.5757286 67.8538598,29.2190976 67.060224,29.2190976 L43.110144,29.2190976 C42.3165082,29.2190976 41.6731392,28.5757286 41.6731392,27.7820928 C41.6731392,26.988457 42.3165082,26.345088 43.110144,26.345088 Z" id="Rectangle" fill="#FF9F43" opacity="0.200000003"></path>
                        <path d="M43.110144,18.2020608 L57.480192,18.2020608 C58.2738278,18.2020608 58.9171968,18.8454298 58.9171968,19.6390656 C58.9171968,20.4327014 58.2738278,21.0760704 57.480192,21.0760704 L43.110144,21.0760704 C42.3165082,21.0760704 41.6731392,20.4327014 41.6731392,19.6390656 C41.6731392,18.8454298 42.3165082,18.2020608 43.110144,18.2020608 Z" id="Rectangle" fill="#FF9F43" opacity="0.5"></path>
                        <path d="M88.7376683,18.333235 C89.1490311,17.4304983 90.2143192,17.0321611 91.1170559,17.4435239 C91.4156223,17.5795759 91.6704888,17.794452 91.8548445,18.0639939 L91.9206204,18.1675874 L95.4433198,24.1584079 C95.4768429,24.2154185 95.550235,24.2344588 95.6072457,24.2009357 L95.6226881,24.1901352 L95.636245,24.1770458 L97.5106641,22.0578277 C98.1679132,21.314742 99.3031089,21.2451576 100.046195,21.9024067 C100.095029,21.9455999 100.141457,21.9914037 100.185279,22.0396094 L100.249033,22.1136931 L102.997835,25.4894846 C103.039595,25.5407695 103.115023,25.5484912 103.166308,25.5067315 L103.180662,25.4929036 L103.192525,25.4768862 L107.534422,18.4604444 C108.056449,17.6168564 109.163499,17.3561798 110.007087,17.8782069 C110.137711,17.9590394 110.257291,18.056209 110.36298,18.1672482 L110.439597,18.2530896 L112.462317,20.6709493 C112.759372,21.0260339 112.712329,21.5546973 112.357245,21.8517521 C112.021887,22.1323038 111.531701,22.1059293 111.228026,21.8030021 L111.176442,21.7466798 L109.153722,19.3288201 C109.145508,19.3190018 109.135773,19.3105639 109.124888,19.3038279 C109.078022,19.2748264 109.018958,19.2820612 108.980433,19.3178242 L108.960043,19.3426437 L104.618146,26.3590856 C104.512897,26.5291659 104.379982,26.6804737 104.224884,26.8067646 C103.482138,27.4115603 102.401796,27.3244402 101.764368,26.6253068 L101.697802,26.5480615 L98.9489994,23.1722699 C98.9448829,23.1672144 98.9403603,23.1625035 98.9354769,23.1581841 C98.8941944,23.1216703 98.8347586,23.1188062 98.7907366,23.1475342 L98.7664415,23.1685455 L96.8920224,25.2877636 C96.7667848,25.4293573 96.6199816,25.5502949 96.4570325,25.6461116 C95.6303786,26.1321975 94.5741104,25.8815182 94.0503908,25.091804 L93.9981438,25.0081947 L90.4754445,19.0173742 C90.4629713,18.9961619 90.444266,18.9793072 90.4218735,18.9691033 C90.3717215,18.9462498 90.3140439,18.9608824 90.2803407,19.0012226 L90.2632476,19.0284174 L86.8311356,26.5601953 C86.7032104,26.8409273 86.5054277,27.0833732 86.2575183,27.2648264 L86.1622411,27.3299679 L82.0929175,29.9244046 C81.7025525,30.1732856 81.1843412,30.0585901 80.9354602,29.6682251 C80.7004059,29.299547 80.7896528,28.8168332 81.1291464,28.5546736 L81.1916397,28.5107677 L85.2609633,25.916331 C85.2739699,25.9080385 85.2851893,25.8973524 85.2940665,25.8849111 L85.3055562,25.8650129 L88.7376683,18.333235 Z" id="Path" fill="#FF9F43" fill-rule="nonzero"></path>
                        <circle id="Oval" fill="#FF9F43" cx="23.7105792" cy="24.1895808" r="9.8195328"></circle>
                    </g>
                    <g id="ElementCard26" transform="translate(145.000000, 274.000000)">
                        <g id="Rectangle">
                            <use fill="black" fill-opacity="1" filter="url(#filter-10)" xlink:href="#path-9"></use>
                            <use fill="#FFFFFF" fill-rule="evenodd" xlink:href="#path-9"></use>
                        </g>
                        <path d="M44.0681472,26.8240896 L68.0182272,26.8240896 C68.811863,26.8240896 69.455232,27.4674586 69.455232,28.2610944 C69.455232,29.0547302 68.811863,29.6980992 68.0182272,29.6980992 L44.0681472,29.6980992 C43.2745114,29.6980992 42.6311424,29.0547302 42.6311424,28.2610944 C42.6311424,27.4674586 43.2745114,26.8240896 44.0681472,26.8240896 Z" id="Rectangle" fill="#28C76F" opacity="0.454078311"></path>
                        <path d="M44.0681472,18.6810624 L58.4381952,18.6810624 C59.231831,18.6810624 59.8752,19.3244314 59.8752,20.1180672 C59.8752,20.911703 59.231831,21.555072 58.4381952,21.555072 L44.0681472,21.555072 C43.2745114,21.555072 42.6311424,20.911703 42.6311424,20.1180672 C42.6311424,19.3244314 43.2745114,18.6810624 44.0681472,18.6810624 Z" id="Rectangle" fill="#28C76F"></path>
                        <path d="M81.9092736,29.494747 L86.8191635,20.8770789 C87.4739621,19.7277992 88.9364565,19.326943 90.0857363,19.9817416 C90.0964147,19.9878257 90.1070462,19.9939918 90.1176298,20.0002395 L91.3326533,20.7174931 C92.1825784,21.2192215 93.2532509,21.148194 94.029451,20.5385897 L96.1758131,18.8529015 C96.9746863,18.2254906 98.0824479,18.1702754 98.9397518,18.715136 L100.3037,19.5819949 C101.420045,20.2914686 102.900168,19.9616539 103.609656,18.8453182 C103.634513,18.8062084 103.658229,18.7663854 103.680774,18.7258995 C104.665482,16.9576343 105.879881,15.8711618 107.32397,15.466482 C109.323853,14.9060507 111.601219,14.9060507 114.156067,15.466482 L114.156067,29.494747 L81.9092736,29.494747 Z" id="Path-146" fill="url(#linearGradient-11)"></path>
                        <path d="M81.9092736,29.494747 L87.2077936,25.279815 C88.0240065,24.6305239 89.1665632,24.584091 90.0327712,25.1650094 L90.3392073,25.3705193 C91.2008462,25.9483735 92.3365635,25.9057617 93.1524791,25.2649662 L95.2178099,23.6429175 C96.0166831,23.0155066 97.1244447,22.9602914 97.9817486,23.505152 L99.8682682,24.704132 C100.870453,25.3410814 102.188028,25.1475098 102.96467,24.2492306 C104.635421,22.3168073 106.268647,21.1270123 107.864349,20.6798459 C109.864232,20.1194146 111.961472,19.9782987 114.156067,20.256498 L114.156067,29.494747 L81.9092736,29.494747 Z" id="Path-146" fill="#28C76F"></path>
                        <circle id="Oval" fill="#28C76F" cx="23.7105792" cy="24.1895808" r="9.8195328"></circle>
                    </g>
                    <g id="Icon2" transform="translate(258.000000, 261.000000)">
                        <ellipse id="Oval" fill="#28C76F" cx="14.750503" cy="15.4572295" rx="14.5736609" ry="14.9993834"></ellipse>
                        <path d="M9.76526418,14.3283415 C9.33134442,13.8029232 8.55337292,13.7285225 8.02761619,14.162163 C7.50185947,14.5958035 7.4274109,15.3732742 7.86133066,15.8986926 L12.145899,21.0867271 C12.6624701,21.7122251 13.5886266,21.8007973 14.2145275,21.2845586 C14.3057627,21.2093084 14.3875714,21.1233236 14.4581772,21.0284711 L20.5980599,12.7800947 C21.0049363,12.2334933 20.8913812,11.4607591 20.3444277,11.0541447 C19.7974742,10.6475302 19.0242423,10.7610121 18.617366,11.3076136 L13.2383713,18.5338059 L9.76526418,14.3283415 Z" id="Path" fill="#FFFFFF"></path>
                    </g>
                    <g id="Men3.2" transform="translate(26.000000, 103.000000)">
                        <g id="LLeg" transform="translate(38.520694, 111.651381)">
                            <path d="M21.0986372,170.523406 C21.0986372,170.523406 20.9740882,178.416779 25.8655163,181.220422 C30.7563958,184.024611 38.3341314,189.234576 38.3341314,189.234576 L9.50735176,190.202461 L10.3292653,170.452359 L21.0986372,170.523406 Z" id="Path" fill="#F8CFCF"></path>
                            <path d="M8.50092744,179.221658 L8.03193757,192.026863 L14.7275325,192.026863 L15.1864416,190.377192 C15.1864416,190.377192 17.7073781,190.274757 19.1639896,190.987219 C20.7038135,191.740961 20.9106555,192.106365 20.9106555,192.106365 L42.1488125,192.150703 C42.1488125,192.150703 43.1964951,188.012002 36.7225779,185.018438 C30.2486608,182.02411 25.534882,177.774565 24.6393591,177.339596 C23.7374963,176.901569 21.9179206,176.653889 20.6364511,177.683596 C19.3549817,178.712538 18.3413766,181.41867 15.4376635,181.503524 C11.7002423,181.612839 9.55336494,177.055987 8.50092744,179.221658 Z" id="Path" fill="#4B4B4B"></path>
                            <line x1="26.6514043" y1="178.728451" x2="24.449562" y2="180.837842" id="Path-38" stroke="#FFFFFF" stroke-width="2" stroke-linecap="round"></line>
                            <line x1="29.8619306" y1="180.32741" x2="27.6600883" y2="182.4368" id="Path-38" stroke="#FFFFFF" stroke-width="2" stroke-linecap="round"></line>
                            <line x1="33.0724569" y1="181.926368" x2="30.8706146" y2="184.035758" id="Path-38" stroke="#FFFFFF" stroke-width="2" stroke-linecap="round"></line>
                            <path d="M-2.85152019e-14,0 C-2.85152019e-14,0 8.0084447,87.3298264 8.25754266,93.400559 C8.50664062,99.4712916 5.68535927,109.94806 5.74022667,121.303631 C5.77680493,128.874012 6.12027481,145.999808 6.77063631,172.68102 L24.4368395,173.051169 C29.38661,124.836278 31.8881973,97.113791 31.9416016,89.8837095 C32.0211593,79.0385872 32.7020636,1.04385122 32.7020636,1.04385122 L-2.85152019e-14,0 Z" id="Path" fill="#383838"></path>
                            <path d="M12.7340291,96.1189224 L12.7535449,96.3349852 C13.0194954,100.037036 10.6978758,112.217272 5.78868634,132.875692 L5.74022667,121.303631 L5.74022667,121.303631 C5.68633905,110.150838 8.40679772,99.8457421 8.26798383,93.7299717 L8.25754266,93.400559 C8.17359665,91.3547221 7.20842938,80.0803712 5.96551766,66.0298683 L6.54565058,68.0876816 C9.95181292,80.2765149 12.0145455,89.6205038 12.7340291,96.1189224 Z" id="Path" fill-opacity="0.192498907" fill="#FFFFFF" opacity="0.283551897"></path>
                        </g>
                        <g id="RLeg" transform="translate(10.726651, 111.213509)">
                            <polygon id="Path" fill="#F8CFCF" points="6.79159709 169.574056 3.40910069 190.034321 15.8782644 189.972018 16.2726826 169.25325"></polygon>
                            <path d="M3.2964521,181.211097 L3.20305933,184.034323 L3.20305933,184.034323 C1.95733154,185.414143 1.05970883,188.17416 0.510191174,192.314373 C0.510191174,195.207257 19.7802312,195.121352 20.7063286,192.314373 C20.0335068,187.805255 18.9714753,184.983843 17.5202341,183.850135 L17.5098064,181.051086 C17.5047635,179.697428 16.5938175,178.514832 15.2862733,178.164482 L13.6163828,177.717043 L13.6163828,177.717043 C11.7936364,175.062198 9.30951924,175.155986 7.18087398,178.049005 L5.66012352,178.37819 C4.31606146,178.669129 3.34191875,179.836659 3.2964521,181.211097 Z" id="Path" fill="#4B4B4B"></path>
                            <line x1="7.88908637" y1="180.260272" x2="12.9367965" y2="180.260272" id="Path-39" stroke="#FFFFFF" stroke-width="2" stroke-linecap="round"></line>
                            <line x1="7.88908637" y1="182.65871" x2="12.9367965" y2="182.65871" id="Path-39" stroke="#FFFFFF" stroke-width="2" stroke-linecap="round"></line>
                            <line x1="8.69171795" y1="185.057147" x2="12.1341649" y2="185.057147" id="Path-39" stroke="#FFFFFF" stroke-width="2" stroke-linecap="round"></line>
                            <path d="M13.0802543,1.14709702 C13.0802543,1.14709702 7.50886241,61.067514 7.58457942,72.5422262 C7.66029642,84.0174848 9.29918545,89.0569361 6.96677257,97.2886047 C5.41146487,102.776384 3.97069938,127.42163 2.64447611,171.224344 L19.8943142,173.109523 C27.2410059,126.238131 31.3137863,99.5531971 32.1126556,93.0547223 C33.3109595,83.3070101 48.1218635,0.320213832 48.1218635,0.320213832 L13.0802543,1.14709702 Z" id="Path" fill="#2E2E2E"></path>
                            <path d="M17.7392127,41.8159643 L16.6870866,45.6192114 C13.606298,56.8433585 10.7626389,68.7129393 11.5070153,85.6684427 L11.5433334,86.4426655 C11.7266235,90.1155848 9.38661767,111.431907 4.52331603,150.391633 L4.06073179,153.129869 C3.58369636,155.922587 3.15910177,158.305485 2.786948,160.278566 L2.89264572,156.827973 C3.51276497,137.782924 5.1806679,103.590732 6.96677257,97.2886047 C9.29918545,89.0569361 7.66029642,84.0174848 7.58457942,72.5422262 C7.53157752,64.5099277 10.245659,32.7392338 11.878878,14.3997243 L13.0802543,1.14709702 L20.3617145,0.975528916 L20.3793199,3.0167389 C20.5076249,21.857059 19.6275892,34.7901341 17.7392127,41.8159643 L17.7392127,41.8159643 Z" id="Path" fill-opacity="0.192498907" fill="#FFFFFF" opacity="0.283551897"></path>
                        </g>
                        <g id="LArm" transform="translate(56.184211, 15.190104)">
                            <g id="Group-6" transform="translate(51.368421, 0.000000)">
                                <path d="M1.03206307,23.3288289 C1.03206307,23.3288289 -0.404434259,15.3551597 0.112059162,13.7404903 C0.553230626,12.3450045 4.72283897,10.3326967 4.72283897,10.3326967 C4.72283897,10.3326967 11.9752674,-1.07877666 13.5624087,0.0830564408 C14.8536422,1.02517019 9.78555053,9.43827808 9.78555053,9.43827808 C9.78555053,9.43827808 14.4070906,14.2678168 14.3425289,16.4264255 C14.2779673,18.5855702 6.79957294,25.3438162 6.79957294,25.3438162 L1.03206307,23.3288289 Z" id="Path" fill="#F8CFCF"></path>
                                <path d="M4.87886303,10.2180139 C4.87886303,10.2180139 8.09080649,9.78286235 8.60191977,10.7785662 C9.03771109,11.6268973 6.36916175,14.0330522 6.36916175,14.7093991 C6.36916175,15.385746 6.4073052,20.5052717 6.62202832,20.5517905 C6.83675145,20.5983094 9.83935193,12.1976317 9.19911529,10.4205844 C8.67186159,8.9618622 4.87886303,10.2180139 4.87886303,10.2180139 Z" id="Path" fill="#F28585"></path>
                            </g>
                            <path d="M14.0850634,33.4739801 C5.672246,26.1539051 -6.96091792,39.3507477 7.12573658,51.6195519 C12.4999977,56.2999403 29.3810486,67.9753029 33.5191474,70.5423025 C40.1070752,74.6291713 45.5208409,70.9412613 47.7457137,64.5114657 C49.6326034,59.0599391 60.9206289,29.8780907 59.4842006,25.5917425 C58.5476142,22.796298 53.5204285,20.076195 50.997077,22.2759339 C47.3094396,25.4911049 36.0293306,53.6909368 36.0293306,53.6909368 C36.0293306,53.6909368 23.6506447,41.7969173 14.0850634,33.4739801 Z" id="Path" fill="#877BFF"></path>
                            <path d="M36.0293306,53.6909368 C38.4924226,56.6998449 39.8128979,57.9745093 39.9907564,57.51493 C40.1686149,57.0553507 39.1919753,54.8922286 37.0608376,51.0255638 L36.0293306,53.6909368 Z" id="Path" fill-opacity="0.159855769" fill="#000000"></path>
                            <path d="M50.0172034,24.0839283 C52.9523106,22.7151624 56.1588694,24.4072305 57.9261987,27.1226867" id="Path-41" stroke="#5386BF" stroke-linecap="round"></path>
                        </g>
                        <g id="Head" transform="translate(33.383738, 0.000000)">
                            <path d="M0.66324056,40.3922692 C0.66324056,40.3922692 5.43959696,39.2753712 5.60529649,31.4798247 C5.77099602,23.6842783 5.65467714,21.0232775 5.65467714,21.0232775 L16.9782097,20.8341819 C16.9782097,20.8341819 17.0925124,29.5221937 17.0945286,32.6646779 C17.098918,39.5060022 22.1997597,41.3544632 22.1997597,41.3544632 C22.1997597,41.3544632 21.7758146,48.8349247 12.242605,49.3688738 C4.79929449,49.7864143 0.66324056,40.3922692 0.66324056,40.3922692 Z" id="Path" fill="#F8C5C5"></path>
                            <g id="Head1" transform="translate(0.470782, 0.000000)">
                                <path d="M26.5956053,12.6195246 L26.3428485,19.9869792 C28.4826836,17.4819234 29.9278675,14.3761694 30.3560064,10.3932292 L26.5956053,12.6195246 Z" id="Path" fill="url(#linearGradient-12)"></path>
                                <path d="M4.14415833,17.0827977 C-0.549198479,16.9018999 0.216342554,23.7456135 5.0918591,23.7363226 C5.0918591,23.7363226 10.3315758,34.2304726 18.5578225,34.2577755 C22.5203456,34.270819 23.8141188,30.7550625 25.0019978,28.2869829 C26.1898769,25.8189033 27.0617197,22.1271677 27.1341447,19.8667653 C27.2120564,17.4566166 27.2219325,9.53864992 27.2219325,9.53864992 L3.96144991,9.52826606 L4.14415833,17.0827977 Z" id="Path" fill="#F8CFCF"></path>
                                <path d="M27.2219325,13.1717716 L10.8633387,13.1717716 C10.6915327,16.1163276 9.7096905,18.5612231 7.21645131,20.3647952 C7.2871258,24.6784041 8.73595299,27.8185097 11.2480387,30.0206004 C13.4350218,23.7774056 26.813704,25.4854819 25.8406684,29.559075 C23.7965167,38.1168724 4.63562535,38.310951 5.79782977,18.6144031 C5.03362776,17.5763646 2.29971658,17.3822861 1.39979466,18.4203245 C-0.136983015,14.1169542 0.518864819,8.0294636 4.9635054,7.14894237 C1.47454107,-2.02092221 48.9152435,-3.9607467 27.2219325,13.1717716 Z" id="Path" fill="#424242"></path>
                                <path d="M16.8361311,28.5355457 C16.8361311,28.5355457 18.4914263,30.5938937 21.6427967,29.6726482" id="Path" stroke="#CC6969" stroke-linecap="round" transform="translate(19.239464, 29.222741) rotate(-15.000000) translate(-19.239464, -29.222741) "></path>
                                <path d="M4.61513429,21.1056687 C4.90909896,20.0468724 4.77763523,19.121754 3.72179584,18.6982014" id="Path-8" stroke="#DE6767" stroke-linecap="round" transform="translate(4.236606, 19.901935) rotate(-13.000000) translate(-4.236606, -19.901935) "></path>
                            </g>
                        </g>
                        <g id="Body" transform="translate(16.855263, 39.174479)">
                            <path d="M19.0802702,1.81780517e-13 L32.7446133,8.90521947 L38.9058283,1.715857 C38.9058283,1.715857 51.8862205,5.75189387 54.2941152,10.4706553 C57.7688962,17.2801981 53.1907794,71.8380252 55.1865891,75.1302769 C59.4392769,82.1457031 53.7850201,86.9614851 35.0655076,88.7309612 C16.3459952,90.5004373 -0.261337201,89.0514112 2.75224973,79.6894134 C5.76661596,70.326632 -5.86401861,9.22464515 4.38972315,5.85871876 C7.59366565,4.80698224 19.0802702,1.81780517e-13 19.0802702,1.81780517e-13 Z" id="Path" fill="#7367F0"></path>
                            <path d="M9.85879845,16.8448286 C10.6863018,18.3124528 10.259727,23.3971275 8.57907413,32.0988527 C7.14723433,39.5123267 8.78437799,47.1812924 13.1069325,53.3681697 L13.3498347,53.7103493 C14.8116342,55.7372827 16.1592463,58.406089 17.3926708,61.7167682 C20.4178339,69.8367171 13.4402665,76.605519 18.7874329,89.3081764 L18.1407039,89.2775222 C7.64929052,88.7328002 0.714312332,86.0204621 2.75224973,79.6894134 C5.22376158,72.0127665 -2.14988623,29.5542343 0.765874161,12.6553101 C5.8137816,13.6498939 8.84462411,15.0461327 9.85879845,16.8448286 Z" id="Path" fill-opacity="0.159855769" fill="#000000"></path>
                            <path d="M19.0802702,0 L31.3026316,7.99557547 C29.5108985,10.0844107 28.5500796,12.5149842 28.1872972,15.1901042 C23.4901365,11.5054458 18.6073332,6.35670119 17.0944198,0.819916061 L19.0802702,0 Z" id="Path" fill="#5E54C7"></path>
                            <path d="M33.7105263,7.78738055 C35.7773251,9.18957434 37.4259597,11.6719664 38.768143,14.4944926 C40.3770913,11.2508351 40.9933267,6.96708557 40.9933267,2.39949313 L38.9749985,1.59895833 L33.7105263,7.78738055 Z" id="Path" fill="#5E54C7"></path>
                            <path d="M31.3026316,7.99479167 L31.4610304,8.08353824 C32.1936793,8.49402172 33.1090858,8.37350375 33.7105263,7.78738055 L33.7105263,7.78738055 L33.7105263,7.78738055 C38.3186567,24.7333558 41.5594776,43.3855626 42.5394737,62.341693 L37.7303185,70.3541667 L32.1052632,62.8553732 C32.8379705,43.1541329 32.8330975,23.9446807 31.3026316,7.99479167 Z" id="Path" fill="url(#linearGradient-13)"></path>
                        </g>
                        <g id="RArm" transform="translate(0.000000, 45.466168)">
                            <g id="Example-Book-Back" transform="translate(73.338740, 56.011543) rotate(6.000000) translate(-73.338740, -56.011543) translate(59.838740, 43.011543)">
                                <g id="Group-3" transform="translate(0.000000, -0.000000)">
                                    <path d="M2.56384961,0.743564597 L13.4059549,1.18328454 C14.7268559,1.23685592 15.7701053,2.32327363 15.7701053,3.64526059 L15.7701053,22.4545427 C15.7701053,23.8153723 14.6669349,24.9185427 13.3061053,24.9185427 C13.2728118,24.9185427 13.2395218,24.9178679 13.2062557,24.9165187 L2.36415039,24.4767988 C1.04324933,24.4232274 6.05985919e-16,23.3368097 0,22.0148227 L0,3.20554064 C-1.66653564e-16,1.84471102 1.10317038,0.741540644 2.464,0.741540644 C2.49729346,0.741540644 2.5305835,0.742215434 2.56384961,0.743564597 Z" id="Rectangle" fill="#6182EC" fill-rule="nonzero"></path>
                                    <path d="M3.96765127,0.239937277 L15.5903158,1.27916667 L15.5903158,1.27916667 L23.280508,0.338136166 C24.6312623,0.172847591 25.8602578,1.13385737 26.0255463,2.48461159 C26.0376972,2.58390923 26.0437895,2.68385471 26.0437895,2.78389303 L26.0437895,21.5604679 C26.0437895,22.8055552 25.1149397,23.8549945 23.8790709,24.0062248 L15.5903158,25.0205 L15.5903158,25.0205 L3.52876979,23.9420284 C2.25804909,23.8284082 1.28421053,22.7636097 1.28421053,21.4878195 L1.28421053,2.69414627 C1.28421053,1.33331664 2.3873809,0.230146266 3.74821053,0.230146266 C3.82146662,0.230146266 3.89468627,0.233413182 3.96765127,0.239937277 Z" id="Rectangle" fill="#96EFFA"></path>
                                    <path d="M5.57486682,5.24862597 L10.7222352,5.64302225 C11.5560342,5.70690873 12.2,6.40210333 12.2,7.23834622 L12.2,9.1456334 C12.2,10.029289 11.4836556,10.7456334 10.6,10.7456334 C10.5592102,10.7456334 10.5184353,10.7440736 10.4777648,10.7409574 L5.33039633,10.3465611 C4.49659738,10.2826746 3.85263158,9.58748001 3.85263158,8.75123712 L3.85263158,6.84394994 C3.85263158,5.96029434 4.56897598,5.24394994 5.45263158,5.24394994 C5.49342137,5.24394994 5.53419624,5.24550976 5.57486682,5.24862597 Z" id="Rectangle" fill="#74CFDB" fill-rule="nonzero"></path>
                                    <path d="M15.5684211,1.27916667 L15.8947368,1.27916667 C16.3365646,1.27916667 16.6947368,1.63733887 16.6947368,2.07916667 L16.6947368,24.14375 C16.6947368,24.5855778 16.3365646,24.94375 15.8947368,24.94375 L15.5684211,24.94375 C15.1265933,24.94375 14.7684211,24.5855778 14.7684211,24.14375 L14.7684211,2.07916667 C14.7684211,1.63733887 15.1265933,1.27916667 15.5684211,1.27916667 Z" id="Rectangle" fill="#EAEFFF" fill-rule="nonzero"></path>
                                    <path d="M16.2105263,1.27916667 L16.5368421,1.27916667 C16.9786699,1.27916667 17.3368421,1.63733887 17.3368421,2.07916667 L17.3368421,24.14375 C17.3368421,24.5855778 16.9786699,24.94375 16.5368421,24.94375 L16.2105263,24.94375 C15.7686985,24.94375 15.4105263,24.5855778 15.4105263,24.14375 L15.4105263,2.07916667 C15.4105263,1.63733887 15.7686985,1.27916667 16.2105263,1.27916667 Z" id="Rectangle" fill="#7AD2DD" fill-rule="nonzero"></path>
                                </g>
                            </g>
                            <path d="M48.9698539,53.2133633 C48.9698539,53.2133633 53.1376789,52.378551 54.8434902,51.0447834 C56.5487207,49.7110159 61.714361,48.7682292 61.714361,48.7682292 L60.0619833,52.2347746 C60.0619833,52.2347746 72.7222743,51.0510346 73.0219674,52.2950129 C73.3222413,53.5389913 69.6602936,54.8915123 69.6602936,54.8915123 C69.6602936,54.8915123 67.8545847,58.2512199 66.1063749,60.1987365 C64.4522549,62.0416884 56.2345075,61.8223299 53.3537367,60.6721188 C50.8644254,59.6787546 48.1578947,60.1754367 48.1578947,60.1754367 L48.9698539,53.2133633 Z" id="Path" fill="#F8CFCF"></path>
                            <path d="M15.4493471,4.77264317 C19.9764557,-4.97233643 35.47767,1.59354237 31.5711116,12.0326011 C27.7869075,22.1459344 18.6185661,45.7577397 18.6185661,45.7577397 C18.6185661,45.7577397 47.6719481,49.4319866 49.9368741,51.1453236 C52.9584214,53.4308659 51.0907354,59.9535697 48.5223927,61.1149225 C46.3496439,62.0970171 30.2093029,62.6714085 14.4173698,61.431357 C6.60480174,60.8181627 0.827265247,57.4745597 0.0212632427,48.7903734 C-0.543322232,42.7092569 11.087938,14.1601994 15.4493471,4.77264317 Z" id="Path" fill="#877BFF"></path>
                            <path d="M18.6295396,45.7522745 C17.0197674,48.800375 16.4449363,50.3555277 16.9050463,50.4177324 C17.3651563,50.4799372 18.7646443,49.0362744 21.1035104,46.0867441 L18.6295396,45.7522745 Z" id="Path" fill-opacity="0.159855769" fill="#000000"></path>
                            <path d="M47.7419135,50.6433753 C48.7365817,53.4602502 48.2241089,56.8219994 47.0645756,59.2254879" id="Path-40" stroke="#5386BF" stroke-linecap="round" transform="translate(47.667579, 54.934432) rotate(2.000000) translate(-47.667579, -54.934432) "></path>
                        </g>
                    </g>
                    <g id="Example-Paper" transform="translate(378.830750, 198.840931) scale(-1, 1) rotate(32.000000) translate(-378.830750, -198.840931) translate(363.265213, 179.640931)">
                        <path d="M-2.90395363e-13,-2.91038305e-13 L26.8206186,-2.91038305e-13 C26.8206186,6.4 26.8206186,12.8 26.8206186,19.2 C26.8206186,25.6 28.0977909,32 30.6521355,38.4 L3.83151694,38.4 C1.27717231,32 -2.90395363e-13,25.6 -2.90395363e-13,19.2 C-2.90395363e-13,12.8 -2.90395363e-13,6.4 -2.90395363e-13,-2.91038305e-13 Z" id="Rectangle" fill="#E8FFFF"></path>
                        <line x1="5.5628456" y1="7.81919815" x2="19.5088412" y2="7.81912303" id="Path-4" stroke-opacity="0.115767045" stroke="#000000" stroke-width="0.8" stroke-linecap="round"></line>
                        <line x1="5.94484786" y1="12.9648203" x2="19.8908435" y2="12.9647452" id="Path-4" stroke-opacity="0.115767045" stroke="#000000" stroke-width="0.8" stroke-linecap="round"></line>
                        <line x1="6.32685012" y1="18.1104425" x2="20.2728457" y2="18.1103673" id="Path-4" stroke-opacity="0.115767045" stroke="#000000" stroke-width="0.8" stroke-linecap="round"></line>
                        <line x1="6.70885238" y1="23.2560646" x2="20.654848" y2="23.2559895" id="Path-4" stroke-opacity="0.115767045" stroke="#000000" stroke-width="0.8" stroke-linecap="round"></line>
                    </g>
                    <g id="Wom4.6" transform="translate(368.000000, 135.000000)">
                        <g id="RLeg" transform="translate(77.917345, 94.809122)">
                            <path d="M29.293338,157.681984 C29.2290354,161.381917 29.196884,163.827559 29.196884,165.018911 C29.196884,166.387303 29.2523679,170.439695 29.1015415,171.062849 C28.9600155,171.647577 28.8170021,172.655868 28.6725011,174.08772 L40.3140484,174.397746 C38.3521697,170.583847 37.3141609,168.424649 37.200022,167.920151 C37.0858831,167.415653 36.5955176,164.002931 35.7289254,157.681984 L29.293338,157.681984 Z" id="Path" fill="#FFE2E2"></path>
                            <path d="M38.1746307,172.299376 C37.917734,172.07621 36.3485133,168.537135 33.5689993,168.537135 C30.4632577,168.537135 29.6188778,172.185648 29.5136346,172.299376 C29.3415384,172.485326 28.5458103,172.411238 28.3522944,172.764863 C27.4125047,174.482207 26.9152173,177.966439 27.7765696,179.226946 C28.6918744,180.573242 41.1513326,180.59593 41.8403823,179.328008 C42.5618999,177.989544 40.8578772,174.3416 39.5450213,172.764863 C39.2111237,172.363853 38.3085351,172.415699 38.1746307,172.299376 Z" id="Path" fill="#2E2E2E"></path>
                            <path d="M0,2.47914063 L22.743782,0 L23.0781829,0.311380615 C24.6991748,1.86012375 31.7436643,9.05270084 33.767798,18.8837344 C37.5892034,37.4439531 32.474778,71.7234531 32.5879056,79.2402344 C32.695891,86.7570156 36.2382284,91.2924045 37.7102779,101.920516 C39.1823275,112.548627 39.3213328,160.047172 39.3213328,160.047172 C35.418432,162.366453 31.9842469,162.532484 27.3305904,159.907953 L0,2.47914063 Z" id="Path" fill="#26553B"></path>
                            <path d="M20.3161267,119.501519 L2.26752436e-14,2.47914063 L12.6456002,1.10061781 C13.2090315,41.7539244 21.073161,96.7061183 20.3161267,119.501519 Z" id="Path" fill-opacity="0.192498907" fill="#FFFFFF"></path>
                        </g>
                        <g id="LLeg" transform="translate(54.525290, 98.029216)">
                            <path d="M28.050854,154.033156 L19.7763364,154.154844 C20.1040914,159.342731 19.3097128,162.81537 17.3932005,164.572762 L6.56512745,170.426383 C5.71758758,171.13863 5.22592026,173.346636 6.96202981,173.661562 C12.3358696,174.636363 27.7283378,172.323026 27.7283378,172.323026 L28.050854,154.033156 Z" id="Path" fill="#FFE2E2"></path>
                            <path d="M27.8070043,165.171024 C27.2511801,165.200813 26.5456795,168.350219 23.3920554,169.965323 C19.7769655,171.816764 14.519433,171.112145 12.2341724,171.37429 C11.1302416,171.500923 10.3048941,170.472781 9.75812992,168.289863 C4.15877788,171.178601 1.11063259,173.30904 0.613694068,174.68118 C-0.255331291,177.071102 5.37019381,177.249508 9.39136441,177.075227 C13.4176772,176.90043 16.869626,175.091102 18.8236475,175.135961 C20.7828112,175.181336 21.2456058,176.400274 22.7111219,176.735946 C24.1972067,177.077289 27.9149897,177.025727 28.2595146,175.957867 C28.6194659,174.848758 28.9948437,165.106571 27.8070043,165.171024 Z" id="Path" fill="#2E2E2E"></path>
                            <path d="M12.1101522,0.867796875 L37.6494004,0 L37.8402275,0.354268164 C39.0794682,2.71113738 45.8697858,16.510687 43.7730495,32.1958371 C40.8299808,54.2121848 31.7528483,80.02229 31.3865589,83.9651406 C30.7335043,90.9948185 32.0396134,96.0848906 32.5751774,103.345656 C33.1107413,110.606422 29.7351458,156.2715 29.7351458,156.2715 C25.9453725,158.557266 21.4356965,159.005859 15.702186,156.340594 C12.7834824,114.989264 11.3113837,91.0415228 11.2858899,84.4973707 C11.2476493,74.6811426 12.1101522,0.867796875 12.1101522,0.867796875 Z" id="Path" fill="#31694A"></path>
                            <path d="M17.3653435,24.6811351 L17.1939987,26.3123675 C15.4312929,43.5133099 13.9422386,80.0418115 14.5706771,85.6753704 L14.6586492,86.389417 C15.3624467,92.6044624 15.1748603,108.205896 14.0958899,133.193719 L13.1388663,118.851613 C11.9801314,101.090038 11.3647898,89.8647129 11.2927229,85.1752785 L11.2858899,84.4973707 C11.2476493,74.6811426 12.1101522,0.867796875 12.1101522,0.867796875 L17.4962985,0.684978757 C18.0719924,10.1229887 18.0283408,18.1217075 17.3653435,24.6811351 Z" id="Path" fill-opacity="0.192498907" fill="#FFFFFF"></path>
                        </g>
                        <g id="Head" transform="translate(74.091961, 10.694514)" fill="url(#linearGradient-14)">
                            <path d="M2.28201581,6.67470246 C-0.860468391,7.01944152 -0.637680332,12.5592525 3.1877079,12.8484946 C3.96957673,18.1888931 6.75794518,20.7332837 10.1574565,21.0276993 L9.9689074,29.1053165 L25.0059288,29.0963806 C25.0059288,29.0963806 20.7715486,23.390079 20.982611,15.5781884 C21.1936734,7.76582746 20.8409647,0.427071208 20.8409647,0.427071208 L1.36459804,0.777454021 L2.28201581,6.67470246 Z" id="Path"></path>
                        </g>
                        <g id="RArm" transform="translate(97.333333, 32.800000)">
                            <path d="M35.3808672,23.0349029 C35.3808672,23.0349029 34.7232906,18.5434185 34.9320079,15.5879748 C35.3180175,10.1220029 34.5797682,5.51105917 35.7729741,4.79383261 C37.3034109,3.87390136 38.256012,12.5161819 38.256012,12.5161819 C38.256012,12.5161819 45.6286504,-1.59771583 47.4508222,0.146202923 C49.272994,1.88965136 46.2698094,8.67438105 46.8725098,10.8674482 C47.4752101,13.0600451 41.4524281,23.6674732 41.4524281,23.6674732 L30.6033025,51.6552614 L26.8572357,36.4372306 L35.3808672,23.0349029 Z" id="Path" fill="#FFE2E2"></path>
                            <path d="M3.07103724,28.829617 C3.07103724,28.829617 16.3102763,49.7185467 19.2351317,53.7698185 C22.3030406,58.0181514 27.7212462,59.8994014 31.5663336,53.1217279 C32.0350323,52.2953852 32.8737823,50.7275068 34.0825837,48.4180928 C33.0484928,42.1944377 30.9462195,37.0573257 26.6114602,34.1910737 C25.3370008,36.0654963 24.6997711,37.0027076 24.6997711,37.0027076 C24.6997711,37.0027076 15.9087888,20.8474732 13.1682611,17.0355904 C5.77779491,6.75597011 -5.48261715,15.9867935 3.07103724,28.829617 Z" id="Path" fill="#88CEA7"></path>
                        </g>
                        <g id="Body" transform="translate(63.146106, 38.035778)">
                            <path d="M38.9514581,3.32851306 C42.3061888,8.27019777 47.8972859,25.0420955 48.2143941,28.8152342 C48.5716728,33.167562 43.9185429,40.1007317 43.8419831,46.4013506 C43.77393,52.7028278 47.3126907,73.2759216 46.2493612,75.0482657 C45.5816074,76.170245 29.1823289,81.7991074 15.7761596,80.3416393 C4.20074703,79.0832042 -0.413027936,71.5639553 0.160406321,70.2118691 C1.72562738,66.5212736 8.99029468,55.7497148 8.25021733,50.7210639 C7.51864662,45.6932713 3.27021598,27.1330092 1.1605702,20.8160831 C-0.940568934,14.4991569 -0.239946912,7.86707291 3.68161237,5.14890644 C5.62202008,3.80394369 10.7998705,-0.0171052403 20.020699,5.76296206e-05 C29.2415274,0.017928702 38.6913019,2.94529004 38.9514581,3.32851306 Z" id="Path" fill="#6BCA95" transform="translate(24.116980, 40.290526) scale(-1, 1) translate(-24.116980, -40.290526) "></path>
                            <path d="M4.41347,14.0164048 L4.51673056,13.9642163 C10.7296732,10.8542624 14.4616021,10.7168941 15.7125172,13.5521113 C17.282083,17.1095551 13.3773869,26.9678439 3.99842892,43.1269777 C2.86977544,37.8037191 -0.276581436,32.4228664 0.0195658879,28.8152342 C0.203082496,26.6316464 2.1529419,20.0945674 4.41347,14.0164048 Z" id="Path" fill-opacity="0.159855769" fill="#000000"></path>
                        </g>
                        <g id="LArm" transform="translate(0.000000, 40.800000)">
                            <path d="M18.2183843,40.6511071 C18.2183843,40.6511071 8.93445563,41.1943196 7.3336648,39.8750931 C5.73287397,38.5563368 -0.643554803,31.9893587 0.052951024,30.4462634 C0.749456851,28.9036384 8.16290229,32.1666665 8.65866435,31.1855946 C9.29607272,29.9251571 6.00584485,25.4284993 8.88895685,25.1665352 C9.63142737,25.0988102 10.1558001,27.8665993 12.2462556,29.6895306 C14.3362422,31.5129321 18.5837567,34.7571493 18.5837567,34.7571493 L50.6107222,29.6895306 L53.6005978,39.967709 L18.2183843,40.6511071 Z" id="Path" fill="#FFE2E2"></path>
                            <path d="M69.5021184,2.77777899 C62.1684045,9.73464149 51.7844038,26.1621868 49.5720011,27.6093384 C49.2475506,27.8215882 47.6864468,28.4878343 44.8886897,29.6080765 C43.1231562,34.3191992 46.1081382,39.6572652 50.4470725,41.9428297 C53.6200603,41.4806612 55.5796572,41.1411927 56.325863,40.9244243 C62.0414321,39.2646915 72.0460566,24.1336843 76.2035832,19.3040915 C87.6347348,6.02508863 76.8358323,-4.1786132 69.5021184,2.77777899 Z" id="Path" fill="#88CEA7"></path>
                        </g>
                        <path d="M73.3322137,39.2087539 C81.0272051,26.9234636 82.6665404,11.2811996 88.1224024,6.03086351 C92.4532551,1.86315691 99.3275601,3.0193074 99.3275601,3.0193074 C99.3275601,3.0193074 105.281355,-1.98815267 111.119732,3.0193074 C116.958108,8.02676748 117.052776,25.4409465 112.992934,36.385937 C108.933092,47.3309275 104.673182,60 88.7031191,60 C79.7547165,60 64.6409609,53.0846062 73.3322137,39.2087539 Z" id="Path" fill="#28211D" transform="translate(93.266801, 30.396885) scale(-1, 1) translate(-93.266801, -30.396885) "></path>
                    </g>
                    <g id="Group-28" transform="translate(481.000000, 79.000000)">
                        <path d="M7.8,3.13793103 L42.2842105,3.13793103 C46.5920316,3.13793103 50.0842105,6.63010999 50.0842105,10.937931 L50.0842105,54.9586207 C50.0842105,59.2664417 46.5920316,62.7586207 42.2842105,62.7586207 L7.8,62.7586207 C3.49217895,62.7586207 5.27555926e-16,59.2664417 0,54.9586207 L0,10.937931 C-5.27555926e-16,6.63010999 3.49217895,3.13793103 7.8,3.13793103 Z" id="Rectangle" fill="#FF9F43"></path>
                        <path d="M9.37368421,7.32183908 L40.7105263,7.32183908 C43.582407,7.32183908 45.9105263,9.64995838 45.9105263,12.5218391 L45.9105263,53.3747126 C45.9105263,56.2465933 43.582407,58.5747126 40.7105263,58.5747126 L9.37368421,58.5747126 C6.50180351,58.5747126 4.17368421,56.2465933 4.17368421,53.3747126 L4.17368421,12.5218391 C4.17368421,9.64995838 6.50180351,7.32183908 9.37368421,7.32183908 Z" id="Rectangle" fill="#FFFFFF"></path>
                        <g id="Group-29" transform="translate(34.432895, 42.885057)">
                            <ellipse id="Oval" fill="#28C76F" cx="13.0427632" cy="13.0747126" rx="13.0427632" ry="13.0747126"></ellipse>
                            <path d="M16.5691511,8.92879901 C16.9337001,8.30600259 17.732868,8.09737565 18.3541426,8.4628177 C18.9339988,8.80389694 19.1539491,9.52450494 18.8843067,10.1254267 L18.8189852,10.2521817 L14.446206,17.7226475 C14.3524947,17.8827442 14.240218,18.0311647 14.111717,18.1648147 C13.2547705,19.0560984 11.8659112,19.1234301 10.929137,18.3486418 L10.7921345,18.2261054 L7.43524319,14.9827083 C6.9165982,14.4815984 6.90139057,13.6538938 7.401276,13.1339783 C7.86783574,12.6487239 8.61820053,12.6030936 9.13785316,13.0065872 L9.24548848,13.0999279 L12.3629659,16.1128061 L16.5691511,8.92879901 Z" id="Path" fill="#FFFFFF"></path>
                        </g>
                        <path d="M11.4801875,18.8275862 L38.604023,18.8275862 C39.1817001,18.8275862 39.65,19.2958861 39.65,19.8735632 C39.65,20.4512404 39.1817001,20.9195402 38.604023,20.9195402 L11.4801875,20.9195402 C10.9025104,20.9195402 10.4342105,20.4512404 10.4342105,19.8735632 C10.4342105,19.2958861 10.9025104,18.8275862 11.4801875,18.8275862 Z" id="Rectangle" fill="#467FFF" fill-rule="nonzero" opacity="0.339960007"></path>
                        <path d="M11.4801875,27.1954023 L38.604023,27.1954023 C39.1817001,27.1954023 39.65,27.6637022 39.65,28.2413793 C39.65,28.8190565 39.1817001,29.2873563 38.604023,29.2873563 L11.4801875,29.2873563 C10.9025104,29.2873563 10.4342105,28.8190565 10.4342105,28.2413793 C10.4342105,27.6637022 10.9025104,27.1954023 11.4801875,27.1954023 Z" id="Rectangle" fill="#467FFF" fill-rule="nonzero" opacity="0.339960007"></path>
                        <path d="M11.4801875,35.5632184 L38.604023,35.5632184 C39.1817001,35.5632184 39.65,36.0315183 39.65,36.6091954 C39.65,37.1868726 39.1817001,37.6551724 38.604023,37.6551724 L11.4801875,37.6551724 C10.9025104,37.6551724 10.4342105,37.1868726 10.4342105,36.6091954 C10.4342105,36.0315183 10.9025104,35.5632184 11.4801875,35.5632184 Z" id="Rectangle" fill="#467FFF" fill-rule="nonzero" opacity="0.339960007"></path>
                        <rect id="Rectangle" fill="#FF9F43" x="11.4776316" y="0" width="27.1289474" height="11.5057471"></rect>
                    </g>
                    <g id="Icon17" transform="translate(258.000000, 199.000000)">
                        <circle id="Oval" fill="#FF9F43" cx="14.76225" cy="14.76225" r="14.76225"></circle>
                        <path d="M18.8116588,7.45662074 C19.0417766,7.22786173 19.4049026,7.214597 19.6504522,7.41608453 L19.6979202,7.45924518 L24.6142502,12.4047976 C24.8415,12.636406 24.8523907,12.9996109 24.6493023,13.2438381 L24.6058322,13.2910229 L19.6923809,18.1120099 C19.5752155,18.2269705 19.4176226,18.2913725 19.2534773,18.2913725 C18.9277284,18.2913725 18.6600288,18.0428345 18.6296618,17.7250421 L18.6267931,17.6646883 L18.6265895,15.6560211 L10.4371731,15.613102 C10.1126401,15.6113943 9.84678857,15.3632307 9.81663488,15.0465613 L9.81378636,14.9864265 L9.81336316,13.3206632 L5.86482632,17.3732211 L9.81336316,21.3102474 L9.81378636,19.6886049 C9.81378636,19.3628561 10.0623243,19.0951564 10.3801167,19.0647895 L10.4404706,19.0619207 L16.2199428,19.0619207 C16.5142525,19.0619207 16.7528376,19.3005058 16.7528376,19.5948154 C16.7528376,19.8707307 16.5431436,20.0976694 16.2744282,20.1249589 L16.2199428,20.1277102 L10.8791526,20.1276474 L10.8795758,22.3687665 C10.8795758,22.6945153 10.6310379,22.962215 10.3132455,22.9925819 L10.2528916,22.9954507 C10.1077324,22.9954507 9.96775537,22.9450883 9.85633074,22.8540241 L9.81039358,22.8125328 L4.80516393,17.8216084 C4.57727813,17.5943739 4.56053929,17.2349084 4.75671899,16.9882702 L4.79879437,16.9405196 L9.80402402,11.8031543 C10.0455506,11.5552515 10.4423114,11.5500826 10.6902141,11.7916092 C10.7961545,11.8948247 10.8616793,12.0316577 10.8764052,12.1774954 L10.8795758,12.2404768 L10.8791526,14.5493053 L19.0691958,14.5927187 C19.3937288,14.5944264 19.6595803,14.84259 19.689734,15.1592594 L19.6925825,15.2193943 L19.6923789,16.6186421 L23.5437158,12.8393526 L19.6923789,8.96542105 L19.6925825,10.5097961 C19.6925825,10.835545 19.4440445,11.1032446 19.1262522,11.1336116 L19.0658983,11.1364803 L13.3894596,11.1364803 C13.0951499,11.1364803 12.8565648,10.8978952 12.8565648,10.6035856 C12.8565648,10.3276703 13.0662588,10.1007317 13.3349742,10.0734421 L13.3894596,10.0706909 L18.6265895,10.0704316 L18.6267931,7.90106367 C18.6267931,7.7550698 18.6777347,7.6143498 18.7697418,7.50264739 L18.8116588,7.45662074 Z" id="Path" fill="#FFFFFF" fill-rule="nonzero" transform="translate(14.707295, 15.134915) rotate(-38.000000) translate(-14.707295, -15.134915) "></path>
                    </g>
                </g>
            </g>
        </g>
    </g>
</svg>