<?xml version="1.0" encoding="UTF-8"?>
<svg width="546px" height="482px" viewBox="0 0 546 482" version="1.1" xmlns="http://www.w3.org/2000/svg" xmlns:xlink="http://www.w3.org/1999/xlink">
    <title>Illustration</title>
    <defs>
        <filter x="-7.2%" y="-7.3%" width="114.5%" height="114.5%" filterUnits="objectBoundingBox" id="filter-1">
            <feGaussianBlur stdDeviation="2" in="SourceGraphic"></feGaussianBlur>
        </filter>
        <filter x="-15.4%" y="-15.5%" width="130.8%" height="131.0%" filterUnits="objectBoundingBox" id="filter-2">
            <feGaussianBlur stdDeviation="3" in="SourceGraphic"></feGaussianBlur>
        </filter>
        <path d="M18.522,0 L39.8127561,0 C41.4355234,5.90080916e-16 42.7641291,1.29038864 42.8114788,2.91246493 L42.8720761,4.98836887 C42.953175,7.76660485 45.2287648,9.97673774 48.0081842,9.97673774 L122.897662,9.97673774 C125.677082,9.97673774 127.952672,7.76660485 128.033771,4.98836887 L128.094368,2.91246493 C128.141718,1.29038864 129.470323,7.42186714e-16 131.093091,0 L152.383847,0 C162.613265,-1.87911363e-15 170.905847,8.29258186 170.905847,18.522 L170.905847,343.682103 C170.905847,353.911521 162.613265,362.204103 152.383847,362.204103 L18.522,362.204103 C8.29258186,362.204103 8.35816978e-15,353.911521 0,343.682103 L0,18.522 C-4.8054561e-15,8.29258186 8.29258186,-8.77902741e-15 18.522,0 Z" id="path-3"></path>
        <linearGradient x1="50%" y1="81.1767625%" x2="50%" y2="-34.5130789%" id="linearGradient-5">
            <stop stop-color="#FF8C19" offset="0%"></stop>
            <stop stop-color="#FFC967" offset="100%"></stop>
        </linearGradient>
        <linearGradient x1="62.1100647%" y1="31.3809088%" x2="62.1100647%" y2="-27.4779882%" id="linearGradient-6">
            <stop stop-color="#F8FDFF" offset="0%"></stop>
            <stop stop-color="#AAD4FF" offset="100%"></stop>
        </linearGradient>
        <path d="M19.6902887,3.56910623 L19.6902887,17.8455311 C19.6902887,19.3624013 18.5267717,20.5223608 17.0052493,20.5223608 L12.5301837,20.5223608 C11.9931759,20.5223608 11.6351706,20.1654502 11.6351706,19.6300842 C11.6351706,19.0947183 11.9931759,18.7378077 12.5301837,18.7378077 L17.0052493,18.7378077 C17.5422572,18.7378077 17.9002625,18.3808971 17.9002625,17.8455311 L17.9002625,3.56910623 C17.9002625,3.03374029 17.5422572,2.67682967 17.0052493,2.67682967 L12.5301837,2.67682967 C11.9931759,2.67682967 11.6351706,2.31991905 11.6351706,1.78455311 C11.6351706,1.24918718 11.9931759,0.892276557 12.5301837,0.892276557 L17.0052493,0.892276557 C18.5267717,0.892276557 19.6902887,2.05223608 19.6902887,3.56910623 Z M14.2307087,11.0642293 C14.32021,10.885774 14.32021,10.618091 14.2307087,10.3504081 C14.1412073,10.2611804 14.1412073,10.1719527 14.051706,10.0827251 L10.4716535,6.51361886 C10.1136483,6.15670824 9.57664042,6.15670824 9.21863517,6.51361886 C8.86062992,6.87052949 8.86062992,7.40589542 9.21863517,7.76280604 L11.2771654,9.81504212 L2.68503937,9.81504212 C2.1480315,9.81504212 1.79002625,10.1719527 1.79002625,10.7073187 C1.79002625,11.2426846 2.1480315,11.5995952 2.68503937,11.5995952 L11.2771654,11.5995952 L9.21863517,13.6518313 C8.86062992,14.0087419 8.86062992,14.5441079 9.21863517,14.9010185 C9.3976378,15.0794738 9.66614173,15.1687015 9.84514436,15.1687015 C10.024147,15.1687015 10.2926509,15.0794738 10.4716535,14.9010185 L14.051706,11.3319123 C14.1412073,11.2426846 14.2307087,11.153457 14.2307087,11.0642293 Z" id="path-7"></path>
        <path d="M19.8394576,10.4098932 L18.7952756,10.4098932 L18.7952756,7.28692521 C18.7952756,3.85166047 15.9759843,1.04098932 12.5301837,1.04098932 C9.0843832,1.04098932 6.26509186,3.85166047 6.26509186,7.28692521 L6.26509186,10.4098932 L5.22090989,10.4098932 C3.44580052,10.4098932 2.08836395,11.7631793 2.08836395,13.5328611 L2.08836395,20.8197863 C2.08836395,22.5894682 3.44580052,23.9427543 5.22090989,23.9427543 L19.8394576,23.9427543 C21.6145669,23.9427543 22.9720035,22.5894682 22.9720035,20.8197863 L22.9720035,13.5328611 C22.9720035,11.7631793 21.6145669,10.4098932 19.8394576,10.4098932 Z M8.35345582,7.28692521 C8.35345582,4.99674872 10.2329834,3.12296795 12.5301837,3.12296795 C14.8273841,3.12296795 16.7069116,4.99674872 16.7069116,7.28692521 L16.7069116,10.4098932 L8.35345582,10.4098932 L8.35345582,7.28692521 Z M20.8836395,20.8197863 C20.8836395,21.4443799 20.4659668,21.8607756 19.8394576,21.8607756 L5.22090989,21.8607756 C4.5944007,21.8607756 4.17672791,21.4443799 4.17672791,20.8197863 L4.17672791,13.5328611 C4.17672791,12.9082675 4.5944007,12.4918718 5.22090989,12.4918718 L19.8394576,12.4918718 C20.4659668,12.4918718 20.8836395,12.9082675 20.8836395,13.5328611 L20.8836395,20.8197863 Z" id="path-9"></path>
        <path d="M6,0 L56.2998321,0 C59.6135406,-1.4968968e-15 62.2998321,2.6862915 62.2998321,6 L62.2998321,45.697641 C62.2998321,49.0113495 59.6135406,51.697641 56.2998321,51.697641 L6,51.697641 C2.6862915,51.697641 -4.82366169e-16,49.0113495 0,45.697641 L0,6 C-1.29399067e-15,2.6862915 2.6862915,-2.79460044e-16 6,0 Z" id="path-11"></path>
        <path d="M10.0399535,1.03111251e-13 L99.4309702,1.03111251e-13 C104.938252,1.03875937e-13 109.408931,4.45288786 109.430891,9.96012632 L109.900847,127.820502 C109.922869,133.343306 105.463604,137.838275 99.9408003,137.860297 C99.9275092,137.86035 99.9142179,137.860376 99.9009266,137.860376 L10.5099099,137.860376 C5.00262766,137.860376 0.531948958,133.407488 0.509989397,127.90025 L0.0400329877,10.0398737 C0.0180113632,4.51707008 4.47727622,0.0221011204 10.0000798,7.94958278e-05 C10.013371,2.6498662e-05 10.0266622,9.95609792e-14 10.0399535,1.03111251e-13 Z" id="path-13"></path>
        <filter x="-35.0%" y="-27.2%" width="184.5%" height="167.5%" filterUnits="objectBoundingBox" id="filter-14">
            <feOffset dx="8" dy="9" in="SourceAlpha" result="shadowOffsetOuter1"></feOffset>
            <feGaussianBlur stdDeviation="14" in="shadowOffsetOuter1" result="shadowBlurOuter1"></feGaussianBlur>
            <feColorMatrix values="0 0 0 0 0.0755212756   0 0 0 0 0.582569014   0 0 0 0 0.878793025  0 0 0 0.229458042 0" type="matrix" in="shadowBlurOuter1" result="shadowMatrixOuter1"></feColorMatrix>
            <feOffset dx="0" dy="2" in="SourceAlpha" result="shadowOffsetOuter2"></feOffset>
            <feGaussianBlur stdDeviation="7.5" in="shadowOffsetOuter2" result="shadowBlurOuter2"></feGaussianBlur>
            <feColorMatrix values="0 0 0 0 0.50398247   0 0 0 0 0.700178215   0 0 0 0 1  0 0 0 0.233828671 0" type="matrix" in="shadowBlurOuter2" result="shadowMatrixOuter2"></feColorMatrix>
            <feMerge>
                <feMergeNode in="shadowMatrixOuter1"></feMergeNode>
                <feMergeNode in="shadowMatrixOuter2"></feMergeNode>
            </feMerge>
        </filter>
        <ellipse id="path-15" cx="21.1406812" cy="21.3935178" rx="21.1406812" ry="21.3935178"></ellipse>
        <filter x="-91.1%" y="-87.6%" width="320.0%" height="317.4%" filterUnits="objectBoundingBox" id="filter-16">
            <feOffset dx="8" dy="9" in="SourceAlpha" result="shadowOffsetOuter1"></feOffset>
            <feGaussianBlur stdDeviation="14" in="shadowOffsetOuter1" result="shadowBlurOuter1"></feGaussianBlur>
            <feColorMatrix values="0 0 0 0 0.0755212756   0 0 0 0 0.582569014   0 0 0 0 0.878793025  0 0 0 0.229458042 0" type="matrix" in="shadowBlurOuter1" result="shadowMatrixOuter1"></feColorMatrix>
            <feOffset dx="0" dy="2" in="SourceAlpha" result="shadowOffsetOuter2"></feOffset>
            <feGaussianBlur stdDeviation="7.5" in="shadowOffsetOuter2" result="shadowBlurOuter2"></feGaussianBlur>
            <feColorMatrix values="0 0 0 0 0.50398247   0 0 0 0 0.700178215   0 0 0 0 1  0 0 0 0.233828671 0" type="matrix" in="shadowBlurOuter2" result="shadowMatrixOuter2"></feColorMatrix>
            <feMerge>
                <feMergeNode in="shadowMatrixOuter1"></feMergeNode>
                <feMergeNode in="shadowMatrixOuter2"></feMergeNode>
            </feMerge>
        </filter>
        <linearGradient x1="47.237279%" y1="-28.1859254%" x2="50%" y2="91.0504812%" id="linearGradient-17">
            <stop stop-color="#FDC6C6" offset="0%"></stop>
            <stop stop-color="#FFCCA1" offset="100%"></stop>
        </linearGradient>
        <linearGradient x1="45.7297937%" y1="-28.1859254%" x2="50%" y2="91.0504812%" id="linearGradient-18">
            <stop stop-color="#FDC6C6" offset="0%"></stop>
            <stop stop-color="#FAB2B2" offset="100%"></stop>
        </linearGradient>
        <linearGradient x1="44.5385111%" y1="-28.1859254%" x2="50%" y2="91.0504812%" id="linearGradient-19">
            <stop stop-color="#FDC6C6" offset="0%"></stop>
            <stop stop-color="#FAB2B2" offset="100%"></stop>
        </linearGradient>
        <linearGradient x1="44.0548833%" y1="-28.1859254%" x2="50%" y2="91.0504812%" id="linearGradient-20">
            <stop stop-color="#FDC6C6" offset="0%"></stop>
            <stop stop-color="#FFCCA1" offset="100%"></stop>
        </linearGradient>
        <linearGradient x1="47.8313493%" y1="-28.1859254%" x2="50%" y2="91.0504812%" id="linearGradient-21">
            <stop stop-color="#FDC6C6" offset="0%"></stop>
            <stop stop-color="#FFCCA1" offset="100%"></stop>
        </linearGradient>
    </defs>
    <g id="ðŸ“-Pages-New" stroke="none" stroke-width="1" fill="none" fill-rule="evenodd">
        <g id="Not-Authorized" transform="translate(-444.000000, -309.000000)">
            <g id="Illustration" transform="translate(450.000000, 309.000000)">
                <g id="Shape">
                    <path d="M393.597973,0 C474.45358,0 540,65.2590662 540,145.760204 C540,226.261342 474.45358,291.520408 393.597973,291.520408 C312.742366,291.520408 247.195946,226.261342 247.195946,145.760204 C247.195946,65.2590662 312.742366,0 393.597973,0 Z M393.597973,54.4897959 C342.968761,54.4897959 301.925676,95.3529495 301.925676,145.760204 C301.925676,196.167459 342.968761,237.030612 393.597973,237.030612 C444.227185,237.030612 485.27027,196.167459 485.27027,145.760204 C485.27027,95.3529495 444.227185,54.4897959 393.597973,54.4897959 Z" id="Oval" fill="#7367F0" fill-rule="nonzero" opacity="0.052827381"></path>
                    <path d="M41.5033784,189.806122 C64.4250613,189.806122 83.0067568,208.306356 83.0067568,231.127551 C83.0067568,253.948746 64.4250613,272.44898 41.5033784,272.44898 C18.5816954,272.44898 0,253.948746 0,231.127551 C0,208.306356 18.5816954,189.806122 41.5033784,189.806122 Z M41.5033784,217.05102 C33.694893,217.05102 27.3648649,223.353298 27.3648649,231.127551 C27.3648649,238.901804 33.694893,245.204082 41.5033784,245.204082 C49.3118638,245.204082 55.6418919,238.901804 55.6418919,231.127551 C55.6418919,223.353298 49.3118638,217.05102 41.5033784,217.05102 Z" id="Oval" fill="#8BF78F" fill-rule="nonzero" opacity="0.141020275" filter="url(#filter-1)"></path>
                    <ellipse id="Oval" fill-opacity="0.0612161276" fill="#7367F0" cx="169.662162" cy="363.265306" rx="82.0945946" ry="81.7346939"></ellipse>
                    <ellipse id="Oval" fill="#CEF5FF" opacity="0.141020275" cx="142.297297" cy="77.1938776" rx="29.1891892" ry="29.0612245"></ellipse>
                    <ellipse id="Oval" fill-opacity="0.135926573" fill="#7367F0" filter="url(#filter-2)" cx="486.182432" cy="363.265306" rx="29.1891892" ry="29.0612245"></ellipse>
                </g>
                <g id="File-Organizer" transform="translate(113.000000, 100.000000)">
                    <g id="Phone3" transform="translate(55.886614, 0.000000)">
                        <path d="M25.137,0 L159.707976,0 C173.590758,-2.55022564e-15 184.844976,11.2542182 184.844976,25.137 L184.844976,354.640673 C184.844976,368.523455 173.590758,379.777673 159.707976,379.777673 L25.137,379.777673 C11.2542182,379.777673 2.9341734e-15,368.523455 -2.60392312e-14,354.640673 L-2.60392312e-14,25.137 C-3.4844809e-14,11.2542182 11.2542182,2.55022564e-15 25.137,0 Z" id="Rectangle" fill="#C4E3E7"></path>
                        <g id="Group-48" transform="translate(6.666540, 7.653065)">
                            <mask id="mask-4" fill="white">
                                <use xlink:href="#path-3"></use>
                            </mask>
                            <use id="Rectangle" fill="#FFFFFF" xlink:href="#path-3"></use>
                            <ellipse id="Oval" fill="#7367F0" opacity="0.0987723214" mask="url(#mask-4)" cx="64.795032" cy="220.451439" rx="14.658784" ry="14.5116185"></ellipse>
                            <path d="M152.518693,205.93982 C191.606337,205.93982 223.293134,237.308501 223.293134,276.003729 C223.293134,314.698957 191.606337,346.067637 152.518693,346.067637 C113.431048,346.067637 81.744251,314.698957 81.744251,276.003729 C81.744251,237.308501 113.431048,205.93982 152.518693,205.93982 Z M152.518693,236.550266 C130.508174,236.550266 112.665124,254.214183 112.665124,276.003729 C112.665124,297.793275 130.508174,315.457192 152.518693,315.457192 C174.529211,315.457192 192.372262,297.793275 192.372262,276.003729 C192.372262,254.214183 174.529211,236.550266 152.518693,236.550266 Z" id="Oval" fill="#C8F5D0" opacity="0.141020275" mask="url(#mask-4)"></path>
                            <path d="M25.5803047,62.1840994 L146.61185,62.1840994 C149.241623,62.1840994 151.373475,64.3159514 151.373475,66.9457242 C151.373475,69.575497 149.241623,71.707349 146.61185,71.707349 L25.5803047,71.707349 C22.950532,71.707349 20.8186799,69.575497 20.8186799,66.9457242 C20.8186799,64.3159514 22.950532,62.1840994 25.5803047,62.1840994 Z" id="Rectangle" fill-opacity="0.642072771" fill="#68DE9E" mask="url(#mask-4)"></path>
                        </g>
                        <path d="M102.441789,6.64870702 C104.023004,6.64870702 105.304832,7.8669082 105.304832,9.3696355 C105.304832,10.8389689 104.079341,12.0362812 102.546749,12.0887695 L102.441789,12.090564 L70.067779,12.090564 C68.4865636,12.090564 67.2047352,10.8723628 67.2047352,9.3696355 C67.2047352,7.90030214 68.4302264,6.70298981 69.9628189,6.65050152 L70.067779,6.64870702 L102.441789,6.64870702 Z" id="Path" fill="#56CDD9" fill-rule="nonzero"></path>
                        <path d="M114.044131,6.19521895 C115.625346,6.19521895 116.907175,7.4641785 116.907175,9.02951944 C116.907175,10.560075 115.681684,11.8072754 114.149091,11.8619507 L114.044131,11.8638199 L113.893964,11.8638199 C112.312748,11.8638199 111.03092,10.5948604 111.03092,9.02951944 C111.03092,7.49896385 112.256411,6.25176351 113.789004,6.19708821 L113.893964,6.19521895 L114.044131,6.19521895 Z" id="Path" fill="#56CDD9" fill-rule="nonzero"></path>
                    </g>
                    <g id="Group-37" transform="translate(67.796876, 127.883638)">
                        <path d="M4,0.639962377 L9.44506387,0.639962377 C11.4620573,0.639962377 13.0971535,2.2750586 13.0971535,4.29205202 L13.0971535,6.72486486 C13.0971535,7.39825284 13.6430423,7.94414166 14.3164303,7.94414166 L55.4839618,7.94414166 C57.6931008,7.94414166 59.4839618,9.73500266 59.4839618,11.9441417 L59.4839618,46.4034368 C59.4839618,48.6125758 57.6931008,50.4034368 55.4839618,50.4034368 L4,50.4034368 C1.790861,50.4034368 6.42046992e-16,48.6125758 0,46.4034368 L0,4.63996238 C-2.705415e-16,2.43082338 1.790861,0.639962377 4,0.639962377 Z" id="Rectangle" fill="url(#linearGradient-5)"></path>
                        <path d="M15.3003731,4.09575921 L60.5298415,4.09575921 C61.2032295,4.09575921 61.7491183,4.64164803 61.7491183,5.31503601 C61.7491183,5.37999685 61.7439268,5.4448538 61.7335934,5.5089875 L54.943695,47.6502131 C54.8484878,48.241113 54.3384639,48.6755384 53.7399431,48.6755384 L8.51047475,48.6755384 C7.83708677,48.6755384 7.29119795,48.1296496 7.29119795,47.4562616 C7.29119795,47.3913008 7.29638943,47.3264438 7.30672281,47.2623101 L14.0966212,5.12108453 C14.1918285,4.53018461 14.7018524,4.09575921 15.3003731,4.09575921 Z" id="Rectangle" fill="url(#linearGradient-6)"></path>
                        <path d="M66.4448037,20.1880175 L61.6685531,44.5066047 C60.9316135,48.2587803 57.6423846,50.9648333 53.818525,50.9648333 L4.86203171,50.9648333 C2.65289271,50.9648333 0.862031707,49.1739723 0.862031707,46.9648333 C0.862031707,46.7060508 0.887144721,46.4478789 0.937017662,46.1939476 L5.71326828,21.8753604 C6.45020794,18.1231848 9.73943676,15.4171318 13.5632964,15.4171318 L62.5197897,15.4171318 C64.7289287,15.4171318 66.5197897,17.2079928 66.5197897,19.4171318 C66.5197897,19.6759144 66.4946767,19.9340862 66.4448037,20.1880175 Z" id="Rectangle" fill="#FFCC7B"></path>
                    </g>
                    <g id="Group-28" transform="translate(0.000000, 81.627854)">
                        <path d="M6,0 L33.3159524,0 L33.3159524,0 L43.9763521,10.8837139 L43.9763521,45.697641 C43.9763521,49.0113495 41.2900606,51.697641 37.9763521,51.697641 L6,51.697641 C2.6862915,51.697641 4.05812251e-16,49.0113495 0,45.697641 L0,6 C-4.05812251e-16,2.6862915 2.6862915,6.08718376e-16 6,0 Z" id="Rectangle" fill="#B7B1FB"></path>
                        <g id="Icon" transform="translate(8.950131, 16.522567)">
                            <mask id="mask-8" fill="white">
                                <use xlink:href="#path-7"></use>
                            </mask>
                            <use id="Mask" fill="#000000" fill-rule="nonzero" xlink:href="#path-7"></use>
                            <g id="Group" mask="url(#mask-8)" fill="#FFFFFF">
                                <g id="Icon-Color">
                                    <rect id="ðŸŽ¨-Icon-Color" x="0" y="0" width="21.480315" height="21.4146374"></rect>
                                </g>
                            </g>
                        </g>
                        <path d="M43.9763521,10.8837139 L36.3159524,10.8837139 C34.6590981,10.8837139 33.3159524,9.54056815 33.3159524,7.8837139 L33.3159524,0 L33.3159524,0 L43.9763521,10.8837139 Z" id="Path" fill="#7367F0" fill-rule="nonzero" opacity="0.339960007"></path>
                    </g>
                    <g id="Group" transform="translate(19.239654, 215.860326)">
                        <path d="M6,0 L56.2998321,0 C59.6135406,-4.44006117e-15 62.2998321,2.6862915 62.2998321,6 L62.2998321,45.697641 C62.2998321,49.0113495 59.6135406,51.697641 56.2998321,51.697641 L6,51.697641 C2.6862915,51.697641 1.29399067e-15,49.0113495 0,45.697641 L0,6 C4.82366169e-16,2.6862915 2.6862915,-2.79460044e-16 6,0 Z" id="Rectangle" fill="#6FD9E6"></path>
                        <g transform="translate(17.900262, 13.384148)" id="Icon">
                            <mask id="mask-10" fill="white">
                                <use xlink:href="#path-9"></use>
                            </mask>
                            <use id="Mask" fill="#000000" fill-rule="nonzero" xlink:href="#path-9"></use>
                            <g id="Group" mask="url(#mask-10)" fill="#FFFFFF">
                                <g id="Icon-Color">
                                    <rect id="ðŸŽ¨-Icon-Color" x="0" y="0" width="25.0603675" height="24.9837436"></rect>
                                </g>
                            </g>
                        </g>
                    </g>
                    <g id="Group-34" transform="translate(73.293920, 50.790665)">
                        <mask id="mask-12" fill="white">
                            <use xlink:href="#path-11"></use>
                        </mask>
                        <use id="Rectangle" fill="#BAF3C4" fill-rule="nonzero" xlink:href="#path-11"></use>
                        <ellipse id="Oval" fill="#FFFFFF" mask="url(#mask-12)" cx="27.48522" cy="19.0464993" rx="8.24556601" ry="8.16278542"></ellipse>
                        <ellipse id="Oval" fill="#28C76F" mask="url(#mask-12)" cx="8.70365301" cy="61.2208907" rx="29.775655" ry="29.4767251"></ellipse>
                        <ellipse id="Oval" fill="#69E09E" mask="url(#mask-12)" cx="62.7579191" cy="54.4185695" rx="35.272699" ry="34.465094"></ellipse>
                    </g>
                    <g id="Group-23" transform="translate(155.749580, 29.930213)">
                        <g id="Rectangle">
                            <use fill="black" fill-opacity="1" filter="url(#filter-14)" xlink:href="#path-13"></use>
                            <use fill="#FFFFFF" fill-rule="evenodd" xlink:href="#path-13"></use>
                        </g>
                        <path d="M37.5355405,85.2557589 L72.4053396,85.2557589 C73.9080669,85.2557589 75.1262681,86.4739601 75.1262681,87.9766874 C75.1262681,89.4794147 73.9080669,90.6976158 72.4053396,90.6976158 L37.5355405,90.6976158 C36.0328132,90.6976158 34.814612,89.4794147 34.814612,87.9766874 C34.814612,86.4739601 36.0328132,85.2557589 37.5355405,85.2557589 Z" id="Rectangle" fill="#7367F0" fill-rule="nonzero" opacity="0.339960007"></path>
                        <path d="M28.3738005,99.7673774 L81.5670796,99.7673774 C83.0698069,99.7673774 84.2880081,100.985579 84.2880081,102.488306 C84.2880081,103.991033 83.0698069,105.209234 81.5670796,105.209234 L28.3738005,105.209234 C26.8710732,105.209234 25.652872,103.991033 25.652872,102.488306 C25.652872,100.985579 26.8710732,99.7673774 28.3738005,99.7673774 Z" id="Rectangle" fill="#7367F0" fill-rule="nonzero" opacity="0.339960007"></path>
                        <g id="Icon8" transform="translate(33.898438, 22.674404)">
                            <g id="Oval">
                                <use fill="black" fill-opacity="1" filter="url(#filter-16)" xlink:href="#path-15"></use>
                                <use fill="#FFFFFF" fill-rule="evenodd" xlink:href="#path-15"></use>
                            </g>
                            <g id="Group-70" transform="translate(12.826436, 9.976738)" fill="#7367F0">
                                <path d="M12.9643112,12.2230749 C15.4282783,12.2230749 17.4257184,14.2205149 17.4257184,16.6844821 L17.4257184,19.8341584 C17.4257184,20.5586074 16.8384365,21.1458893 16.1139875,21.1458893 L1.31173083,21.1458893 C0.587281895,21.1458893 4.0466296e-12,20.5586074 4.04654088e-12,19.8341584 L4.04654088e-12,16.6844821 C4.04623913e-12,14.2205149 1.99744004,12.2230749 4.4614072,12.2230749 L12.9643112,12.2230749 Z M8.71285918,9.70779013e-13 C11.6996049,9.70779013e-13 14.1208407,2.39692805 14.1208407,5.35368864 C14.1208407,8.31044923 11.6996049,10.7073773 8.71285918,10.7073773 C5.72611344,10.7073773 3.30487762,8.31044923 3.30487762,5.35368864 C3.30487762,2.39692805 5.72611344,9.70779013e-13 8.71285918,9.70779013e-13 Z" id="Combined-Shape"></path>
                            </g>
                        </g>
                    </g>
                    <g id="Wom3.5" transform="translate(210.720020, 63.488331)">
                        <g id="RArm" transform="translate(91.272131, 52.024362)">
                            <path d="M13.5891936,69.9310316 C13.5891936,69.9310316 3.85860251,80.4638658 4.53510263,81.4125713 C5.21226722,82.3675202 10.2541937,79.8175561 10.2541937,79.8175561 C10.2541937,79.8175561 4.3474842,90.6658516 5.71175163,91.4081696 C7.07535143,92.150488 13.762037,90.174121 15.7287024,87.9004224 C17.6960355,85.6267235 20.3510846,74.5172971 20.3510846,74.5172971 L34.4691096,44.8849758 L22.9886725,41.5833525 L13.5891936,69.9310316 Z" id="Path" fill="url(#linearGradient-17)" transform="translate(19.485252, 66.575169) rotate(2.866471) translate(-19.485252, -66.575169) "></path>
                            <path d="M2.96635485,16.2288314 C7.26877238,22.8469443 21.7518442,41.7078501 21.7518442,41.7078501 C21.7518442,41.7078501 21.4000697,42.962145 20.6965206,45.4707346 L34.0062895,54.5036397 C36.5270386,47.6098901 37.8967793,43.6780818 38.1155118,42.7082147 C39.1975795,37.9093897 17.3313172,7.28496415 12.4353513,2.85991428 C4.7262249,-4.10797966 -3.60899732,6.11504108 2.96635485,16.2288314 Z" id="Path" fill="#FD8715"></path>
                            <path d="M25.2135683,46.7147004 C25.3790566,46.3951142 24.2323301,44.7035919 21.7733886,41.6401334 L21.1484489,43.8748148 C23.6930403,46.087658 25.0480801,47.0342866 25.2135683,46.7147004 Z" id="Path" fill-opacity="0.159855769" fill="#000000"></path>
                            <polygon id="Path-70" fill="#FFEDC2" points="20.613915 44.208183 34.7542819 54.8980004 31.6033581 61.8114882 19.239654 48.197631"></polygon>
                        </g>
                        <g id="RLeg" transform="translate(67.488603, 111.114922)">
                            <polygon id="Path" fill="url(#linearGradient-18)" points="35.4715016 179.674227 34.686133 192.921853 44.7542053 193.181405 42.8618411 179.674227"></polygon>
                            <path d="M35.7177371,184.893202 C35.7177371,184.893202 36.0002881,192.871033 34.3314711,195.656392 C32.6520584,198.441752 32.1431156,200.601138 32.0689459,202.266849 C31.9894784,204.052427 32.159892,205.670191 32.159892,205.670191 L48.824059,205.670191 C48.824059,205.670191 49.2411727,197.27682 48.1374578,195.693684 C47.0337428,194.111437 46.3097057,194.083912 46.3097057,192.685461 C46.300876,191.287009 46.0624736,184.945588 46.0624736,184.945588 L35.7177371,184.893202 Z" id="Path" fill="#391B0B" transform="translate(40.474590, 195.281696) scale(-1, 1) translate(-40.474590, -195.281696) "></path>
                            <path d="M0,2.8106518 L26.1179377,-1.03111251e-13 L26.5019487,0.353018493 C28.3634229,2.10885987 36.4529982,10.2632298 38.7774225,21.4088711 C43.1657528,42.4509659 37.2925764,81.3143275 37.422487,89.8362542 C37.5464926,98.3581809 41.6143538,103.500043 43.3047894,115.549347 C44.9952249,127.598651 45.1548524,181.448711 45.1548524,181.448711 C40.6729364,184.078127 36.7292726,184.26636 31.3852224,181.290876 L0,2.8106518 Z" id="Path" fill="#4E3319"></path>
                            <path d="M23.3301274,135.481285 L6.9980434e-14,2.8106518 L14.5216393,1.24779264 C15.1686585,47.3372674 24.1994715,109.63768 23.3301274,135.481285 Z" id="Path" fill-opacity="0.192498907" fill="#FFFFFF"></path>
                        </g>
                        <g id="LLeg" transform="translate(45.207088, 114.765607)">
                            <path d="M27.6314708,174.6305 L19.0455605,174.76846 C19.4219396,180.650072 18.5097109,184.587074 16.3088743,186.579464 L16.1284768,186.735869 C12.142583,190.042806 27.5192753,188.849105 27.5192753,188.849105 L27.6314708,174.6305 Z" id="Path" fill="url(#linearGradient-19)"></path>
                            <path d="M0.60161252,181.507638 L0.848689265,202.012211 L6.9622991,202.016674 L7.01524412,196.964133 C7.01524412,196.964133 8.94353195,201.674726 11.8908046,201.946989 C14.8469013,202.219252 28.0183072,202.052324 28.0183072,202.052324 C28.0183072,202.052324 29.1125042,197.322092 22.5561462,195.17434 C17.1028095,193.38901 11.0728433,181.507638 11.0728433,181.507638 L0.60161252,181.507638 Z" id="Path" fill="#391B0B" transform="translate(14.344223, 191.805303) scale(-1, 1) translate(-14.344223, -191.805303) "></path>
                            <path d="M9.32588481,0.983838845 L38.6540103,0 L38.8731476,0.401640973 C40.296236,3.07367121 48.0939317,18.7184994 45.6861339,36.5010708 C42.306446,61.4614489 33.7150227,90.7228865 33.2943924,95.1929758 C32.5444539,103.162664 34.0443309,108.933381 34.6593485,117.165058 C35.2743661,125.396734 32.3141578,177.168156 32.3141578,177.168156 C27.9621524,179.759575 22.783443,180.268154 16.1993371,177.246489 C12.2368463,130.365651 10.2409629,103.215613 10.2116871,95.7963759 C10.1677732,84.6675198 9.32588481,0.983838845 9.32588481,0.983838845 Z" id="Path" fill="#604021"></path>
                            <path d="M15.3607105,27.9815014 L15.1661153,29.8308625 C13.2115764,49.3319184 13.2263805,90.7450184 13.9832431,97.1318978 L14.0871056,97.9550761 C14.9265681,105.162179 14.9537881,123.459361 14.1687657,152.846624 L13.14693,140.165578 C11.2105461,115.764303 10.2321201,100.974609 10.2116871,95.7963759 L10.1762135,90.4373128 C10.0078144,68.7676204 9.32588481,0.983838845 9.32588481,0.983838845 L15.5110933,0.776574252 C16.1721944,11.4766367 16.1220668,20.5449458 15.3607105,27.9815014 Z" id="Path" fill-opacity="0.192498907" fill="#FFFFFF"></path>
                        </g>
                        <g id="Head" transform="translate(63.095705, 3.054825)">
                            <path d="M2.62056446,20.2649112 C-0.988123251,20.6557488 -0.732283451,26.9363444 3.66062057,27.2642641 C4.55848362,33.3187817 7.7605207,36.2034087 11.6643668,36.5371937 L11.4478455,45.6949514 L28.7156855,45.6848206 C28.7156855,45.6848206 23.8531135,39.2154712 24.095488,30.358973 C24.3378625,21.5019417 23.9328277,13.1818455 23.9328277,13.1818455 L1.56704309,13.5790815 L2.62056446,20.2649112 Z" id="Path" fill="url(#linearGradient-20)"></path>
                            <path d="M29.105043,20.7354669 C24.9020136,19.0900255 21.7972099,26.174428 18.5812785,31.0982944 C15.3653471,36.0221607 7.0333943,35.1855562 5.88505311,31.0982944 C1.5375221,22.1462375 -2.20907209,9.97557033 2.8643193,8.9766553 C3.57844774,-3.96152119 37.7860054,-0.906976158 29.105043,20.7354669 Z" id="Path" fill="#8B5030" transform="translate(15.470153, 17.887459) scale(-1, 1) translate(-15.470153, -17.887459) "></path>
                            <path d="M25.5641294,4.08017839 C27.0285748,5.31247406 27.9640115,6.94796784 28.0759858,8.9766553 C33.1493772,9.97557033 29.402783,22.1462375 25.055252,31.0982944 C23.9873836,34.8991314 16.7074439,35.888943 13.1062583,32.0494473 C9.82215601,22.3091985 11.2251011,11.4187706 17.865393,4.08139271 L17.865393,4.08139271 Z" id="Combined-Shape" fill-opacity="0.199355332" fill="#000000"></path>
                            <ellipse id="Oval" fill="#FB9934" cx="20.7342166" cy="4.08139271" rx="4.122783" ry="4.08139271"></ellipse>
                        </g>
                        <g id="Body" transform="translate(50.525976, 45.842858)">
                            <path d="M44.7301049,4.68057864 C48.5825269,10.2830664 55.0030918,29.2977056 55.3672446,33.5753891 C55.7775274,38.5097111 50.4340819,46.3699857 50.3461642,53.5131246 C50.2680151,60.6572365 54.3317689,82.1674161 53.110689,84.1767584 C51.8993778,86.1861007 17.1662254,95.0822334 14.8999012,95.0345541 C12.6433456,94.9859018 -1.60345751,82.8777405 0.184203414,78.6936379 C1.98163297,74.5095353 10.3240506,64.1115538 9.47417901,58.4104707 C8.63407607,52.7103607 3.75536914,31.6682168 1.33274669,24.50659 C-1.08010712,17.3449632 -0.275544256,9.82603561 4.22779828,6.74439539 C6.45607534,5.21958395 12.4020862,0.887583602 22.9908714,0.906976158 C33.5796566,0.92730229 44.4313532,4.24611096 44.7301049,4.68057864 Z" id="Path" fill="#FD8715" transform="translate(27.694857, 47.971327) scale(-1, 1) translate(-27.694857, -47.971327) "></path>
                            <path d="M22.6155997,0.497699863 C22.318515,2.10384496 22.8202353,2.90691751 24.1207606,2.90691751 C26.0715485,2.90691751 39.156464,3.33351681 40.9284588,2.57172857 C42.1097887,2.06386974 42.5232205,1.37252684 42.1687541,0.497699863 L22.6155997,0.497699863 Z" id="Path-68" fill="#FFF6E1"></path>
                            <path d="M5.06823071,16.7976574 L5.1868105,16.7384903 C12.3214748,13.2126727 16.6070543,13.0569354 18.043549,16.2712785 C19.9004845,20.4264125 15.0849906,30.4105109 3.59706712,46.2235736 C2.01915867,41.4277841 -0.250244779,36.8552133 0.0224685868,33.5753891 C0.233210816,31.0998116 2.47234177,23.6885931 5.06823071,16.7976574 Z" id="Path" fill-opacity="0.159855769" fill="#000000"></path>
                        </g>
                        <g id="LArm" transform="translate(0.000000, 23.915276)">
                            <path d="M8.00117015,27.046029 C8.00117015,27.046029 6.71587579,24.2839677 4.69547526,23.5366531 C2.67564886,22.7893384 -0.414161924,17.8394984 0.0635229991,16.4020933 C0.541207922,14.9646883 4.72037686,10.9782548 4.72037686,10.9782548 C4.72037686,10.9782548 1.02578253,1.16288037 2.66208305,0.0552229646 C4.10776891,-0.923821538 9.57875405,11.4394482 9.57875405,11.4394482 C9.57875405,11.4394482 12.7950893,11.9193386 13.537453,13.1833712 C15.4080029,16.3697985 13.994049,23.5366531 13.994049,23.5366531 L32.982264,51.0051425 L24.2695016,62.0644911 L8.00117015,27.046029 Z" id="Path" fill="url(#linearGradient-21)"></path>
                            <path d="M56.4730007,29.1759665 C50.0511524,34.8236504 34.3436658,49.8071817 34.3436658,49.8071817 C34.3436658,49.8071817 33.5657333,48.6271517 32.0098682,46.2670917 L20.2630521,58.1752948 C26.1705333,66.8496005 30.0861387,71.2170555 32.0098682,71.2776599 C39.5283267,71.5144019 52.9995041,57.4618426 65.6643821,46.4890626 C77.019899,36.6504049 68.4436103,18.6484108 56.4730007,29.1759665 Z" id="Path" fill="#FD8715"></path>
                            <path d="M34.3905249,49.8247774 C31.4529608,53.1881486 29.8629838,54.6864484 29.6205938,54.3196769 C29.3782038,53.9529053 30.4861248,51.7251841 32.9443568,47.6365132 L34.3905249,49.8247774 Z" id="Path" fill-opacity="0.159855769" fill="#000000"></path>
                            <polygon id="Path-69" fill="#FFEDC2" points="33.4161859 47.0691779 19.7922077 62.0644911 15.5946464 53.5070476 30.8242474 44.045895"></polygon>
                        </g>
                        <path d="M95.827808,3.88785188 C95.827808,3.88785188 91.9700028,-1.08690076 87.5151672,0.218253895 C83.0603315,1.52340855 79.0306863,9.52381181 80.944043,17.044035 C82.8477363,24.5652323 81.2778123,28.8550019 78.9682555,33.9236772 C72.7643412,47.5586474 94.2439089,56.2160399 94.2439089,56.2160399 C93.1266074,49.4804481 93.6545737,44.0790494 95.827808,40.0118436 C99.1850703,33.7287306 101.09174,25.6714515 101.09174,20.7408596 C101.09174,12.1667024 95.827808,3.88785188 95.827808,3.88785188 Z" id="Path" fill="#8B5030" transform="translate(89.467539, 28.108020) scale(-1, 1) translate(-89.467539, -28.108020) "></path>
                    </g>
                    <g id="Group-39" transform="translate(245.534632, 6.348833)">
                        <path d="M0,6.44541945 C15.5212214,-2.40856255 31.2546269,-1.88438826 47.1646376,6.44541945 L46.1611422,17.5088527 C44.7924579,32.5984566 36.4364144,46.1763883 23.5823188,54.1977142 L23.5823188,54.1977142 L23.5823188,54.1977142 C10.1714707,46.2319875 1.57330089,32.1442665 0.620153378,16.5752217 L0,6.44541945 L0,6.44541945 Z" id="Rectangle" fill="#28C76F"></path>
                        <ellipse id="Oval" fill="#1CA258" cx="23.5823188" cy="24.4067284" rx="12.863083" ry="12.7339453"></ellipse>
                        <g id="Group-40" transform="translate(13.935007, 14.856269)" fill="#FFFFFF">
                            <path d="M9.46378465,0.504052 C13.5548167,0.504052 17.0960689,3.23407665 18.1236287,7.08337997 C18.2030378,7.3808514 18.0238178,7.68572717 17.7233296,7.76433904 C17.4228415,7.84295092 17.1148739,7.66553018 17.0354648,7.36805874 C16.137791,4.00531641 13.041436,1.61827221 9.46378465,1.61827221 C5.13949582,1.61827221 1.63468346,5.07582207 1.63468346,9.33977434 C1.63468346,11.7466328 2.43179034,13.9103328 4.03614752,15.850995 C4.23299253,16.0891026 4.19758508,16.4400993 3.95706276,16.6349681 C3.71654045,16.8298369 3.36198418,16.7947849 3.16513918,16.5566773 C1.39787,14.4189536 0.509163701,12.0066124 0.509163701,9.33977434 C0.509163701,4.4595839 4.5187652,0.504052 9.46378465,0.504052 Z" id="Path"></path>
                            <path d="M9.94064035,2.894597 C13.3053623,2.90503215 16.0451763,5.51000261 16.1554495,8.79797935 L16.1588696,8.98480785 C16.1646012,10.8227672 16.6853985,11.8329927 17.683254,12.1626856 C17.9783657,12.2601909 18.1394107,12.5760877 18.0429579,12.8682608 C17.9465051,13.160434 17.6290793,13.3182434 17.3339676,13.220738 C15.8467128,12.729347 15.0927501,11.3466196 15.0377473,9.20552215 L15.0345492,8.98132952 C15.0259592,6.22675222 12.7562916,4.0187335 9.94411869,4.01003344 C7.41261103,4.00220167 5.26111564,6.31485898 4.96507206,8.90497035 C4.90743145,9.40927319 4.89371555,9.8750205 4.92282934,10.3384121 L4.95437652,10.7409946 C5.07873051,12.02032 5.45033227,13.0755397 7.2013441,17.6262021 C7.31229674,17.9145543 7.16717308,18.2360916 6.87720134,18.3443758 C6.5872296,18.45266 6.26221618,18.3066861 6.15126354,18.018334 L5.21552648,15.5675959 C4.100286,12.6044156 3.8952426,11.798342 3.80668243,10.4928351 L3.80068282,10.4009095 C3.76738677,9.87095064 3.78301977,9.34010457 3.84789521,8.7725037 C4.20355627,5.66079372 6.78604077,2.88486322 9.94064035,2.894597 Z" id="Path" transform="translate(10.927314, 10.637362) rotate(-19.000000) translate(-10.927314, -10.637362) "></path>
                            <path d="M10.5420754,5.94833445 C12.285015,5.95374438 13.7243305,7.37804877 13.6747502,9.0979807 C13.6033197,11.5758919 14.4119272,13.4087977 16.1059146,14.6597465 C16.3557059,14.8442084 16.4087262,15.1937102 16.2243389,15.4403806 C16.0399515,15.687051 15.6879802,15.737481 15.4381889,15.5530191 C13.4335792,14.0726869 12.469363,11.8870561 12.550882,9.05917522 C12.5820623,7.97753777 11.6621482,7.06721777 10.5455537,7.06376335 C9.35665977,7.06008525 8.48012886,7.89478238 8.29137155,9.38551825 C8.19543411,10.1431969 8.44724348,11.3068543 9.00852542,12.9035656 L9.10493133,13.1736985 C9.18508557,13.395085 9.27022652,13.6232172 9.36357308,13.8672696 L10.3841339,16.4586865 C10.4941897,16.7473721 10.3480618,17.0684567 10.0577481,17.175849 C9.76743429,17.2832414 9.44287056,17.1362742 9.33281468,16.8475886 L8.5147855,14.7784169 L8.31214371,14.2558886 C8.21674011,14.0064381 8.12947899,13.7726108 8.04705987,13.5449687 L7.8521874,12.991124 C7.30151743,11.3754083 7.05834254,10.1673476 7.17579734,9.23973279 C7.43250724,7.21233231 8.76560745,5.94285633 10.5420754,5.94833445 Z" id="Path" transform="translate(11.740562, 11.579666) rotate(-19.000000) translate(-11.740562, -11.579666) "></path>
                            <path d="M9.77536455,9.67985686 C10.0725399,9.58974472 10.3872393,9.75518408 10.4782653,10.049376 C11.0848876,12.009952 12.2728276,13.400627 14.5070389,15.0613974 C14.7555775,15.2461452 14.8057714,15.5953704 14.61915,15.8414138 C14.4325287,16.0874572 14.0797619,16.1371471 13.8312234,15.9523994 C11.4241269,14.1631171 10.091134,12.6026345 9.40209804,10.3757009 C9.31107206,10.081509 9.47818917,9.769969 9.77536455,9.67985686 Z" id="Path"></path>
                        </g>
                    </g>
                </g>
            </g>
        </g>
    </g>
</svg>