<svg width="548" height="484" viewBox="0 0 548 484" fill="none" xmlns="http://www.w3.org/2000/svg">
<g id="Illustration">
<g id="Shape">
<path id="Oval" opacity="0.0528274" fill-rule="evenodd" clip-rule="evenodd" d="M548 146.415C548 65.5524 482.211 0 401.056 0C319.901 0 254.111 65.5524 254.111 146.415C254.111 227.278 319.901 292.831 401.056 292.831C482.211 292.831 548 227.278 548 146.415ZM309.044 146.415C309.044 95.7815 350.239 54.7347 401.056 54.7347C451.872 54.7347 493.067 95.7815 493.067 146.415C493.067 197.049 451.872 238.096 401.056 238.096C350.239 238.096 309.044 197.049 309.044 146.415Z" fill="#7367F0"/>
<g id="Oval_2" opacity="0.14102" filter="url(#filter0_f)">
<path fill-rule="evenodd" clip-rule="evenodd" d="M89.3142 232.166C89.3142 209.243 70.6637 190.659 47.6571 190.659C24.6505 190.659 6 209.243 6 232.166C6 255.09 24.6505 273.673 47.6571 273.673C70.6637 273.673 89.3142 255.09 89.3142 232.166ZM33.4662 232.166C33.4662 224.357 39.8197 218.027 47.6571 218.027C55.4945 218.027 61.848 224.357 61.848 232.166C61.848 239.976 55.4945 246.306 47.6571 246.306C39.8197 246.306 33.4662 239.976 33.4662 232.166Z" fill="#8BF78F"/>
</g>
<ellipse id="Oval_3" cx="176.29" cy="364.898" rx="82.3987" ry="82.102" fill="#7367F0" fill-opacity="0.0612161"/>
<ellipse id="Oval_4" opacity="0.14102" cx="148.825" cy="77.5407" rx="29.2973" ry="29.1918" fill="#CEF5FF"/>
<g id="Oval_5" filter="url(#filter1_f)">
<ellipse cx="493.983" cy="364.898" rx="29.2973" ry="29.1918" fill="#7367F0" fill-opacity="0.135927"/>
</g>
</g>
<g id="File Organizer">
<g id="Phone3">
<path id="Rectangle" fill-rule="evenodd" clip-rule="evenodd" d="M176.051 126.137C176.051 112.254 187.305 101 201.188 101H336.301C350.184 101 361.438 112.254 361.438 126.137V456.637C361.438 470.52 350.184 481.774 336.301 481.774H201.188C187.305 481.774 176.051 470.52 176.051 456.637V126.137Z" fill="#C4E3E7"/>
<g id="Group 48">
<path id="Rectangle_2" fill-rule="evenodd" clip-rule="evenodd" d="M182.737 127.195C182.737 116.966 191.03 108.673 201.259 108.673H224.364C225.046 108.673 225.605 109.216 225.625 109.898V109.898C225.768 114.787 229.772 118.676 234.663 118.676H302.219C307.11 118.676 311.114 114.787 311.257 109.898V109.898C311.277 109.216 311.835 108.673 312.518 108.673H335.622C345.852 108.673 354.144 116.966 354.144 127.195V453.306C354.144 463.535 345.852 471.828 335.622 471.828H201.259C191.03 471.828 182.737 463.535 182.737 453.306V127.195Z" fill="#161D31"/>
<mask id="mask0" mask-type="alpha" maskUnits="userSpaceOnUse" x="182" y="108" width="173" height="364">
<path id="Rectangle_3" fill-rule="evenodd" clip-rule="evenodd" d="M182.737 127.195C182.737 116.966 191.03 108.673 201.259 108.673H224.364C225.046 108.673 225.605 109.216 225.625 109.898V109.898C225.768 114.787 229.772 118.676 234.663 118.676H302.219C307.11 118.676 311.114 114.787 311.257 109.898V109.898C311.277 109.216 311.835 108.673 312.518 108.673H335.622C345.852 108.673 354.144 116.966 354.144 127.195V453.306C354.144 463.535 345.852 471.828 335.622 471.828H201.259C191.03 471.828 182.737 463.535 182.737 453.306V127.195Z" fill="white"/>
</mask>
<g mask="url(#mask0)">
<ellipse id="Oval_6" opacity="0.0987723" cx="247.722" cy="329.703" rx="14.7018" ry="14.5497" fill="#7367F0"/>
<path id="Oval_7" opacity="0.14102" fill-rule="evenodd" clip-rule="evenodd" d="M335.704 315.153C374.906 315.153 406.686 346.604 406.686 385.401C406.686 424.198 374.906 455.649 335.704 455.649C296.501 455.649 264.722 424.198 264.722 385.401C264.722 346.604 296.501 315.153 335.704 315.153ZM335.704 345.844C313.629 345.844 295.733 363.555 295.733 385.401C295.733 407.248 313.629 424.958 335.704 424.958C357.779 424.958 375.674 407.248 375.674 385.401C375.674 363.555 357.779 345.844 335.704 345.844Z" fill="#C8F5D0"/>
<path id="Rectangle_4" fill-rule="evenodd" clip-rule="evenodd" d="M203.617 175.795C203.617 173.158 205.755 171.021 208.391 171.021H329.781C332.417 171.021 334.555 173.158 334.555 175.795V175.795C334.555 178.431 332.417 180.569 329.781 180.569H208.391C205.755 180.569 203.617 178.431 203.617 175.795V175.795Z" fill="#68DE9E" fill-opacity="0.642073"/>
</g>
</g>
<path id="Path" d="M278.793 107.666C280.378 107.666 281.664 108.888 281.664 110.394C281.664 111.868 280.435 113.068 278.898 113.121L278.793 113.122H246.324C244.738 113.122 243.452 111.901 243.452 110.394C243.452 108.921 244.681 107.721 246.218 107.668L246.324 107.666H278.793Z" fill="#56CDD9"/>
<path id="Path_2" d="M290.429 107.211C292.015 107.211 293.301 108.484 293.301 110.053C293.301 111.588 292.072 112.838 290.535 112.893L290.429 112.895H290.279C288.693 112.895 287.407 111.623 287.407 110.053C287.407 108.519 288.636 107.268 290.173 107.213L290.279 107.211H290.429Z" fill="#56CDD9"/>
</g>
<g id="Icon54">
<g id="Group 37">
<path id="Rectangle_5" fill-rule="evenodd" clip-rule="evenodd" d="M187.996 233.861C187.996 231.652 189.787 229.861 191.996 229.861L197.132 229.861C199.341 229.861 201.132 231.652 201.132 233.861V235.965C201.132 236.638 201.678 237.184 202.351 237.184H243.654C245.864 237.184 247.654 238.975 247.654 241.184V275.755C247.654 277.964 245.864 279.755 243.654 279.755H191.996C189.787 279.755 187.996 277.964 187.996 275.755V233.861Z" fill="url(#paint0_linear)"/>
<path id="Rectangle_6" fill-rule="evenodd" clip-rule="evenodd" d="M202.134 234.351C202.23 233.76 202.74 233.326 203.338 233.326H248.707C249.458 233.326 250.031 233.998 249.911 234.739L243.1 276.997C243.005 277.588 242.495 278.022 241.897 278.022H196.527C195.776 278.022 195.204 277.35 195.323 276.609L202.134 234.351Z" fill="url(#paint1_linear)"/>
<path id="Rectangle_7" fill-rule="evenodd" clip-rule="evenodd" d="M250.713 244.677C253.232 244.677 255.124 246.976 254.638 249.448L249.842 273.86C249.105 277.612 245.816 280.318 241.992 280.318H192.858C190.34 280.318 188.448 278.018 188.933 275.547L193.73 251.135C194.467 247.383 197.756 244.677 201.579 244.677L250.713 244.677Z" fill="#FFCC7B"/>
</g>
</g>
<g id="Group 28">
<path id="Rectangle_8" fill-rule="evenodd" clip-rule="evenodd" d="M120 188.842C120 185.528 122.686 182.842 126 182.842H153.414L164.105 193.754V228.675C164.105 231.989 161.419 234.675 158.105 234.675H126C122.686 234.675 120 231.989 120 228.675V188.842Z" fill="#B7B1FB"/>
<g id="Icon">
<path id="Mask" fill-rule="evenodd" clip-rule="evenodd" d="M146.031 219.984C147.557 219.984 148.724 218.821 148.724 217.3V202.986C148.724 201.465 147.557 200.302 146.031 200.302H141.543C141.005 200.302 140.646 200.66 140.646 201.197C140.646 201.734 141.005 202.092 141.543 202.092H146.031C146.57 202.092 146.929 202.45 146.929 202.986V217.3C146.929 217.837 146.57 218.195 146.031 218.195H141.543C141.005 218.195 140.646 218.553 140.646 219.089C140.646 219.626 141.005 219.984 141.543 219.984H146.031ZM143.249 209.785C143.338 210.054 143.338 210.322 143.249 210.501C143.249 210.591 143.159 210.68 143.069 210.77L139.479 214.348C139.299 214.527 139.03 214.616 138.85 214.616C138.671 214.616 138.401 214.527 138.222 214.348C137.863 213.99 137.863 213.453 138.222 213.096L140.286 211.038H131.669C131.131 211.038 130.771 210.68 130.771 210.143C130.771 209.607 131.131 209.249 131.669 209.249H140.286L138.222 207.191C137.863 206.833 137.863 206.296 138.222 205.939C138.581 205.581 139.12 205.581 139.479 205.939L143.069 209.517C143.114 209.562 143.136 209.607 143.159 209.651C143.181 209.696 143.204 209.741 143.249 209.785Z" fill="black"/>
<mask id="mask1" mask-type="alpha" maskUnits="userSpaceOnUse" x="130" y="200" width="19" height="20">
<path id="Mask_2" fill-rule="evenodd" clip-rule="evenodd" d="M146.031 219.984C147.557 219.984 148.724 218.821 148.724 217.3V202.986C148.724 201.465 147.557 200.302 146.031 200.302H141.543C141.005 200.302 140.646 200.66 140.646 201.197C140.646 201.734 141.005 202.092 141.543 202.092H146.031C146.57 202.092 146.929 202.45 146.929 202.986V217.3C146.929 217.837 146.57 218.195 146.031 218.195H141.543C141.005 218.195 140.646 218.553 140.646 219.089C140.646 219.626 141.005 219.984 141.543 219.984H146.031ZM143.249 209.785C143.338 210.054 143.338 210.322 143.249 210.501C143.249 210.591 143.159 210.68 143.069 210.77L139.479 214.348C139.299 214.527 139.03 214.616 138.85 214.616C138.671 214.616 138.401 214.527 138.222 214.348C137.863 213.99 137.863 213.453 138.222 213.096L140.286 211.038H131.669C131.131 211.038 130.771 210.68 130.771 210.143C130.771 209.607 131.131 209.249 131.669 209.249H140.286L138.222 207.191C137.863 206.833 137.863 206.296 138.222 205.939C138.581 205.581 139.12 205.581 139.479 205.939L143.069 209.517C143.114 209.562 143.136 209.607 143.159 209.651C143.181 209.696 143.204 209.741 143.249 209.785Z" fill="white"/>
</mask>
<g mask="url(#mask1)">
<g id="Icon Color">
<rect id="&#240;&#159;&#142;&#168; Icon Color" x="128.977" y="199.408" width="21.5433" height="21.4708" fill="white"/>
</g>
</g>
</g>
<path id="Path_3" opacity="0.33996" d="M164.106 193.754H156.414C154.757 193.754 153.414 192.411 153.414 190.754V182.842L164.106 193.754Z" fill="#7367F0"/>
</g>
<g id="Group">
<path id="Rectangle_9" fill-rule="evenodd" clip-rule="evenodd" d="M139.296 323.427C139.296 320.113 141.982 317.427 145.296 317.427H195.778C199.092 317.427 201.778 320.113 201.778 323.427V363.26C201.778 366.574 199.092 369.26 195.778 369.26H145.296C141.982 369.26 139.296 366.574 139.296 363.26V323.427Z" fill="#6FD9E6"/>
<g id="Icon_2">
<path id="Mask_3" fill-rule="evenodd" clip-rule="evenodd" d="M177.147 341.283H176.1V338.152C176.1 334.708 173.272 331.89 169.816 331.89C166.36 331.89 163.533 334.708 163.533 338.152V341.283H162.485C160.705 341.283 159.344 342.64 159.344 344.415V351.721C159.344 353.495 160.705 354.852 162.485 354.852H177.147C178.927 354.852 180.289 353.495 180.289 351.721V344.415C180.289 342.64 178.927 341.283 177.147 341.283ZM165.627 338.152C165.627 335.856 167.512 333.977 169.816 333.977C172.12 333.977 174.005 335.856 174.005 338.152V341.283H165.627V338.152ZM177.147 352.764C177.775 352.764 178.194 352.347 178.194 351.721V344.415C178.194 343.788 177.775 343.371 177.147 343.371H162.485C161.857 343.371 161.438 343.788 161.438 344.415V351.721C161.438 352.347 161.857 352.764 162.485 352.764H177.147Z" fill="black"/>
<mask id="mask2" mask-type="alpha" maskUnits="userSpaceOnUse" x="159" y="331" width="22" height="24">
<path id="Mask_4" fill-rule="evenodd" clip-rule="evenodd" d="M177.147 341.283H176.1V338.152C176.1 334.708 173.272 331.89 169.816 331.89C166.36 331.89 163.533 334.708 163.533 338.152V341.283H162.485C160.705 341.283 159.344 342.64 159.344 344.415V351.721C159.344 353.495 160.705 354.852 162.485 354.852H177.147C178.927 354.852 180.289 353.495 180.289 351.721V344.415C180.289 342.64 178.927 341.283 177.147 341.283ZM165.627 338.152C165.627 335.856 167.512 333.977 169.816 333.977C172.12 333.977 174.005 335.856 174.005 338.152V341.283H165.627V338.152ZM177.147 352.764C177.775 352.764 178.194 352.347 178.194 351.721V344.415C178.194 343.788 177.775 343.371 177.147 343.371H162.485C161.857 343.371 161.438 343.788 161.438 344.415V351.721C161.438 352.347 161.857 352.764 162.485 352.764H177.147Z" fill="white"/>
</mask>
<g mask="url(#mask2)">
<g id="Icon Color_2">
<rect id="&#240;&#159;&#142;&#168; Icon Color_2" x="157.249" y="330.846" width="25.1339" height="25.0493" fill="white"/>
</g>
</g>
</g>
</g>
<g id="Group 34">
<path id="Rectangle_10" d="M193.509 157.924C193.509 154.61 196.195 151.924 199.509 151.924H249.991C253.305 151.924 255.991 154.61 255.991 157.924V197.757C255.991 201.071 253.305 203.757 249.991 203.757H199.509C196.195 203.757 193.509 201.071 193.509 197.757V157.924Z" fill="#BAF3C4"/>
<mask id="mask3" mask-type="alpha" maskUnits="userSpaceOnUse" x="193" y="151" width="63" height="53">
<path id="Rectangle_11" d="M193.509 157.924C193.509 154.61 196.195 151.924 199.509 151.924H249.991C253.305 151.924 255.991 154.61 255.991 157.924V197.757C255.991 201.071 253.305 203.757 249.991 203.757H199.509C196.195 203.757 193.509 201.071 193.509 197.757V157.924Z" fill="white"/>
</mask>
<g mask="url(#mask3)">
<ellipse id="Oval_8" cx="221.074" cy="171.021" rx="8.26975" ry="8.18421" fill="white"/>
<ellipse id="Oval_9" cx="202.238" cy="213.306" rx="29.863" ry="29.5541" fill="#28C76F"/>
<ellipse id="Oval_10" cx="256.45" cy="206.485" rx="35.3761" ry="34.5556" fill="#69E09E"/>
</g>
</g>
<g id="Group 23">
<g id="Rectangle_12" filter="url(#filter2_d)">
<path fill-rule="evenodd" clip-rule="evenodd" d="M276.246 141.049C276.224 135.51 280.708 131.009 286.246 131.009L375.958 131.009C381.465 131.009 385.936 135.462 385.958 140.969L386.429 259.191C386.451 264.729 381.968 269.231 376.429 269.231H286.718C281.21 269.231 276.74 264.778 276.718 259.271L276.246 141.049Z" fill="#313A53"/>
</g>
<path id="Rectangle_13" opacity="0.33996" d="M311.123 219.216C311.123 217.71 312.344 216.488 313.851 216.488H348.825C350.332 216.488 351.553 217.71 351.553 219.216V219.216C351.553 220.723 350.332 221.944 348.825 221.944H313.851C312.344 221.944 311.123 220.723 311.123 219.216V219.216Z" fill="#7367F0"/>
<path id="Rectangle_14" opacity="0.33996" d="M301.935 233.766C301.935 232.259 303.156 231.038 304.663 231.038H358.014C359.52 231.038 360.742 232.259 360.742 233.766V233.766C360.742 235.273 359.52 236.494 358.014 236.494H304.663C303.156 236.494 301.935 235.273 301.935 233.766V233.766Z" fill="#7367F0"/>
<g id="Icon8">
<g id="Oval_11" filter="url(#filter3_dd)">
<ellipse cx="331.407" cy="175.192" rx="21.2027" ry="21.4497" fill="white"/>
</g>
<g id="Group 70">
<path id="Combined Shape" fill-rule="evenodd" clip-rule="evenodd" d="M331.807 174.481C334.802 174.481 337.231 172.078 337.231 169.113C337.231 166.149 334.802 163.746 331.807 163.746C328.811 163.746 326.383 166.149 326.383 169.113C326.383 172.078 328.811 174.481 331.807 174.481ZM331.097 176.001C326.663 176.001 323.068 179.595 323.068 184.029C323.068 184.536 323.479 184.947 323.986 184.947H339.628C340.134 184.947 340.545 184.536 340.545 184.029C340.545 179.595 336.951 176.001 332.517 176.001H331.097Z" fill="#7367F0"/>
</g>
</g>
</g>
<g id="Wom3.5">
<g id="RArm">
<path id="Path_4" fill-rule="evenodd" clip-rule="evenodd" d="M436.346 286.631C436.346 286.631 426.071 296.69 426.701 297.674C427.331 298.664 432.509 296.363 432.509 296.363C432.509 296.363 426.049 306.93 427.378 307.742C428.707 308.554 435.504 306.91 437.588 304.732C439.672 302.554 442.889 291.562 442.889 291.562L458.517 262.597L447.183 258.715L436.346 286.631Z" fill="url(#paint2_linear)"/>
<path id="Path_5" fill-rule="evenodd" clip-rule="evenodd" d="M425.853 233.087C430.168 239.723 444.693 258.633 444.693 258.633L443.635 262.406L456.984 271.463C456.984 271.463 460.776 261.095 461.105 259.636C462.19 254.825 440.26 224.12 435.35 219.683C427.618 212.697 419.258 222.947 425.853 233.087Z" fill="#FD8715"/>
<path id="Path_6" fill-rule="evenodd" clip-rule="evenodd" d="M448.166 263.653C448.415 263.173 444.716 258.565 444.716 258.565L444.089 260.806C444.089 260.806 447.917 264.134 448.166 263.653Z" fill="black" fill-opacity="0.159856"/>
<path id="Path 70" fill-rule="evenodd" clip-rule="evenodd" d="M443.552 261.14L457.734 271.858L454.574 278.79L442.174 265.14L443.552 261.14Z" fill="#FFEDC2"/>
</g>
<g id="RLeg">
<path id="Path_7" fill-rule="evenodd" clip-rule="evenodd" d="M434.6 456.208L433.812 469.49L443.91 469.75L442.012 456.208H434.6Z" fill="url(#paint3_linear)"/>
<path id="Path_8" fill-rule="evenodd" clip-rule="evenodd" d="M444.389 461.44C444.389 461.44 444.105 469.439 445.779 472.232C447.463 475.024 447.974 477.189 448.048 478.859C448.128 480.65 447.957 482.272 447.957 482.272H431.244C431.244 482.272 430.826 473.856 431.933 472.269C433.039 470.683 433.766 470.655 433.766 469.253C433.774 467.851 434.014 461.493 434.014 461.493L444.389 461.44Z" fill="#391B0B"/>
<path id="Path_9" fill-rule="evenodd" clip-rule="evenodd" d="M399.024 278.88L425.219 276.062L425.604 276.416C427.471 278.176 435.584 286.352 437.916 297.527C442.317 318.624 436.426 357.589 436.557 366.134C436.681 374.678 440.761 379.833 442.456 391.914C444.152 403.995 444.312 457.987 444.312 457.987C439.817 460.623 435.861 460.812 430.502 457.828L399.024 278.88Z" fill="#4E3319"/>
<path id="Path_10" fill-rule="evenodd" clip-rule="evenodd" d="M422.423 411.899L399.024 278.88L413.589 277.313C414.238 323.523 423.295 385.987 422.423 411.899Z" fill="white" fill-opacity="0.192499"/>
</g>
<g id="LLeg">
<path id="Path_11" fill-rule="evenodd" clip-rule="evenodd" d="M404.39 454.811L395.779 454.949C395.779 454.949 396.345 463.795 393.034 466.791L392.853 466.948C388.856 470.263 404.277 469.067 404.277 469.067L404.39 454.811Z" fill="url(#paint4_linear)"/>
<path id="Path_12" fill-rule="evenodd" clip-rule="evenodd" d="M404.847 461.706L404.599 482.264L398.467 482.269L398.414 477.203C398.414 477.203 396.48 481.926 393.524 482.199C390.56 482.472 377.35 482.304 377.35 482.304C377.35 482.304 376.252 477.562 382.828 475.408C388.297 473.618 394.345 461.706 394.345 461.706H404.847Z" fill="#391B0B"/>
<path id="Path_13" fill-rule="evenodd" clip-rule="evenodd" d="M386.031 280.708L415.445 279.722L415.665 280.124C417.092 282.804 424.913 298.489 422.498 316.319C419.109 341.345 410.492 370.683 410.07 375.165C409.318 383.155 410.822 388.941 411.439 397.194C412.056 405.448 409.087 457.355 409.087 457.355C404.722 459.953 399.528 460.463 392.925 457.434C392.925 457.434 386.964 386.928 386.92 375.77C386.876 364.612 386.031 280.708 386.031 280.708Z" fill="#604021"/>
<path id="Path_14" fill-rule="evenodd" clip-rule="evenodd" d="M392.084 307.777L391.889 309.631C389.928 329.183 389.943 370.705 390.702 377.109L390.806 377.934C391.648 385.16 391.676 403.505 390.888 432.97L389.864 420.255C387.921 395.79 386.94 380.961 386.92 375.77L386.884 370.396C386.715 348.67 386.031 280.708 386.031 280.708L392.235 280.5C392.898 291.229 392.847 300.321 392.084 307.777Z" fill="white" fill-opacity="0.192499"/>
</g>
<g id="Head">
<path id="Path_15" fill-rule="evenodd" clip-rule="evenodd" d="M397.247 188.036C393.628 188.428 393.884 194.725 398.29 195.054C399.19 201.124 402.402 204.016 406.317 204.351L406.1 213.533L423.418 213.523C423.418 213.523 418.542 207.036 418.785 198.157C419.028 189.276 418.622 180.934 418.622 180.934L396.19 181.333L397.247 188.036Z" fill="url(#paint5_linear)"/>
<path id="Path_16" fill-rule="evenodd" clip-rule="evenodd" d="M396.459 188.508C400.674 186.858 403.788 193.961 407.013 198.898C410.239 203.835 418.595 202.996 419.747 198.898C424.107 189.922 427.865 177.72 422.776 176.718C422.06 163.746 387.752 166.809 396.459 188.508Z" fill="#8B5030"/>
<path id="Combined Shape_2" fill-rule="evenodd" clip-rule="evenodd" d="M419.947 171.56H412.536H412.425L412.35 171.642C405.75 178.933 404.266 189.665 407.337 199.352C407.59 199.679 407.867 199.976 408.164 200.246C404.697 190.467 406.016 179.456 412.647 172.06H420.542C420.354 171.886 420.155 171.719 419.947 171.56Z" fill="black" fill-opacity="0.199355"/>
<ellipse id="Oval_12" cx="415.413" cy="171.81" rx="4.13487" ry="4.0921" fill="#FB9934"/>
</g>
<g id="Body">
<path id="Path_17" fill-rule="evenodd" clip-rule="evenodd" d="M392.702 215.311C388.838 220.928 382.399 239.993 382.034 244.282C381.622 249.229 386.981 257.11 387.07 264.272C387.148 271.435 383.072 293.001 384.297 295.016C385.512 297.031 420.347 305.95 422.62 305.902C424.883 305.853 439.172 293.714 437.379 289.518C435.576 285.323 427.209 274.898 428.062 269.182C428.904 263.467 433.797 242.37 436.227 235.189C438.647 228.009 437.84 220.47 433.323 217.38C431.088 215.852 425.125 211.508 414.505 211.528C403.885 211.548 393.002 214.875 392.702 215.311Z" fill="#FD8715"/>
<path id="Path 68" fill-rule="evenodd" clip-rule="evenodd" d="M404.693 211.117C404.693 211.117 404.247 213.533 406.203 213.533C408.16 213.533 421.283 213.96 423.06 213.197C424.837 212.433 424.304 211.117 424.304 211.117H404.693Z" fill="#FFF6E1"/>
<path id="Path_18" fill-rule="evenodd" clip-rule="evenodd" d="M387.095 227.46L387.214 227.401C394.369 223.865 398.667 223.709 400.108 226.932C401.971 231.098 397.141 241.108 385.619 256.963C384.037 252.155 381.761 247.57 382.034 244.282C382.246 241.8 384.491 234.369 387.095 227.46Z" fill="black" fill-opacity="0.159856"/>
</g>
<g id="LArm">
<path id="Path_19" fill-rule="evenodd" clip-rule="evenodd" d="M339.362 215.75C339.362 215.75 338.073 212.981 336.047 212.231C334.021 211.482 330.922 206.519 331.401 205.078C331.88 203.637 336.072 199.64 336.072 199.64C336.072 199.64 332.366 189.799 334.007 188.688C335.457 187.707 340.944 200.103 340.944 200.103C340.944 200.103 344.17 200.584 344.915 201.851C346.791 205.046 345.373 212.231 345.373 212.231L364.416 239.772L355.678 250.86L339.362 215.75Z" fill="url(#paint6_linear)"/>
<path id="Path_20" fill-rule="evenodd" clip-rule="evenodd" d="M387.976 217.886C381.536 223.548 365.782 238.571 365.782 238.571C365.782 238.571 363.441 235.022 363.441 235.022L351.66 246.961C351.66 246.961 360.547 260.007 363.441 260.098C370.982 260.335 384.493 246.246 397.195 235.244C408.583 225.38 399.982 207.33 387.976 217.886Z" fill="#FD8715"/>
<path id="Path_21" fill-rule="evenodd" clip-rule="evenodd" d="M365.829 238.589C365.829 238.589 361.41 243.647 361.045 243.095C360.681 242.544 364.379 236.395 364.379 236.395L365.829 238.589Z" fill="black" fill-opacity="0.159856"/>
<path id="Path 69" fill-rule="evenodd" clip-rule="evenodd" d="M364.852 235.826L351.188 250.861L346.979 242.281L362.253 232.795L364.852 235.826Z" fill="#FFEDC2"/>
</g>
<path id="Path_22" fill-rule="evenodd" clip-rule="evenodd" d="M414.689 168.553C414.689 168.553 418.558 163.565 423.026 164.874C427.494 166.182 431.536 174.204 429.617 181.744C427.707 189.285 429.282 193.586 431.598 198.668C437.82 212.339 416.278 221.019 416.278 221.019C416.278 221.019 417.959 210.889 414.689 204.772C411.322 198.472 409.41 190.394 409.41 185.45C409.41 176.854 414.689 168.553 414.689 168.553Z" fill="#8B5030"/>
</g>
<g id="Group 39">
<path id="Rectangle_15" fill-rule="evenodd" clip-rule="evenodd" d="M366.255 113.828C381.822 104.951 397.601 105.476 413.558 113.828L412.552 124.915C411.179 140.047 402.798 153.663 389.906 161.705V161.705V161.705C376.456 153.719 367.833 139.592 366.877 123.979L366.255 113.828Z" fill="#28C76F"/>
<ellipse id="Oval_13" cx="389.907" cy="131.836" rx="12.9008" ry="12.7674" fill="#1CA258"/>
<g id="Group 40">
<path id="Path_23" fill-rule="evenodd" clip-rule="evenodd" d="M389.722 122.766C393.825 122.766 397.377 125.503 398.407 129.363C398.487 129.661 398.307 129.967 398.006 130.045C397.704 130.124 397.396 129.946 397.316 129.648C396.416 126.277 393.31 123.883 389.722 123.883C385.385 123.883 381.87 127.35 381.87 131.625C381.87 134.038 382.669 136.208 384.279 138.153C384.476 138.392 384.44 138.744 384.199 138.939C383.958 139.135 383.602 139.1 383.405 138.861C381.633 136.718 380.741 134.299 380.741 131.625C380.741 126.732 384.763 122.766 389.722 122.766Z" fill="white"/>
<path id="Path_24" fill-rule="evenodd" clip-rule="evenodd" d="M387.726 125.908C390.921 124.819 394.369 126.395 395.547 129.476L395.612 129.652C396.217 131.392 397.041 132.18 398.095 132.167C398.407 132.163 398.662 132.41 398.666 132.718C398.67 133.027 398.421 133.28 398.109 133.284C396.538 133.303 395.372 132.239 394.621 130.227L394.544 130.015C393.637 127.407 390.764 126.054 388.094 126.964C385.691 127.783 384.406 130.678 384.971 133.23C385.081 133.727 385.22 134.173 385.399 134.603L385.56 134.974C386.096 136.146 386.793 137.025 389.939 140.768C390.138 141.005 390.106 141.357 389.866 141.554C389.626 141.752 389.271 141.719 389.071 141.482L387.384 139.464C385.359 137.019 384.901 136.322 384.391 135.113L384.355 135.028C384.15 134.537 383.992 134.028 383.868 133.469C383.189 130.403 384.732 126.928 387.726 125.908Z" fill="white"/>
<path id="Path_25" fill-rule="evenodd" clip-rule="evenodd" d="M389.03 128.924C390.684 128.36 392.514 129.24 393.029 130.887C393.77 133.259 395.136 134.733 397.15 135.366C397.447 135.459 397.612 135.773 397.518 136.067C397.423 136.361 397.106 136.524 396.809 136.431C394.425 135.682 392.797 133.924 391.95 131.217C391.627 130.181 390.457 129.619 389.397 129.98C388.269 130.364 387.71 131.442 388.018 132.917C388.174 133.666 388.793 134.687 389.847 136.018L390.026 136.242C390.174 136.426 390.33 136.614 390.498 136.815L392.312 138.939C392.51 139.177 392.477 139.529 392.237 139.725C391.996 139.922 391.64 139.888 391.442 139.651L389.991 137.956L389.628 137.527C389.456 137.322 389.297 137.128 389.144 136.94L388.779 136.478C387.729 135.126 387.104 134.06 386.912 133.143C386.494 131.137 387.343 129.498 389.03 128.924Z" fill="white"/>
<path id="Path_26" fill-rule="evenodd" clip-rule="evenodd" d="M390.034 131.966C390.332 131.876 390.648 132.042 390.739 132.337C391.347 134.302 392.539 135.697 394.78 137.362C395.029 137.547 395.079 137.897 394.892 138.144C394.705 138.39 394.351 138.44 394.102 138.255C391.688 136.461 390.351 134.896 389.66 132.664C389.568 132.369 389.736 132.056 390.034 131.966Z" fill="white"/>
</g>
</g>
</g>
</g>
<defs>
<filter id="filter0_f" x="0.563437" y="185.223" width="94.1873" height="93.8874" filterUnits="userSpaceOnUse" color-interpolation-filters="sRGB">
<feFlood flood-opacity="0" result="BackgroundImageFix"/>
<feBlend mode="normal" in="SourceGraphic" in2="BackgroundImageFix" result="shape"/>
<feGaussianBlur stdDeviation="2.71828" result="effect1_foregroundBlur"/>
</filter>
<filter id="filter1_f" x="456.531" y="327.551" width="74.9043" height="74.6934" filterUnits="userSpaceOnUse" color-interpolation-filters="sRGB">
<feFlood flood-opacity="0" result="BackgroundImageFix"/>
<feBlend mode="normal" in="SourceGraphic" in2="BackgroundImageFix" result="shape"/>
<feGaussianBlur stdDeviation="4.07742" result="effect1_foregroundBlur"/>
</filter>
<filter id="filter2_d" x="256.246" y="112.009" width="166.183" height="194.222" filterUnits="userSpaceOnUse" color-interpolation-filters="sRGB">
<feFlood flood-opacity="0" result="BackgroundImageFix"/>
<feColorMatrix in="SourceAlpha" type="matrix" values="0 0 0 0 0 0 0 0 0 0 0 0 0 0 0 0 0 0 127 0"/>
<feOffset dx="8" dy="9"/>
<feGaussianBlur stdDeviation="14"/>
<feColorMatrix type="matrix" values="0 0 0 0 0.0862745 0 0 0 0 0.113725 0 0 0 0 0.192157 0 0 0 0.7 0"/>
<feBlend mode="normal" in2="BackgroundImageFix" result="effect1_dropShadow"/>
<feBlend mode="normal" in="SourceGraphic" in2="effect1_dropShadow" result="shape"/>
</filter>
<filter id="filter3_dd" x="290.204" y="134.743" width="98.4054" height="98.8993" filterUnits="userSpaceOnUse" color-interpolation-filters="sRGB">
<feFlood flood-opacity="0" result="BackgroundImageFix"/>
<feColorMatrix in="SourceAlpha" type="matrix" values="0 0 0 0 0 0 0 0 0 0 0 0 0 0 0 0 0 0 127 0"/>
<feOffset dx="8" dy="9"/>
<feGaussianBlur stdDeviation="14"/>
<feColorMatrix type="matrix" values="0 0 0 0 0.0755213 0 0 0 0 0.582569 0 0 0 0 0.878793 0 0 0 0.229458 0"/>
<feBlend mode="normal" in2="BackgroundImageFix" result="effect1_dropShadow"/>
<feColorMatrix in="SourceAlpha" type="matrix" values="0 0 0 0 0 0 0 0 0 0 0 0 0 0 0 0 0 0 127 0"/>
<feOffset dy="2"/>
<feGaussianBlur stdDeviation="7.5"/>
<feColorMatrix type="matrix" values="0 0 0 0 0.503982 0 0 0 0 0.700178 0 0 0 0 1 0 0 0 0.233829 0"/>
<feBlend mode="normal" in2="effect1_dropShadow" result="effect2_dropShadow"/>
<feBlend mode="normal" in="SourceGraphic" in2="effect2_dropShadow" result="shape"/>
</filter>
<linearGradient id="paint0_linear" x1="252.335" y1="270.363" x2="252.335" y2="212.641" gradientUnits="userSpaceOnUse">
<stop stop-color="#FF8C19"/>
<stop offset="1" stop-color="#FFC967"/>
</linearGradient>
<linearGradient id="paint1_linear" x1="245.482" y1="247.352" x2="245.482" y2="221.044" gradientUnits="userSpaceOnUse">
<stop stop-color="#F8FDFF"/>
<stop offset="1" stop-color="#AAD4FF"/>
</linearGradient>
<linearGradient id="paint2_linear" x1="424.08" y1="245.344" x2="427.481" y2="304.907" gradientUnits="userSpaceOnUse">
<stop stop-color="#FDC6C6"/>
<stop offset="1" stop-color="#FFCCA1"/>
</linearGradient>
<linearGradient id="paint3_linear" x1="432.065" y1="452.911" x2="433.457" y2="469.005" gradientUnits="userSpaceOnUse">
<stop stop-color="#FDC6C6"/>
<stop offset="1" stop-color="#FAB2B2"/>
</linearGradient>
<linearGradient id="paint4_linear" x1="390.081" y1="451.289" x2="391.397" y2="468.509" gradientUnits="userSpaceOnUse">
<stop stop-color="#FDC6C6"/>
<stop offset="1" stop-color="#FAB2B2"/>
</linearGradient>
<linearGradient id="paint5_linear" x1="389.777" y1="172.999" x2="392.621" y2="211.821" gradientUnits="userSpaceOnUse">
<stop stop-color="#FDC6C6"/>
<stop offset="1" stop-color="#FFCCA1"/>
</linearGradient>
<linearGradient id="paint6_linear" x1="325.63" y1="173.485" x2="334.537" y2="246.91" gradientUnits="userSpaceOnUse">
<stop stop-color="#FDC6C6"/>
<stop offset="1" stop-color="#FFCCA1"/>
</linearGradient>
</defs>
</svg>
