<?xml version="1.0" encoding="utf-8"?>
<!-- Generator: Adobe Illustrator 16.0.0, SVG Export Plug-In . SVG Version: 6.00 Build 0)  -->
<!DOCTYPE svg PUBLIC "-//W3C//DTD SVG 1.1//EN" "http://www.w3.org/Graphics/SVG/1.1/DTD/svg11.dtd">
<svg version="1.1" id="Layer_1" xmlns="http://www.w3.org/2000/svg" xmlns:xlink="http://www.w3.org/1999/xlink" x="0px" y="0px"
	 width="24px" height="24px" viewBox="0 0 24 24" enable-background="new 0 0 24 24" xml:space="preserve">
<g>
	<g>
		<g>
			<path fill="#FFFFFF" d="M2.4,17.4H2.3C2.2,17.4,2,17.3,2,17.1c-0.7-1.5-1.1-3.1-1.2-4.8V12v-0.3C0.8,10,1.2,8.4,2,6.9
				C2.4,6,3,5.2,3.6,4.4c2.2-2.5,5.4-4,8.7-4c2.8,0,5.4,1,7.601,2.9c0,0.2,0.1,0.3,0.1,0.4c0,0.1,0,0.3-0.1,0.4l-3.2,3.2
				c-0.2,0.2-0.5,0.2-0.7,0C14.9,6.5,13.6,6,12.2,6C11,6,9.7,6.4,8.7,7.1c-1,0.7-1.8,1.8-2.2,3c-0.2,0.5-0.3,1.1-0.3,1.6
				c0,0.1,0,0.2,0,0.3s0,0.2,0,0.2c0,0.6,0.1,1.1,0.3,1.6c0.1,0.2,0,0.4-0.2,0.601l-3.7,2.8C2.6,17.3,2.5,17.4,2.4,17.4z M12.2,1.5
				c-3.1,0-6,1.3-7.9,3.6C3.7,5.8,3.2,6.5,2.8,7.3c-0.7,1.4-1,2.8-1.1,4.4V12v0.3c0,1.3,0.3,2.601,0.8,3.8L5.4,13.9
				c-0.1-0.5-0.2-1-0.2-1.5c0-0.1,0-0.2,0-0.3s0-0.2,0-0.3c0-0.7,0.1-1.3,0.3-1.9C6,8.5,6.8,7.3,8,6.4c2.4-1.7,5.7-1.8,8.1-0.1
				l2.5-2.5C16.9,2.3,14.6,1.5,12.2,1.5z"/>
		</g>
		<g>
			<path fill="#FFFFFF" d="M12.2,23.5c-3.3,0-6.5-1.4-8.7-4c-0.7-0.8-1.2-1.6-1.6-2.4c-0.1-0.199,0-0.5,0.1-0.6l3.7-2.8
				C5.8,13.6,6,13.6,6.2,13.6c0.2,0,0.3,0.2,0.3,0.301c0.4,1.199,1.1,2.199,2.2,3c0.4,0.3,0.9,0.6,1.4,0.8
				c0.7,0.3,1.4,0.399,2.2,0.399c1.3,0,2.5-0.3,3.4-0.899c0.899-0.601,1.5-1.4,1.899-2.4h-5.3c-0.3,0-0.5-0.2-0.5-0.5V10
				c0-0.3,0.2-0.5,0.5-0.5h10.3c0.2,0,0.4,0.2,0.5,0.4c0.2,0.7,0.301,1.5,0.301,2.1c0,1.9-0.301,3.6-1,5.2
				c-0.601,1.3-1.4,2.5-2.5,3.5c-1.2,1.1-2.801,2-4.4,2.5C14.3,23.4,13.3,23.5,12.2,23.5z M3,17c0.4,0.7,0.8,1.3,1.3,1.9
				c2,2.3,4.9,3.6,8,3.6c1,0,1.9-0.1,2.8-0.4c1.5-0.399,2.9-1.199,4-2.199C20,19,20.8,18,21.3,16.8c0.601-1.399,1-3,1-4.8
				c0-0.5-0.1-1-0.2-1.5H12.7v3.3H18.1c0.2,0,0.301,0.101,0.4,0.2s0.1,0.3,0.1,0.4c-0.3,1.5-1.199,2.8-2.5,3.6
				C15,18.7,13.7,19,12.2,19c-0.9,0-1.7-0.2-2.5-0.5c-0.6-0.2-1.1-0.5-1.6-0.9c-1-0.699-1.8-1.699-2.3-2.8L3,17z"/>
		</g>
	</g>
	<g>
		<path fill="#FFFFFF" d="M6.1,10.5c-0.1,0-0.2,0-0.3-0.1L2.1,7.5C1.8,7.4,1.8,7,2,6.8c0.2-0.2,0.5-0.3,0.7-0.1l3.7,2.8
			c0.2,0.2,0.3,0.5,0.1,0.7C6.4,10.4,6.2,10.5,6.1,10.5z"/>
	</g>
	<g>
		<path fill="#FFFFFF" d="M19.4,20.8c-0.101,0-0.2,0-0.301-0.1L15.6,18c-0.199-0.2-0.3-0.5-0.1-0.7s0.5-0.3,0.7-0.1l3.5,2.7
			c0.2,0.199,0.3,0.5,0.1,0.699C19.7,20.7,19.6,20.8,19.4,20.8z"/>
	</g>
	<g>
		<path fill="#FFFFFF" d="M19.5,14.8h-5.9c-0.3,0-0.5-0.2-0.5-0.5s0.2-0.5,0.5-0.5h5.9c0.3,0,0.5,0.2,0.5,0.5S19.8,14.8,19.5,14.8z"
			/>
	</g>
</g>
</svg>
